<?xml version="1.0" encoding="utf-8" standalone="no"?>
<!DOCTYPE svg PUBLIC "-//W3C//DTD SVG 1.1//EN"
  "http://www.w3.org/Graphics/SVG/1.1/DTD/svg11.dtd">
<svg xmlns:xlink="http://www.w3.org/1999/xlink" width="864pt" height="432pt" viewBox="0 0 864 432" xmlns="http://www.w3.org/2000/svg" version="1.1">
 <metadata>
  <rdf:RDF xmlns:dc="http://purl.org/dc/elements/1.1/" xmlns:cc="http://creativecommons.org/ns#" xmlns:rdf="http://www.w3.org/1999/02/22-rdf-syntax-ns#">
   <cc:Work>
    <dc:type rdf:resource="http://purl.org/dc/dcmitype/StillImage"/>
    <dc:date>2025-10-01T18:42:02.569080</dc:date>
    <dc:format>image/svg+xml</dc:format>
    <dc:creator>
     <cc:Agent>
      <dc:title>Matplotlib v3.10.1, https://matplotlib.org/</dc:title>
     </cc:Agent>
    </dc:creator>
   </cc:Work>
  </rdf:RDF>
 </metadata>
 <defs>
  <style type="text/css">*{stroke-linejoin: round; stroke-linecap: butt}</style>
 </defs>
 <g id="figure_1">
  <g id="patch_1">
   <path d="M 0 432 
L 864 432 
L 864 0 
L 0 0 
z
" style="fill: #ffffff"/>
  </g>
  <g id="axes_1">
   <g id="patch_2">
    <path d="M 108 384.48 
L 777.6 384.48 
L 777.6 51.84 
L 108 51.84 
z
" style="fill: #ffffff"/>
   </g>
   <g id="matplotlib.axis_1">
    <g id="xtick_1">
     <g id="line2d_1">
      <path d="M 135.24931 384.48 
L 135.24931 51.84 
" clip-path="url(#pcf87f12237)" style="fill: none; stroke: #b0b0b0; stroke-width: 0.8; stroke-linecap: square"/>
     </g>
     <g id="line2d_2">
      <defs>
       <path id="md169895c4f" d="M 0 0 
L 0 3.5 
" style="stroke: #000000; stroke-width: 0.8"/>
      </defs>
      <g>
       <use xlink:href="#md169895c4f" x="135.24931" y="384.48" style="stroke: #000000; stroke-width: 0.8"/>
      </g>
     </g>
     <g id="text_1">
      <!-- 0 -->
      <g transform="translate(132.06806 399.078438) scale(0.1 -0.1)">
       <defs>
        <path id="DejaVuSans-30" d="M 2034 4250 
Q 1547 4250 1301 3770 
Q 1056 3291 1056 2328 
Q 1056 1369 1301 889 
Q 1547 409 2034 409 
Q 2525 409 2770 889 
Q 3016 1369 3016 2328 
Q 3016 3291 2770 3770 
Q 2525 4250 2034 4250 
z
M 2034 4750 
Q 2819 4750 3233 4129 
Q 3647 3509 3647 2328 
Q 3647 1150 3233 529 
Q 2819 -91 2034 -91 
Q 1250 -91 836 529 
Q 422 1150 422 2328 
Q 422 3509 836 4129 
Q 1250 4750 2034 4750 
z
" transform="scale(0.015625)"/>
       </defs>
       <use xlink:href="#DejaVuSans-30"/>
      </g>
     </g>
    </g>
    <g id="xtick_2">
     <g id="line2d_3">
      <path d="M 214.925654 384.48 
L 214.925654 51.84 
" clip-path="url(#pcf87f12237)" style="fill: none; stroke: #b0b0b0; stroke-width: 0.8; stroke-linecap: square"/>
     </g>
     <g id="line2d_4">
      <g>
       <use xlink:href="#md169895c4f" x="214.925654" y="384.48" style="stroke: #000000; stroke-width: 0.8"/>
      </g>
     </g>
     <g id="text_2">
      <!-- 25 -->
      <g transform="translate(208.563154 399.078438) scale(0.1 -0.1)">
       <defs>
        <path id="DejaVuSans-32" d="M 1228 531 
L 3431 531 
L 3431 0 
L 469 0 
L 469 531 
Q 828 903 1448 1529 
Q 2069 2156 2228 2338 
Q 2531 2678 2651 2914 
Q 2772 3150 2772 3378 
Q 2772 3750 2511 3984 
Q 2250 4219 1831 4219 
Q 1534 4219 1204 4116 
Q 875 4013 500 3803 
L 500 4441 
Q 881 4594 1212 4672 
Q 1544 4750 1819 4750 
Q 2544 4750 2975 4387 
Q 3406 4025 3406 3419 
Q 3406 3131 3298 2873 
Q 3191 2616 2906 2266 
Q 2828 2175 2409 1742 
Q 1991 1309 1228 531 
z
" transform="scale(0.015625)"/>
        <path id="DejaVuSans-35" d="M 691 4666 
L 3169 4666 
L 3169 4134 
L 1269 4134 
L 1269 2991 
Q 1406 3038 1543 3061 
Q 1681 3084 1819 3084 
Q 2600 3084 3056 2656 
Q 3513 2228 3513 1497 
Q 3513 744 3044 326 
Q 2575 -91 1722 -91 
Q 1428 -91 1123 -41 
Q 819 9 494 109 
L 494 744 
Q 775 591 1075 516 
Q 1375 441 1709 441 
Q 2250 441 2565 725 
Q 2881 1009 2881 1497 
Q 2881 1984 2565 2268 
Q 2250 2553 1709 2553 
Q 1456 2553 1204 2497 
Q 953 2441 691 2322 
L 691 4666 
z
" transform="scale(0.015625)"/>
       </defs>
       <use xlink:href="#DejaVuSans-32"/>
       <use xlink:href="#DejaVuSans-35" transform="translate(63.623047 0)"/>
      </g>
     </g>
    </g>
    <g id="xtick_3">
     <g id="line2d_5">
      <path d="M 294.601999 384.48 
L 294.601999 51.84 
" clip-path="url(#pcf87f12237)" style="fill: none; stroke: #b0b0b0; stroke-width: 0.8; stroke-linecap: square"/>
     </g>
     <g id="line2d_6">
      <g>
       <use xlink:href="#md169895c4f" x="294.601999" y="384.48" style="stroke: #000000; stroke-width: 0.8"/>
      </g>
     </g>
     <g id="text_3">
      <!-- 50 -->
      <g transform="translate(288.239499 399.078438) scale(0.1 -0.1)">
       <use xlink:href="#DejaVuSans-35"/>
       <use xlink:href="#DejaVuSans-30" transform="translate(63.623047 0)"/>
      </g>
     </g>
    </g>
    <g id="xtick_4">
     <g id="line2d_7">
      <path d="M 374.278344 384.48 
L 374.278344 51.84 
" clip-path="url(#pcf87f12237)" style="fill: none; stroke: #b0b0b0; stroke-width: 0.8; stroke-linecap: square"/>
     </g>
     <g id="line2d_8">
      <g>
       <use xlink:href="#md169895c4f" x="374.278344" y="384.48" style="stroke: #000000; stroke-width: 0.8"/>
      </g>
     </g>
     <g id="text_4">
      <!-- 75 -->
      <g transform="translate(367.915844 399.078438) scale(0.1 -0.1)">
       <defs>
        <path id="DejaVuSans-37" d="M 525 4666 
L 3525 4666 
L 3525 4397 
L 1831 0 
L 1172 0 
L 2766 4134 
L 525 4134 
L 525 4666 
z
" transform="scale(0.015625)"/>
       </defs>
       <use xlink:href="#DejaVuSans-37"/>
       <use xlink:href="#DejaVuSans-35" transform="translate(63.623047 0)"/>
      </g>
     </g>
    </g>
    <g id="xtick_5">
     <g id="line2d_9">
      <path d="M 453.954688 384.48 
L 453.954688 51.84 
" clip-path="url(#pcf87f12237)" style="fill: none; stroke: #b0b0b0; stroke-width: 0.8; stroke-linecap: square"/>
     </g>
     <g id="line2d_10">
      <g>
       <use xlink:href="#md169895c4f" x="453.954688" y="384.48" style="stroke: #000000; stroke-width: 0.8"/>
      </g>
     </g>
     <g id="text_5">
      <!-- 100 -->
      <g transform="translate(444.410938 399.078438) scale(0.1 -0.1)">
       <defs>
        <path id="DejaVuSans-31" d="M 794 531 
L 1825 531 
L 1825 4091 
L 703 3866 
L 703 4441 
L 1819 4666 
L 2450 4666 
L 2450 531 
L 3481 531 
L 3481 0 
L 794 0 
L 794 531 
z
" transform="scale(0.015625)"/>
       </defs>
       <use xlink:href="#DejaVuSans-31"/>
       <use xlink:href="#DejaVuSans-30" transform="translate(63.623047 0)"/>
       <use xlink:href="#DejaVuSans-30" transform="translate(127.246094 0)"/>
      </g>
     </g>
    </g>
    <g id="xtick_6">
     <g id="line2d_11">
      <path d="M 533.631033 384.48 
L 533.631033 51.84 
" clip-path="url(#pcf87f12237)" style="fill: none; stroke: #b0b0b0; stroke-width: 0.8; stroke-linecap: square"/>
     </g>
     <g id="line2d_12">
      <g>
       <use xlink:href="#md169895c4f" x="533.631033" y="384.48" style="stroke: #000000; stroke-width: 0.8"/>
      </g>
     </g>
     <g id="text_6">
      <!-- 125 -->
      <g transform="translate(524.087283 399.078438) scale(0.1 -0.1)">
       <use xlink:href="#DejaVuSans-31"/>
       <use xlink:href="#DejaVuSans-32" transform="translate(63.623047 0)"/>
       <use xlink:href="#DejaVuSans-35" transform="translate(127.246094 0)"/>
      </g>
     </g>
    </g>
    <g id="xtick_7">
     <g id="line2d_13">
      <path d="M 613.307377 384.48 
L 613.307377 51.84 
" clip-path="url(#pcf87f12237)" style="fill: none; stroke: #b0b0b0; stroke-width: 0.8; stroke-linecap: square"/>
     </g>
     <g id="line2d_14">
      <g>
       <use xlink:href="#md169895c4f" x="613.307377" y="384.48" style="stroke: #000000; stroke-width: 0.8"/>
      </g>
     </g>
     <g id="text_7">
      <!-- 150 -->
      <g transform="translate(603.763627 399.078438) scale(0.1 -0.1)">
       <use xlink:href="#DejaVuSans-31"/>
       <use xlink:href="#DejaVuSans-35" transform="translate(63.623047 0)"/>
       <use xlink:href="#DejaVuSans-30" transform="translate(127.246094 0)"/>
      </g>
     </g>
    </g>
    <g id="xtick_8">
     <g id="line2d_15">
      <path d="M 692.983722 384.48 
L 692.983722 51.84 
" clip-path="url(#pcf87f12237)" style="fill: none; stroke: #b0b0b0; stroke-width: 0.8; stroke-linecap: square"/>
     </g>
     <g id="line2d_16">
      <g>
       <use xlink:href="#md169895c4f" x="692.983722" y="384.48" style="stroke: #000000; stroke-width: 0.8"/>
      </g>
     </g>
     <g id="text_8">
      <!-- 175 -->
      <g transform="translate(683.439972 399.078438) scale(0.1 -0.1)">
       <use xlink:href="#DejaVuSans-31"/>
       <use xlink:href="#DejaVuSans-37" transform="translate(63.623047 0)"/>
       <use xlink:href="#DejaVuSans-35" transform="translate(127.246094 0)"/>
      </g>
     </g>
    </g>
    <g id="xtick_9">
     <g id="line2d_17">
      <path d="M 772.660067 384.48 
L 772.660067 51.84 
" clip-path="url(#pcf87f12237)" style="fill: none; stroke: #b0b0b0; stroke-width: 0.8; stroke-linecap: square"/>
     </g>
     <g id="line2d_18">
      <g>
       <use xlink:href="#md169895c4f" x="772.660067" y="384.48" style="stroke: #000000; stroke-width: 0.8"/>
      </g>
     </g>
     <g id="text_9">
      <!-- 200 -->
      <g transform="translate(763.116317 399.078438) scale(0.1 -0.1)">
       <use xlink:href="#DejaVuSans-32"/>
       <use xlink:href="#DejaVuSans-30" transform="translate(63.623047 0)"/>
       <use xlink:href="#DejaVuSans-30" transform="translate(127.246094 0)"/>
      </g>
     </g>
    </g>
    <g id="text_10">
     <!-- Iteration -->
     <g transform="translate(421.591406 412.756563) scale(0.1 -0.1)">
      <defs>
       <path id="DejaVuSans-49" d="M 628 4666 
L 1259 4666 
L 1259 0 
L 628 0 
L 628 4666 
z
" transform="scale(0.015625)"/>
       <path id="DejaVuSans-74" d="M 1172 4494 
L 1172 3500 
L 2356 3500 
L 2356 3053 
L 1172 3053 
L 1172 1153 
Q 1172 725 1289 603 
Q 1406 481 1766 481 
L 2356 481 
L 2356 0 
L 1766 0 
Q 1100 0 847 248 
Q 594 497 594 1153 
L 594 3053 
L 172 3053 
L 172 3500 
L 594 3500 
L 594 4494 
L 1172 4494 
z
" transform="scale(0.015625)"/>
       <path id="DejaVuSans-65" d="M 3597 1894 
L 3597 1613 
L 953 1613 
Q 991 1019 1311 708 
Q 1631 397 2203 397 
Q 2534 397 2845 478 
Q 3156 559 3463 722 
L 3463 178 
Q 3153 47 2828 -22 
Q 2503 -91 2169 -91 
Q 1331 -91 842 396 
Q 353 884 353 1716 
Q 353 2575 817 3079 
Q 1281 3584 2069 3584 
Q 2775 3584 3186 3129 
Q 3597 2675 3597 1894 
z
M 3022 2063 
Q 3016 2534 2758 2815 
Q 2500 3097 2075 3097 
Q 1594 3097 1305 2825 
Q 1016 2553 972 2059 
L 3022 2063 
z
" transform="scale(0.015625)"/>
       <path id="DejaVuSans-72" d="M 2631 2963 
Q 2534 3019 2420 3045 
Q 2306 3072 2169 3072 
Q 1681 3072 1420 2755 
Q 1159 2438 1159 1844 
L 1159 0 
L 581 0 
L 581 3500 
L 1159 3500 
L 1159 2956 
Q 1341 3275 1631 3429 
Q 1922 3584 2338 3584 
Q 2397 3584 2469 3576 
Q 2541 3569 2628 3553 
L 2631 2963 
z
" transform="scale(0.015625)"/>
       <path id="DejaVuSans-61" d="M 2194 1759 
Q 1497 1759 1228 1600 
Q 959 1441 959 1056 
Q 959 750 1161 570 
Q 1363 391 1709 391 
Q 2188 391 2477 730 
Q 2766 1069 2766 1631 
L 2766 1759 
L 2194 1759 
z
M 3341 1997 
L 3341 0 
L 2766 0 
L 2766 531 
Q 2569 213 2275 61 
Q 1981 -91 1556 -91 
Q 1019 -91 701 211 
Q 384 513 384 1019 
Q 384 1609 779 1909 
Q 1175 2209 1959 2209 
L 2766 2209 
L 2766 2266 
Q 2766 2663 2505 2880 
Q 2244 3097 1772 3097 
Q 1472 3097 1187 3025 
Q 903 2953 641 2809 
L 641 3341 
Q 956 3463 1253 3523 
Q 1550 3584 1831 3584 
Q 2591 3584 2966 3190 
Q 3341 2797 3341 1997 
z
" transform="scale(0.015625)"/>
       <path id="DejaVuSans-69" d="M 603 3500 
L 1178 3500 
L 1178 0 
L 603 0 
L 603 3500 
z
M 603 4863 
L 1178 4863 
L 1178 4134 
L 603 4134 
L 603 4863 
z
" transform="scale(0.015625)"/>
       <path id="DejaVuSans-6f" d="M 1959 3097 
Q 1497 3097 1228 2736 
Q 959 2375 959 1747 
Q 959 1119 1226 758 
Q 1494 397 1959 397 
Q 2419 397 2687 759 
Q 2956 1122 2956 1747 
Q 2956 2369 2687 2733 
Q 2419 3097 1959 3097 
z
M 1959 3584 
Q 2709 3584 3137 3096 
Q 3566 2609 3566 1747 
Q 3566 888 3137 398 
Q 2709 -91 1959 -91 
Q 1206 -91 779 398 
Q 353 888 353 1747 
Q 353 2609 779 3096 
Q 1206 3584 1959 3584 
z
" transform="scale(0.015625)"/>
       <path id="DejaVuSans-6e" d="M 3513 2113 
L 3513 0 
L 2938 0 
L 2938 2094 
Q 2938 2591 2744 2837 
Q 2550 3084 2163 3084 
Q 1697 3084 1428 2787 
Q 1159 2491 1159 1978 
L 1159 0 
L 581 0 
L 581 3500 
L 1159 3500 
L 1159 2956 
Q 1366 3272 1645 3428 
Q 1925 3584 2291 3584 
Q 2894 3584 3203 3211 
Q 3513 2838 3513 2113 
z
" transform="scale(0.015625)"/>
      </defs>
      <use xlink:href="#DejaVuSans-49"/>
      <use xlink:href="#DejaVuSans-74" transform="translate(29.492188 0)"/>
      <use xlink:href="#DejaVuSans-65" transform="translate(68.701172 0)"/>
      <use xlink:href="#DejaVuSans-72" transform="translate(130.224609 0)"/>
      <use xlink:href="#DejaVuSans-61" transform="translate(171.337891 0)"/>
      <use xlink:href="#DejaVuSans-74" transform="translate(232.617188 0)"/>
      <use xlink:href="#DejaVuSans-69" transform="translate(271.826172 0)"/>
      <use xlink:href="#DejaVuSans-6f" transform="translate(299.609375 0)"/>
      <use xlink:href="#DejaVuSans-6e" transform="translate(360.791016 0)"/>
     </g>
    </g>
   </g>
   <g id="matplotlib.axis_2">
    <g id="ytick_1">
     <g id="line2d_19">
      <path d="M 108 384.48 
L 777.6 384.48 
" clip-path="url(#pcf87f12237)" style="fill: none; stroke: #b0b0b0; stroke-width: 0.8; stroke-linecap: square"/>
     </g>
     <g id="line2d_20">
      <defs>
       <path id="mc374179afa" d="M 0 0 
L -3.5 0 
" style="stroke: #000000; stroke-width: 0.8"/>
      </defs>
      <g>
       <use xlink:href="#mc374179afa" x="108" y="384.48" style="stroke: #000000; stroke-width: 0.8"/>
      </g>
     </g>
     <g id="text_11">
      <!-- 0.0 -->
      <g transform="translate(85.096875 388.279219) scale(0.1 -0.1)">
       <defs>
        <path id="DejaVuSans-2e" d="M 684 794 
L 1344 794 
L 1344 0 
L 684 0 
L 684 794 
z
" transform="scale(0.015625)"/>
       </defs>
       <use xlink:href="#DejaVuSans-30"/>
       <use xlink:href="#DejaVuSans-2e" transform="translate(63.623047 0)"/>
       <use xlink:href="#DejaVuSans-30" transform="translate(95.410156 0)"/>
      </g>
     </g>
    </g>
    <g id="ytick_2">
     <g id="line2d_21">
      <path d="M 108 324 
L 777.6 324 
" clip-path="url(#pcf87f12237)" style="fill: none; stroke: #b0b0b0; stroke-width: 0.8; stroke-linecap: square"/>
     </g>
     <g id="line2d_22">
      <g>
       <use xlink:href="#mc374179afa" x="108" y="324" style="stroke: #000000; stroke-width: 0.8"/>
      </g>
     </g>
     <g id="text_12">
      <!-- 0.2 -->
      <g transform="translate(85.096875 327.799219) scale(0.1 -0.1)">
       <use xlink:href="#DejaVuSans-30"/>
       <use xlink:href="#DejaVuSans-2e" transform="translate(63.623047 0)"/>
       <use xlink:href="#DejaVuSans-32" transform="translate(95.410156 0)"/>
      </g>
     </g>
    </g>
    <g id="ytick_3">
     <g id="line2d_23">
      <path d="M 108 263.52 
L 777.6 263.52 
" clip-path="url(#pcf87f12237)" style="fill: none; stroke: #b0b0b0; stroke-width: 0.8; stroke-linecap: square"/>
     </g>
     <g id="line2d_24">
      <g>
       <use xlink:href="#mc374179afa" x="108" y="263.52" style="stroke: #000000; stroke-width: 0.8"/>
      </g>
     </g>
     <g id="text_13">
      <!-- 0.4 -->
      <g transform="translate(85.096875 267.319219) scale(0.1 -0.1)">
       <defs>
        <path id="DejaVuSans-34" d="M 2419 4116 
L 825 1625 
L 2419 1625 
L 2419 4116 
z
M 2253 4666 
L 3047 4666 
L 3047 1625 
L 3713 1625 
L 3713 1100 
L 3047 1100 
L 3047 0 
L 2419 0 
L 2419 1100 
L 313 1100 
L 313 1709 
L 2253 4666 
z
" transform="scale(0.015625)"/>
       </defs>
       <use xlink:href="#DejaVuSans-30"/>
       <use xlink:href="#DejaVuSans-2e" transform="translate(63.623047 0)"/>
       <use xlink:href="#DejaVuSans-34" transform="translate(95.410156 0)"/>
      </g>
     </g>
    </g>
    <g id="ytick_4">
     <g id="line2d_25">
      <path d="M 108 203.04 
L 777.6 203.04 
" clip-path="url(#pcf87f12237)" style="fill: none; stroke: #b0b0b0; stroke-width: 0.8; stroke-linecap: square"/>
     </g>
     <g id="line2d_26">
      <g>
       <use xlink:href="#mc374179afa" x="108" y="203.04" style="stroke: #000000; stroke-width: 0.8"/>
      </g>
     </g>
     <g id="text_14">
      <!-- 0.6 -->
      <g transform="translate(85.096875 206.839219) scale(0.1 -0.1)">
       <defs>
        <path id="DejaVuSans-36" d="M 2113 2584 
Q 1688 2584 1439 2293 
Q 1191 2003 1191 1497 
Q 1191 994 1439 701 
Q 1688 409 2113 409 
Q 2538 409 2786 701 
Q 3034 994 3034 1497 
Q 3034 2003 2786 2293 
Q 2538 2584 2113 2584 
z
M 3366 4563 
L 3366 3988 
Q 3128 4100 2886 4159 
Q 2644 4219 2406 4219 
Q 1781 4219 1451 3797 
Q 1122 3375 1075 2522 
Q 1259 2794 1537 2939 
Q 1816 3084 2150 3084 
Q 2853 3084 3261 2657 
Q 3669 2231 3669 1497 
Q 3669 778 3244 343 
Q 2819 -91 2113 -91 
Q 1303 -91 875 529 
Q 447 1150 447 2328 
Q 447 3434 972 4092 
Q 1497 4750 2381 4750 
Q 2619 4750 2861 4703 
Q 3103 4656 3366 4563 
z
" transform="scale(0.015625)"/>
       </defs>
       <use xlink:href="#DejaVuSans-30"/>
       <use xlink:href="#DejaVuSans-2e" transform="translate(63.623047 0)"/>
       <use xlink:href="#DejaVuSans-36" transform="translate(95.410156 0)"/>
      </g>
     </g>
    </g>
    <g id="ytick_5">
     <g id="line2d_27">
      <path d="M 108 142.56 
L 777.6 142.56 
" clip-path="url(#pcf87f12237)" style="fill: none; stroke: #b0b0b0; stroke-width: 0.8; stroke-linecap: square"/>
     </g>
     <g id="line2d_28">
      <g>
       <use xlink:href="#mc374179afa" x="108" y="142.56" style="stroke: #000000; stroke-width: 0.8"/>
      </g>
     </g>
     <g id="text_15">
      <!-- 0.8 -->
      <g transform="translate(85.096875 146.359219) scale(0.1 -0.1)">
       <defs>
        <path id="DejaVuSans-38" d="M 2034 2216 
Q 1584 2216 1326 1975 
Q 1069 1734 1069 1313 
Q 1069 891 1326 650 
Q 1584 409 2034 409 
Q 2484 409 2743 651 
Q 3003 894 3003 1313 
Q 3003 1734 2745 1975 
Q 2488 2216 2034 2216 
z
M 1403 2484 
Q 997 2584 770 2862 
Q 544 3141 544 3541 
Q 544 4100 942 4425 
Q 1341 4750 2034 4750 
Q 2731 4750 3128 4425 
Q 3525 4100 3525 3541 
Q 3525 3141 3298 2862 
Q 3072 2584 2669 2484 
Q 3125 2378 3379 2068 
Q 3634 1759 3634 1313 
Q 3634 634 3220 271 
Q 2806 -91 2034 -91 
Q 1263 -91 848 271 
Q 434 634 434 1313 
Q 434 1759 690 2068 
Q 947 2378 1403 2484 
z
M 1172 3481 
Q 1172 3119 1398 2916 
Q 1625 2713 2034 2713 
Q 2441 2713 2670 2916 
Q 2900 3119 2900 3481 
Q 2900 3844 2670 4047 
Q 2441 4250 2034 4250 
Q 1625 4250 1398 4047 
Q 1172 3844 1172 3481 
z
" transform="scale(0.015625)"/>
       </defs>
       <use xlink:href="#DejaVuSans-30"/>
       <use xlink:href="#DejaVuSans-2e" transform="translate(63.623047 0)"/>
       <use xlink:href="#DejaVuSans-38" transform="translate(95.410156 0)"/>
      </g>
     </g>
    </g>
    <g id="ytick_6">
     <g id="line2d_29">
      <path d="M 108 82.08 
L 777.6 82.08 
" clip-path="url(#pcf87f12237)" style="fill: none; stroke: #b0b0b0; stroke-width: 0.8; stroke-linecap: square"/>
     </g>
     <g id="line2d_30">
      <g>
       <use xlink:href="#mc374179afa" x="108" y="82.08" style="stroke: #000000; stroke-width: 0.8"/>
      </g>
     </g>
     <g id="text_16">
      <!-- 1.0 -->
      <g transform="translate(85.096875 85.879219) scale(0.1 -0.1)">
       <use xlink:href="#DejaVuSans-31"/>
       <use xlink:href="#DejaVuSans-2e" transform="translate(63.623047 0)"/>
       <use xlink:href="#DejaVuSans-30" transform="translate(95.410156 0)"/>
      </g>
     </g>
    </g>
    <g id="text_17">
     <!-- Metric -->
     <g transform="translate(79.017187 233.704531) rotate(-90) scale(0.1 -0.1)">
      <defs>
       <path id="DejaVuSans-4d" d="M 628 4666 
L 1569 4666 
L 2759 1491 
L 3956 4666 
L 4897 4666 
L 4897 0 
L 4281 0 
L 4281 4097 
L 3078 897 
L 2444 897 
L 1241 4097 
L 1241 0 
L 628 0 
L 628 4666 
z
" transform="scale(0.015625)"/>
       <path id="DejaVuSans-63" d="M 3122 3366 
L 3122 2828 
Q 2878 2963 2633 3030 
Q 2388 3097 2138 3097 
Q 1578 3097 1268 2742 
Q 959 2388 959 1747 
Q 959 1106 1268 751 
Q 1578 397 2138 397 
Q 2388 397 2633 464 
Q 2878 531 3122 666 
L 3122 134 
Q 2881 22 2623 -34 
Q 2366 -91 2075 -91 
Q 1284 -91 818 406 
Q 353 903 353 1747 
Q 353 2603 823 3093 
Q 1294 3584 2113 3584 
Q 2378 3584 2631 3529 
Q 2884 3475 3122 3366 
z
" transform="scale(0.015625)"/>
      </defs>
      <use xlink:href="#DejaVuSans-4d"/>
      <use xlink:href="#DejaVuSans-65" transform="translate(86.279297 0)"/>
      <use xlink:href="#DejaVuSans-74" transform="translate(147.802734 0)"/>
      <use xlink:href="#DejaVuSans-72" transform="translate(187.011719 0)"/>
      <use xlink:href="#DejaVuSans-69" transform="translate(228.125 0)"/>
      <use xlink:href="#DejaVuSans-63" transform="translate(255.908203 0)"/>
     </g>
    </g>
   </g>
   <g id="line2d_31">
    <path d="M 138.436364 298.498543 
L 336.033698 298.497883 
L 339.220752 295.956906 
L 345.59486 295.956906 
L 348.781913 290.009796 
L 377.465397 290.009796 
L 380.652451 287.865621 
L 453.954688 287.865621 
L 457.141742 286.578662 
L 463.51585 286.578662 
L 466.702903 286.160852 
L 473.077011 286.154841 
L 476.264065 282.335487 
L 479.451119 282.335487 
L 482.638172 278.394095 
L 489.01228 278.394095 
L 492.199334 266.245221 
L 508.134603 266.245221 
L 511.321656 262.489942 
L 520.882818 262.489942 
L 524.069871 261.506603 
L 527.256925 260.912112 
L 536.818087 260.912112 
L 540.00514 258.55678 
L 543.192194 258.532384 
L 546.379248 257.764125 
L 552.753356 257.764125 
L 555.940409 241.790153 
L 559.127463 241.788777 
L 562.314517 231.944204 
L 581.43684 231.937494 
L 584.623893 231.766015 
L 587.810947 231.162306 
L 590.998001 229.78249 
L 613.307377 229.78249 
L 616.494431 226.426645 
L 622.868539 226.426016 
L 626.055593 222.666997 
L 661.113184 222.528854 
L 664.300238 222.299136 
L 670.674346 190.04843 
L 696.170776 189.94505 
L 702.544883 189.840314 
L 747.163636 189.83432 
L 747.163636 189.83432 
" clip-path="url(#pcf87f12237)" style="fill: none; stroke-dasharray: 5.55,2.4; stroke-dashoffset: 0; stroke: #ff0000; stroke-width: 1.5"/>
   </g>
   <g id="line2d_32">
    <path d="M 138.436364 384.1354 
L 141.623417 383.76859 
L 144.810471 383.700878 
L 151.184579 382.27082 
L 154.371633 382.819989 
L 157.558686 382.104406 
L 160.74574 382.422957 
L 163.932794 383.622092 
L 167.119848 382.892159 
L 170.306901 382.795745 
L 173.493955 384.177327 
L 176.681009 384.198603 
L 179.868063 383.199414 
L 183.055117 382.020254 
L 186.24217 382.44104 
L 189.429224 384.190782 
L 192.616278 384.098553 
L 195.803332 382.714204 
L 198.990386 380.935809 
L 202.177439 381.308536 
L 205.364493 382.636331 
L 208.551547 383.055611 
L 211.738601 384.361956 
L 214.925654 383.286399 
L 218.112708 383.333605 
L 221.299762 382.832054 
L 224.486816 383.990884 
L 227.67387 382.606074 
L 230.860923 384.024916 
L 234.047977 384.246047 
L 237.235031 384.056268 
L 240.422085 383.715736 
L 243.609139 379.153983 
L 246.796192 383.021167 
L 249.983246 382.632988 
L 253.1703 380.385381 
L 256.357354 382.010208 
L 259.544407 384.017103 
L 262.731461 384.402045 
L 269.105569 381.644584 
L 272.292623 384.140831 
L 275.479676 383.068537 
L 278.66673 382.904271 
L 281.853784 384.386169 
L 285.040838 384.439531 
L 288.227891 382.649848 
L 291.414945 382.973238 
L 294.601999 384.095209 
L 297.789053 384.148427 
L 300.976107 384.39746 
L 304.16316 383.964519 
L 307.350214 383.760968 
L 310.537268 383.119218 
L 313.724322 383.939197 
L 316.911376 383.180385 
L 320.098429 384.26242 
L 323.285483 380.61443 
L 326.472537 384.203014 
L 329.659591 377.877837 
L 332.846644 381.008997 
L 336.033698 383.776755 
L 339.220752 373.284981 
L 342.407806 357.032261 
L 345.59486 370.086496 
L 348.781913 363.102857 
L 351.968967 370.328067 
L 355.156021 374.687345 
L 358.343075 369.943275 
L 361.530129 373.327176 
L 364.717182 370.258527 
L 367.904236 379.734712 
L 371.09129 375.390115 
L 374.278344 380.310903 
L 377.465397 380.587549 
L 380.652451 360.690641 
L 383.839505 372.037063 
L 387.026559 377.508002 
L 390.213613 376.969001 
L 393.400666 363.05755 
L 396.58772 380.916481 
L 399.774774 367.395366 
L 406.148881 382.992216 
L 409.335935 380.272822 
L 412.522989 358.106382 
L 415.710043 365.803993 
L 418.897097 359.042216 
L 422.08415 380.970681 
L 425.271204 382.274886 
L 428.458258 380.227243 
L 431.645312 381.992086 
L 434.832366 374.628947 
L 438.019419 379.530582 
L 441.206473 383.311361 
L 444.393527 355.720184 
L 447.580581 364.794363 
L 450.767634 374.663926 
L 453.954688 365.1701 
L 457.141742 357.01968 
L 460.328796 363.380351 
L 463.51585 363.35559 
L 466.702903 362.319489 
L 469.889957 347.137349 
L 473.077011 360.918588 
L 476.264065 355.487847 
L 479.451119 372.000629 
L 482.638172 343.795183 
L 485.825226 342.979553 
L 489.01228 340.461075 
L 492.199334 326.79674 
L 495.386387 343.572177 
L 498.573441 340.218437 
L 501.760495 359.78973 
L 504.947549 346.277015 
L 508.134603 356.175238 
L 511.321656 334.124608 
L 514.50871 350.173766 
L 517.695764 338.087937 
L 520.882818 333.588051 
L 524.069871 332.171649 
L 527.256925 333.215374 
L 530.443979 336.757626 
L 533.631033 345.562315 
L 536.818087 333.240615 
L 540.00514 316.563742 
L 543.192194 330.797775 
L 546.379248 323.753043 
L 549.566302 323.064524 
L 552.753356 333.812232 
L 555.940409 309.630456 
L 559.127463 313.425058 
L 562.314517 290.257658 
L 565.501571 287.618438 
L 568.688624 290.478408 
L 571.875678 285.292526 
L 575.062732 289.456049 
L 578.249786 291.232135 
L 581.43684 288.607287 
L 584.623893 287.490249 
L 587.810947 295.608555 
L 590.998001 294.120053 
L 594.185055 312.53532 
L 597.372109 307.542956 
L 600.559162 308.083079 
L 603.746216 298.035889 
L 606.93327 301.800266 
L 610.120324 297.64347 
L 613.307377 297.6944 
L 616.494431 271.82887 
L 619.681485 268.948169 
L 622.868539 289.266324 
L 626.055593 270.572928 
L 629.242646 263.119591 
L 632.4297 270.627644 
L 635.616754 270.938284 
L 638.803808 266.959304 
L 641.990861 264.76548 
L 645.177915 274.14041 
L 648.364969 273.967733 
L 651.552023 262.917472 
L 654.739077 266.928075 
L 657.92613 268.879339 
L 661.113184 272.041446 
L 664.300238 266.032176 
L 670.674346 221.81728 
L 673.861399 224.662843 
L 677.048453 226.781644 
L 680.235507 226.004748 
L 683.422561 225.068236 
L 686.609614 225.332987 
L 689.796668 224.155382 
L 692.983722 225.17525 
L 696.170776 226.854187 
L 699.35783 225.167375 
L 702.544883 223.102415 
L 705.731937 227.091845 
L 708.918991 225.345799 
L 712.106045 218.806715 
L 715.293099 223.367 
L 718.480152 223.569302 
L 721.667206 229.857945 
L 724.85426 228.370071 
L 728.041314 215.343788 
L 731.228367 215.846346 
L 734.415421 219.121963 
L 737.602475 220.618563 
L 740.789529 215.071203 
L 747.163636 216.253652 
L 747.163636 216.253652 
" clip-path="url(#pcf87f12237)" style="fill: none; stroke: #ff0000; stroke-width: 1.5; stroke-linecap: square"/>
   </g>
   <g id="line2d_33">
    <path d="M 138.436364 324.142541 
L 157.558686 324.142346 
L 160.74574 308.130656 
L 163.932794 304.293713 
L 167.119848 304.293713 
L 170.306901 287.062957 
L 176.681009 287.062957 
L 179.868063 282.023324 
L 192.616278 282.023324 
L 195.803332 280.503863 
L 198.990386 280.503863 
L 202.177439 279.610565 
L 205.364493 279.037854 
L 208.551547 273.796357 
L 214.925654 273.796357 
L 218.112708 253.152557 
L 224.486816 253.152557 
L 227.67387 251.819912 
L 230.860923 247.173257 
L 234.047977 240.105424 
L 237.235031 240.105424 
L 240.422085 239.742975 
L 243.609139 237.186038 
L 246.796192 228.945305 
L 253.1703 228.945305 
L 256.357354 227.781766 
L 272.292623 227.781766 
L 275.479676 226.316287 
L 278.66673 213.260958 
L 281.853784 209.491089 
L 297.789053 209.491089 
L 300.976107 208.735022 
L 304.16316 208.735022 
L 307.350214 207.502414 
L 320.098429 207.423717 
L 323.285483 202.573074 
L 326.472537 202.557629 
L 329.659591 197.838063 
L 332.846644 196.219669 
L 351.968967 196.219669 
L 355.156021 187.11726 
L 358.343075 187.11726 
L 361.530129 181.805437 
L 371.09129 181.750146 
L 374.278344 181.750146 
L 377.465397 172.439873 
L 383.839505 172.344733 
L 412.522989 172.344733 
L 415.710043 170.744568 
L 747.163636 170.651996 
L 747.163636 170.651996 
" clip-path="url(#pcf87f12237)" style="fill: none; stroke-dasharray: 5.55,2.4; stroke-dashoffset: 0; stroke: #0000ff; stroke-width: 1.5"/>
   </g>
   <g id="line2d_34">
    <path d="M 138.436364 382.621918 
L 141.623417 384.037145 
L 144.810471 384.118595 
L 147.997525 383.462366 
L 151.184579 382.647614 
L 154.371633 382.466223 
L 157.558686 382.078174 
L 160.74574 362.070614 
L 163.932794 371.466556 
L 167.119848 375.029421 
L 170.306901 358.655791 
L 173.493955 376.954497 
L 176.681009 379.480153 
L 179.868063 341.364209 
L 183.055117 361.198153 
L 186.24217 378.651898 
L 189.429224 379.973976 
L 192.616278 369.416769 
L 195.803332 375.944164 
L 198.990386 381.127216 
L 202.177439 375.691444 
L 205.364493 372.252056 
L 208.551547 363.714369 
L 211.738601 379.510137 
L 214.925654 382.198429 
L 218.112708 354.982794 
L 221.299762 361.835893 
L 224.486816 371.385172 
L 227.67387 350.176404 
L 230.860923 343.00101 
L 234.047977 323.229052 
L 237.235031 324.562551 
L 240.422085 325.083866 
L 243.609139 328.275785 
L 246.796192 333.927719 
L 249.983246 350.82826 
L 253.1703 346.722619 
L 256.357354 325.798468 
L 259.544407 317.397155 
L 262.731461 319.894113 
L 265.918515 319.067299 
L 269.105569 322.579834 
L 272.292623 318.876174 
L 275.479676 306.980105 
L 278.66673 303.836392 
L 281.853784 286.520409 
L 285.040838 285.414121 
L 288.227891 283.664715 
L 291.414945 298.616404 
L 294.601999 293.826695 
L 297.789053 296.847846 
L 300.976107 279.826601 
L 304.16316 309.143141 
L 307.350214 265.59065 
L 310.537268 271.359087 
L 313.724322 264.676769 
L 316.911376 275.509123 
L 320.098429 276.242016 
L 323.285483 271.374325 
L 326.472537 253.033349 
L 329.659591 264.870574 
L 332.846644 282.932233 
L 336.033698 241.435304 
L 339.220752 248.15106 
L 342.407806 263.372445 
L 345.59486 248.229766 
L 348.781913 242.442995 
L 351.968967 281.718496 
L 355.156021 230.496059 
L 358.343075 248.510058 
L 361.530129 242.440149 
L 364.717182 226.488186 
L 367.904236 232.27374 
L 371.09129 239.970447 
L 374.278344 221.347038 
L 377.465397 216.675501 
L 380.652451 234.77342 
L 383.839505 239.192138 
L 387.026559 231.583472 
L 390.213613 210.468938 
L 393.400666 215.244213 
L 396.58772 226.628851 
L 399.774774 212.506679 
L 402.961828 204.523495 
L 406.148881 206.586227 
L 409.335935 214.458318 
L 412.522989 214.156473 
L 415.710043 196.908555 
L 418.897097 198.963918 
L 422.08415 201.164338 
L 425.271204 222.573516 
L 428.458258 218.372605 
L 431.645312 205.532981 
L 434.832366 202.248665 
L 441.206473 202.424326 
L 444.393527 203.08252 
L 447.580581 202.031039 
L 450.767634 205.208302 
L 453.954688 221.020422 
L 457.141742 201.595598 
L 460.328796 202.010479 
L 463.51585 211.249213 
L 466.702903 201.450469 
L 469.889957 201.215464 
L 473.077011 201.340171 
L 476.264065 200.908209 
L 479.451119 201.403795 
L 482.638172 201.668198 
L 485.825226 202.862728 
L 489.01228 202.013924 
L 492.199334 219.623235 
L 495.386387 216.629933 
L 498.573441 202.267946 
L 501.760495 200.370593 
L 504.947549 200.715651 
L 508.134603 200.567144 
L 511.321656 200.150299 
L 514.50871 199.939994 
L 527.256925 200.860709 
L 530.443979 200.243203 
L 533.631033 200.389226 
L 536.818087 201.860969 
L 540.00514 201.003671 
L 543.192194 200.837539 
L 546.379248 204.172874 
L 549.566302 199.950412 
L 552.753356 199.865619 
L 555.940409 199.574609 
L 559.127463 200.785659 
L 562.314517 199.914454 
L 565.501571 200.506675 
L 568.688624 200.205819 
L 571.875678 200.447967 
L 575.062732 199.639327 
L 578.249786 199.881121 
L 584.623893 199.506063 
L 587.810947 199.128739 
L 590.998001 200.41997 
L 594.185055 199.654055 
L 597.372109 200.385451 
L 600.559162 199.707555 
L 603.746216 200.084347 
L 606.93327 200.14791 
L 610.120324 199.1764 
L 613.307377 199.038634 
L 616.494431 199.778024 
L 619.681485 198.984029 
L 622.868539 199.160439 
L 626.055593 200.59655 
L 629.242646 200.20068 
L 632.4297 199.368353 
L 638.803808 199.673504 
L 641.990861 198.917482 
L 648.364969 198.862332 
L 651.552023 200.223572 
L 654.739077 198.731922 
L 657.92613 200.150086 
L 661.113184 198.737204 
L 664.300238 199.351625 
L 667.487292 198.589999 
L 670.674346 199.676155 
L 673.861399 198.600941 
L 677.048453 199.922292 
L 680.235507 199.752801 
L 686.609614 198.301168 
L 689.796668 198.461947 
L 692.983722 198.406493 
L 696.170776 198.492859 
L 699.35783 198.328596 
L 702.544883 198.433977 
L 705.731937 198.399163 
L 708.918991 198.679135 
L 712.106045 198.620133 
L 715.293099 198.962831 
L 718.480152 198.314078 
L 721.667206 198.786655 
L 724.85426 198.800489 
L 734.415421 197.603454 
L 737.602475 198.061288 
L 740.789529 198.174696 
L 743.976583 201.161977 
L 747.163636 198.057739 
L 747.163636 198.057739 
" clip-path="url(#pcf87f12237)" style="fill: none; stroke: #0000ff; stroke-width: 1.5; stroke-linecap: square"/>
   </g>
   <g id="line2d_35">
    <path d="M 138.436364 274.524834 
L 336.033698 274.524802 
L 339.220752 268.625946 
L 342.407806 267.176167 
L 345.59486 266.30262 
L 348.781913 252.212999 
L 371.09129 252.212999 
L 374.278344 248.978785 
L 396.58772 248.978785 
L 402.961828 221.103759 
L 415.710043 221.103759 
L 418.897097 213.631482 
L 431.645312 213.631482 
L 434.832366 212.908462 
L 438.019419 212.679248 
L 441.206473 208.759749 
L 444.393527 206.31901 
L 447.580581 193.37262 
L 450.767634 193.37262 
L 453.954688 192.861746 
L 457.141742 192.127936 
L 460.328796 188.468863 
L 463.51585 188.362749 
L 466.702903 188.041591 
L 469.889957 188.041591 
L 473.077011 187.435441 
L 476.264065 181.830161 
L 479.451119 179.933369 
L 482.638172 179.787432 
L 485.825226 179.084694 
L 489.01228 176.898755 
L 492.199334 176.703655 
L 495.386387 176.703655 
L 498.573441 176.556889 
L 501.760495 168.77076 
L 504.947549 167.383217 
L 508.134603 167.356627 
L 511.321656 166.062173 
L 514.50871 166.062173 
L 517.695764 165.796055 
L 520.882818 163.664651 
L 524.069871 163.491468 
L 527.256925 162.243014 
L 530.443979 161.204374 
L 536.818087 161.111506 
L 540.00514 161.055744 
L 543.192194 160.672319 
L 549.566302 160.641056 
L 552.753356 160.245459 
L 555.940409 160.245459 
L 559.127463 160.055747 
L 575.062732 160.035713 
L 578.249786 155.650496 
L 581.43684 155.646809 
L 584.623893 155.523349 
L 594.185055 155.523349 
L 597.372109 154.830786 
L 600.559162 154.830786 
L 603.746216 154.572088 
L 619.681485 154.4608 
L 622.868539 154.112293 
L 635.616754 153.500012 
L 638.803808 152.91186 
L 645.177915 152.833846 
L 654.739077 152.833846 
L 657.92613 152.47404 
L 661.113184 151.811363 
L 664.300238 151.583664 
L 670.674346 151.41822 
L 686.609614 151.317507 
L 689.796668 150.873602 
L 731.228367 150.815494 
L 734.415421 141.647047 
L 737.602475 141.647047 
L 740.789529 134.90793 
L 747.163636 134.796015 
L 747.163636 134.796015 
" clip-path="url(#pcf87f12237)" style="fill: none; stroke-dasharray: 5.55,2.4; stroke-dashoffset: 0; stroke: #008000; stroke-width: 1.5"/>
   </g>
   <g id="line2d_36">
    <path d="M 138.436364 383.039668 
L 141.623417 383.658066 
L 144.810471 382.631967 
L 147.997525 382.852518 
L 151.184579 382.752487 
L 154.371633 383.467097 
L 157.558686 382.311594 
L 160.74574 381.310265 
L 163.932794 382.056349 
L 167.119848 384.062798 
L 170.306901 384.145274 
L 173.493955 383.395197 
L 179.868063 383.365845 
L 183.055117 380.04771 
L 186.24217 383.351664 
L 189.429224 382.885384 
L 192.616278 384.116298 
L 195.803332 384.048567 
L 198.990386 382.309964 
L 202.177439 384.337073 
L 205.364493 381.71969 
L 208.551547 384.083538 
L 211.738601 383.148287 
L 214.925654 382.989062 
L 218.112708 382.665365 
L 221.299762 383.959734 
L 224.486816 383.111444 
L 227.67387 380.866947 
L 230.860923 383.725512 
L 234.047977 382.078664 
L 237.235031 382.282383 
L 240.422085 383.461223 
L 246.796192 382.724309 
L 249.983246 381.614709 
L 253.1703 383.26066 
L 256.357354 382.540732 
L 259.544407 382.09543 
L 262.731461 382.749254 
L 265.918515 382.276816 
L 269.105569 382.922801 
L 272.292623 384.145928 
L 278.66673 384.172871 
L 281.853784 383.679377 
L 285.040838 384.029059 
L 288.227891 383.763213 
L 291.414945 383.131022 
L 297.789053 384.280081 
L 300.976107 381.424704 
L 304.16316 384.315932 
L 307.350214 384.215993 
L 310.537268 384.391685 
L 313.724322 383.04425 
L 316.911376 384.180012 
L 320.098429 384.134663 
L 323.285483 379.398393 
L 326.472537 380.644053 
L 329.659591 382.989905 
L 332.846644 383.344928 
L 336.033698 378.651522 
L 339.220752 368.445809 
L 342.407806 361.312993 
L 345.59486 348.288235 
L 348.781913 349.846264 
L 351.968967 349.265114 
L 355.156021 357.877772 
L 358.343075 356.259643 
L 361.530129 374.775465 
L 364.717182 360.798814 
L 367.904236 364.614474 
L 371.09129 365.205873 
L 374.278344 339.447023 
L 377.465397 363.686485 
L 380.652451 364.651672 
L 383.839505 374.561771 
L 387.026559 354.311315 
L 390.213613 366.820765 
L 393.400666 353.674864 
L 396.58772 366.218848 
L 399.774774 312.736314 
L 402.961828 351.666783 
L 406.148881 351.217705 
L 409.335935 310.667029 
L 412.522989 357.724561 
L 415.710043 354.821488 
L 418.897097 330.135702 
L 422.08415 335.607237 
L 425.271204 297.25353 
L 428.458258 333.555694 
L 431.645312 294.268668 
L 434.832366 267.171524 
L 438.019419 270.284226 
L 441.206473 307.613589 
L 444.393527 297.470089 
L 447.580581 311.506587 
L 450.767634 320.914669 
L 453.954688 271.614616 
L 457.141742 271.620796 
L 460.328796 248.786701 
L 463.51585 248.273299 
L 466.702903 266.695291 
L 469.889957 265.474341 
L 473.077011 252.635199 
L 476.264065 242.678839 
L 479.451119 208.227595 
L 482.638172 213.638479 
L 485.825226 227.638005 
L 489.01228 211.224467 
L 492.199334 226.107804 
L 495.386387 215.855687 
L 498.573441 232.956389 
L 501.760495 198.435274 
L 504.947549 198.196759 
L 508.134603 203.788142 
L 511.321656 220.596015 
L 514.50871 222.3743 
L 517.695764 199.150452 
L 520.882818 180.199186 
L 524.069871 196.816353 
L 527.256925 193.677057 
L 530.443979 208.230019 
L 533.631033 179.970926 
L 536.818087 191.989176 
L 540.00514 199.440873 
L 543.192194 190.158714 
L 546.379248 187.891696 
L 549.566302 194.264899 
L 552.753356 187.368945 
L 555.940409 188.091153 
L 559.127463 187.372104 
L 562.314517 190.364626 
L 565.501571 189.671095 
L 568.688624 187.793927 
L 571.875678 188.74355 
L 575.062732 185.898056 
L 578.249786 166.681425 
L 581.43684 168.133228 
L 584.623893 165.724862 
L 587.810947 165.743007 
L 590.998001 168.816894 
L 594.185055 161.219578 
L 597.372109 165.575205 
L 600.559162 171.675867 
L 603.746216 167.111865 
L 606.93327 181.793511 
L 610.120324 168.344427 
L 613.307377 167.068757 
L 616.494431 166.601875 
L 619.681485 173.546934 
L 622.868539 164.747558 
L 626.055593 164.296762 
L 629.242646 164.148855 
L 632.4297 160.073423 
L 635.616754 161.414443 
L 638.803808 162.627715 
L 641.990861 162.724257 
L 645.177915 164.163321 
L 648.364969 162.872223 
L 651.552023 164.847357 
L 654.739077 184.269687 
L 657.92613 163.063764 
L 661.113184 179.070262 
L 664.300238 165.179871 
L 667.487292 169.953061 
L 670.674346 164.41629 
L 673.861399 160.892363 
L 677.048453 162.278324 
L 680.235507 163.11796 
L 683.422561 161.674767 
L 686.609614 161.197214 
L 689.796668 160.546325 
L 692.983722 161.275686 
L 696.170776 161.4939 
L 699.35783 160.506206 
L 702.544883 161.018321 
L 705.731937 161.383306 
L 712.106045 161.240465 
L 715.293099 163.120138 
L 718.480152 155.954057 
L 721.667206 161.961422 
L 724.85426 161.107235 
L 728.041314 162.21414 
L 731.228367 159.767235 
L 734.415421 143.349174 
L 737.602475 161.053401 
L 740.789529 138.660835 
L 743.976583 136.630207 
L 747.163636 136.495387 
L 747.163636 136.495387 
" clip-path="url(#pcf87f12237)" style="fill: none; stroke: #008000; stroke-width: 1.5; stroke-linecap: square"/>
   </g>
   <g id="patch_3">
    <path d="M 108 384.48 
L 108 51.84 
" style="fill: none; stroke: #000000; stroke-width: 0.8; stroke-linejoin: miter; stroke-linecap: square"/>
   </g>
   <g id="patch_4">
    <path d="M 777.6 384.48 
L 777.6 51.84 
" style="fill: none; stroke: #000000; stroke-width: 0.8; stroke-linejoin: miter; stroke-linecap: square"/>
   </g>
   <g id="patch_5">
    <path d="M 108 384.48 
L 777.6 384.48 
" style="fill: none; stroke: #000000; stroke-width: 0.8; stroke-linejoin: miter; stroke-linecap: square"/>
   </g>
   <g id="patch_6">
    <path d="M 108 51.84 
L 777.6 51.84 
" style="fill: none; stroke: #000000; stroke-width: 0.8; stroke-linejoin: miter; stroke-linecap: square"/>
   </g>
   <g id="text_18">
    <!-- Average Performance over 10 runs | 6-hartmann (kappas=[11.0, 11.0, 11.0]) -->
    <g transform="translate(211.589063 45.84) scale(0.12 -0.12)">
     <defs>
      <path id="DejaVuSans-41" d="M 2188 4044 
L 1331 1722 
L 3047 1722 
L 2188 4044 
z
M 1831 4666 
L 2547 4666 
L 4325 0 
L 3669 0 
L 3244 1197 
L 1141 1197 
L 716 0 
L 50 0 
L 1831 4666 
z
" transform="scale(0.015625)"/>
      <path id="DejaVuSans-76" d="M 191 3500 
L 800 3500 
L 1894 563 
L 2988 3500 
L 3597 3500 
L 2284 0 
L 1503 0 
L 191 3500 
z
" transform="scale(0.015625)"/>
      <path id="DejaVuSans-67" d="M 2906 1791 
Q 2906 2416 2648 2759 
Q 2391 3103 1925 3103 
Q 1463 3103 1205 2759 
Q 947 2416 947 1791 
Q 947 1169 1205 825 
Q 1463 481 1925 481 
Q 2391 481 2648 825 
Q 2906 1169 2906 1791 
z
M 3481 434 
Q 3481 -459 3084 -895 
Q 2688 -1331 1869 -1331 
Q 1566 -1331 1297 -1286 
Q 1028 -1241 775 -1147 
L 775 -588 
Q 1028 -725 1275 -790 
Q 1522 -856 1778 -856 
Q 2344 -856 2625 -561 
Q 2906 -266 2906 331 
L 2906 616 
Q 2728 306 2450 153 
Q 2172 0 1784 0 
Q 1141 0 747 490 
Q 353 981 353 1791 
Q 353 2603 747 3093 
Q 1141 3584 1784 3584 
Q 2172 3584 2450 3431 
Q 2728 3278 2906 2969 
L 2906 3500 
L 3481 3500 
L 3481 434 
z
" transform="scale(0.015625)"/>
      <path id="DejaVuSans-20" transform="scale(0.015625)"/>
      <path id="DejaVuSans-50" d="M 1259 4147 
L 1259 2394 
L 2053 2394 
Q 2494 2394 2734 2622 
Q 2975 2850 2975 3272 
Q 2975 3691 2734 3919 
Q 2494 4147 2053 4147 
L 1259 4147 
z
M 628 4666 
L 2053 4666 
Q 2838 4666 3239 4311 
Q 3641 3956 3641 3272 
Q 3641 2581 3239 2228 
Q 2838 1875 2053 1875 
L 1259 1875 
L 1259 0 
L 628 0 
L 628 4666 
z
" transform="scale(0.015625)"/>
      <path id="DejaVuSans-66" d="M 2375 4863 
L 2375 4384 
L 1825 4384 
Q 1516 4384 1395 4259 
Q 1275 4134 1275 3809 
L 1275 3500 
L 2222 3500 
L 2222 3053 
L 1275 3053 
L 1275 0 
L 697 0 
L 697 3053 
L 147 3053 
L 147 3500 
L 697 3500 
L 697 3744 
Q 697 4328 969 4595 
Q 1241 4863 1831 4863 
L 2375 4863 
z
" transform="scale(0.015625)"/>
      <path id="DejaVuSans-6d" d="M 3328 2828 
Q 3544 3216 3844 3400 
Q 4144 3584 4550 3584 
Q 5097 3584 5394 3201 
Q 5691 2819 5691 2113 
L 5691 0 
L 5113 0 
L 5113 2094 
Q 5113 2597 4934 2840 
Q 4756 3084 4391 3084 
Q 3944 3084 3684 2787 
Q 3425 2491 3425 1978 
L 3425 0 
L 2847 0 
L 2847 2094 
Q 2847 2600 2669 2842 
Q 2491 3084 2119 3084 
Q 1678 3084 1418 2786 
Q 1159 2488 1159 1978 
L 1159 0 
L 581 0 
L 581 3500 
L 1159 3500 
L 1159 2956 
Q 1356 3278 1631 3431 
Q 1906 3584 2284 3584 
Q 2666 3584 2933 3390 
Q 3200 3197 3328 2828 
z
" transform="scale(0.015625)"/>
      <path id="DejaVuSans-75" d="M 544 1381 
L 544 3500 
L 1119 3500 
L 1119 1403 
Q 1119 906 1312 657 
Q 1506 409 1894 409 
Q 2359 409 2629 706 
Q 2900 1003 2900 1516 
L 2900 3500 
L 3475 3500 
L 3475 0 
L 2900 0 
L 2900 538 
Q 2691 219 2414 64 
Q 2138 -91 1772 -91 
Q 1169 -91 856 284 
Q 544 659 544 1381 
z
M 1991 3584 
L 1991 3584 
z
" transform="scale(0.015625)"/>
      <path id="DejaVuSans-73" d="M 2834 3397 
L 2834 2853 
Q 2591 2978 2328 3040 
Q 2066 3103 1784 3103 
Q 1356 3103 1142 2972 
Q 928 2841 928 2578 
Q 928 2378 1081 2264 
Q 1234 2150 1697 2047 
L 1894 2003 
Q 2506 1872 2764 1633 
Q 3022 1394 3022 966 
Q 3022 478 2636 193 
Q 2250 -91 1575 -91 
Q 1294 -91 989 -36 
Q 684 19 347 128 
L 347 722 
Q 666 556 975 473 
Q 1284 391 1588 391 
Q 1994 391 2212 530 
Q 2431 669 2431 922 
Q 2431 1156 2273 1281 
Q 2116 1406 1581 1522 
L 1381 1569 
Q 847 1681 609 1914 
Q 372 2147 372 2553 
Q 372 3047 722 3315 
Q 1072 3584 1716 3584 
Q 2034 3584 2315 3537 
Q 2597 3491 2834 3397 
z
" transform="scale(0.015625)"/>
      <path id="DejaVuSans-7c" d="M 1344 4891 
L 1344 -1509 
L 813 -1509 
L 813 4891 
L 1344 4891 
z
" transform="scale(0.015625)"/>
      <path id="DejaVuSans-2d" d="M 313 2009 
L 1997 2009 
L 1997 1497 
L 313 1497 
L 313 2009 
z
" transform="scale(0.015625)"/>
      <path id="DejaVuSans-68" d="M 3513 2113 
L 3513 0 
L 2938 0 
L 2938 2094 
Q 2938 2591 2744 2837 
Q 2550 3084 2163 3084 
Q 1697 3084 1428 2787 
Q 1159 2491 1159 1978 
L 1159 0 
L 581 0 
L 581 4863 
L 1159 4863 
L 1159 2956 
Q 1366 3272 1645 3428 
Q 1925 3584 2291 3584 
Q 2894 3584 3203 3211 
Q 3513 2838 3513 2113 
z
" transform="scale(0.015625)"/>
      <path id="DejaVuSans-28" d="M 1984 4856 
Q 1566 4138 1362 3434 
Q 1159 2731 1159 2009 
Q 1159 1288 1364 580 
Q 1569 -128 1984 -844 
L 1484 -844 
Q 1016 -109 783 600 
Q 550 1309 550 2009 
Q 550 2706 781 3412 
Q 1013 4119 1484 4856 
L 1984 4856 
z
" transform="scale(0.015625)"/>
      <path id="DejaVuSans-6b" d="M 581 4863 
L 1159 4863 
L 1159 1991 
L 2875 3500 
L 3609 3500 
L 1753 1863 
L 3688 0 
L 2938 0 
L 1159 1709 
L 1159 0 
L 581 0 
L 581 4863 
z
" transform="scale(0.015625)"/>
      <path id="DejaVuSans-70" d="M 1159 525 
L 1159 -1331 
L 581 -1331 
L 581 3500 
L 1159 3500 
L 1159 2969 
Q 1341 3281 1617 3432 
Q 1894 3584 2278 3584 
Q 2916 3584 3314 3078 
Q 3713 2572 3713 1747 
Q 3713 922 3314 415 
Q 2916 -91 2278 -91 
Q 1894 -91 1617 61 
Q 1341 213 1159 525 
z
M 3116 1747 
Q 3116 2381 2855 2742 
Q 2594 3103 2138 3103 
Q 1681 3103 1420 2742 
Q 1159 2381 1159 1747 
Q 1159 1113 1420 752 
Q 1681 391 2138 391 
Q 2594 391 2855 752 
Q 3116 1113 3116 1747 
z
" transform="scale(0.015625)"/>
      <path id="DejaVuSans-3d" d="M 678 2906 
L 4684 2906 
L 4684 2381 
L 678 2381 
L 678 2906 
z
M 678 1631 
L 4684 1631 
L 4684 1100 
L 678 1100 
L 678 1631 
z
" transform="scale(0.015625)"/>
      <path id="DejaVuSans-5b" d="M 550 4863 
L 1875 4863 
L 1875 4416 
L 1125 4416 
L 1125 -397 
L 1875 -397 
L 1875 -844 
L 550 -844 
L 550 4863 
z
" transform="scale(0.015625)"/>
      <path id="DejaVuSans-2c" d="M 750 794 
L 1409 794 
L 1409 256 
L 897 -744 
L 494 -744 
L 750 256 
L 750 794 
z
" transform="scale(0.015625)"/>
      <path id="DejaVuSans-5d" d="M 1947 4863 
L 1947 -844 
L 622 -844 
L 622 -397 
L 1369 -397 
L 1369 4416 
L 622 4416 
L 622 4863 
L 1947 4863 
z
" transform="scale(0.015625)"/>
      <path id="DejaVuSans-29" d="M 513 4856 
L 1013 4856 
Q 1481 4119 1714 3412 
Q 1947 2706 1947 2009 
Q 1947 1309 1714 600 
Q 1481 -109 1013 -844 
L 513 -844 
Q 928 -128 1133 580 
Q 1338 1288 1338 2009 
Q 1338 2731 1133 3434 
Q 928 4138 513 4856 
z
" transform="scale(0.015625)"/>
     </defs>
     <use xlink:href="#DejaVuSans-41"/>
     <use xlink:href="#DejaVuSans-76" transform="translate(62.533203 0)"/>
     <use xlink:href="#DejaVuSans-65" transform="translate(121.712891 0)"/>
     <use xlink:href="#DejaVuSans-72" transform="translate(183.236328 0)"/>
     <use xlink:href="#DejaVuSans-61" transform="translate(224.349609 0)"/>
     <use xlink:href="#DejaVuSans-67" transform="translate(285.628906 0)"/>
     <use xlink:href="#DejaVuSans-65" transform="translate(349.105469 0)"/>
     <use xlink:href="#DejaVuSans-20" transform="translate(410.628906 0)"/>
     <use xlink:href="#DejaVuSans-50" transform="translate(442.416016 0)"/>
     <use xlink:href="#DejaVuSans-65" transform="translate(499.09375 0)"/>
     <use xlink:href="#DejaVuSans-72" transform="translate(560.617188 0)"/>
     <use xlink:href="#DejaVuSans-66" transform="translate(601.730469 0)"/>
     <use xlink:href="#DejaVuSans-6f" transform="translate(636.935547 0)"/>
     <use xlink:href="#DejaVuSans-72" transform="translate(698.117188 0)"/>
     <use xlink:href="#DejaVuSans-6d" transform="translate(737.480469 0)"/>
     <use xlink:href="#DejaVuSans-61" transform="translate(834.892578 0)"/>
     <use xlink:href="#DejaVuSans-6e" transform="translate(896.171875 0)"/>
     <use xlink:href="#DejaVuSans-63" transform="translate(959.550781 0)"/>
     <use xlink:href="#DejaVuSans-65" transform="translate(1014.53125 0)"/>
     <use xlink:href="#DejaVuSans-20" transform="translate(1076.054688 0)"/>
     <use xlink:href="#DejaVuSans-6f" transform="translate(1107.841797 0)"/>
     <use xlink:href="#DejaVuSans-76" transform="translate(1169.023438 0)"/>
     <use xlink:href="#DejaVuSans-65" transform="translate(1228.203125 0)"/>
     <use xlink:href="#DejaVuSans-72" transform="translate(1289.726562 0)"/>
     <use xlink:href="#DejaVuSans-20" transform="translate(1330.839844 0)"/>
     <use xlink:href="#DejaVuSans-31" transform="translate(1362.626953 0)"/>
     <use xlink:href="#DejaVuSans-30" transform="translate(1426.25 0)"/>
     <use xlink:href="#DejaVuSans-20" transform="translate(1489.873047 0)"/>
     <use xlink:href="#DejaVuSans-72" transform="translate(1521.660156 0)"/>
     <use xlink:href="#DejaVuSans-75" transform="translate(1562.773438 0)"/>
     <use xlink:href="#DejaVuSans-6e" transform="translate(1626.152344 0)"/>
     <use xlink:href="#DejaVuSans-73" transform="translate(1689.53125 0)"/>
     <use xlink:href="#DejaVuSans-20" transform="translate(1741.630859 0)"/>
     <use xlink:href="#DejaVuSans-7c" transform="translate(1773.417969 0)"/>
     <use xlink:href="#DejaVuSans-20" transform="translate(1807.109375 0)"/>
     <use xlink:href="#DejaVuSans-36" transform="translate(1838.896484 0)"/>
     <use xlink:href="#DejaVuSans-2d" transform="translate(1902.519531 0)"/>
     <use xlink:href="#DejaVuSans-68" transform="translate(1938.603516 0)"/>
     <use xlink:href="#DejaVuSans-61" transform="translate(2001.982422 0)"/>
     <use xlink:href="#DejaVuSans-72" transform="translate(2063.261719 0)"/>
     <use xlink:href="#DejaVuSans-74" transform="translate(2104.375 0)"/>
     <use xlink:href="#DejaVuSans-6d" transform="translate(2143.583984 0)"/>
     <use xlink:href="#DejaVuSans-61" transform="translate(2240.996094 0)"/>
     <use xlink:href="#DejaVuSans-6e" transform="translate(2302.275391 0)"/>
     <use xlink:href="#DejaVuSans-6e" transform="translate(2365.654297 0)"/>
     <use xlink:href="#DejaVuSans-20" transform="translate(2429.033203 0)"/>
     <use xlink:href="#DejaVuSans-28" transform="translate(2460.820312 0)"/>
     <use xlink:href="#DejaVuSans-6b" transform="translate(2499.833984 0)"/>
     <use xlink:href="#DejaVuSans-61" transform="translate(2555.994141 0)"/>
     <use xlink:href="#DejaVuSans-70" transform="translate(2617.273438 0)"/>
     <use xlink:href="#DejaVuSans-70" transform="translate(2680.75 0)"/>
     <use xlink:href="#DejaVuSans-61" transform="translate(2744.226562 0)"/>
     <use xlink:href="#DejaVuSans-73" transform="translate(2805.505859 0)"/>
     <use xlink:href="#DejaVuSans-3d" transform="translate(2857.605469 0)"/>
     <use xlink:href="#DejaVuSans-5b" transform="translate(2941.394531 0)"/>
     <use xlink:href="#DejaVuSans-31" transform="translate(2980.408203 0)"/>
     <use xlink:href="#DejaVuSans-31" transform="translate(3044.03125 0)"/>
     <use xlink:href="#DejaVuSans-2e" transform="translate(3107.654297 0)"/>
     <use xlink:href="#DejaVuSans-30" transform="translate(3139.441406 0)"/>
     <use xlink:href="#DejaVuSans-2c" transform="translate(3203.064453 0)"/>
     <use xlink:href="#DejaVuSans-20" transform="translate(3234.851562 0)"/>
     <use xlink:href="#DejaVuSans-31" transform="translate(3266.638672 0)"/>
     <use xlink:href="#DejaVuSans-31" transform="translate(3330.261719 0)"/>
     <use xlink:href="#DejaVuSans-2e" transform="translate(3393.884766 0)"/>
     <use xlink:href="#DejaVuSans-30" transform="translate(3425.671875 0)"/>
     <use xlink:href="#DejaVuSans-2c" transform="translate(3489.294922 0)"/>
     <use xlink:href="#DejaVuSans-20" transform="translate(3521.082031 0)"/>
     <use xlink:href="#DejaVuSans-31" transform="translate(3552.869141 0)"/>
     <use xlink:href="#DejaVuSans-31" transform="translate(3616.492188 0)"/>
     <use xlink:href="#DejaVuSans-2e" transform="translate(3680.115234 0)"/>
     <use xlink:href="#DejaVuSans-30" transform="translate(3711.902344 0)"/>
     <use xlink:href="#DejaVuSans-5d" transform="translate(3775.525391 0)"/>
     <use xlink:href="#DejaVuSans-29" transform="translate(3814.539062 0)"/>
    </g>
   </g>
   <g id="legend_1">
    <g id="patch_7">
     <path d="M 633.298369 131.865269 
L 771.769 131.865269 
Q 773.435 131.865269 773.435 130.199269 
L 773.435 57.671 
Q 773.435 56.005 771.769 56.005 
L 633.298369 56.005 
Q 631.632369 56.005 631.632369 57.671 
L 631.632369 130.199269 
Q 631.632369 131.865269 633.298369 131.865269 
z
" style="fill: #ffffff; opacity: 0.8; stroke: #cccccc; stroke-linejoin: miter"/>
    </g>
    <g id="line2d_37">
     <path d="M 634.964369 62.750998 
L 643.294369 62.750998 
L 651.624369 62.750998 
" style="fill: none; stroke-dasharray: 5.55,2.4; stroke-dashoffset: 0; stroke: #ff0000; stroke-width: 1.5"/>
    </g>
    <g id="text_19">
     <!-- ExactGPModel Exploration -->
     <g transform="translate(658.288369 65.666498) scale(0.0833 -0.0833)">
      <defs>
       <path id="DejaVuSans-45" d="M 628 4666 
L 3578 4666 
L 3578 4134 
L 1259 4134 
L 1259 2753 
L 3481 2753 
L 3481 2222 
L 1259 2222 
L 1259 531 
L 3634 531 
L 3634 0 
L 628 0 
L 628 4666 
z
" transform="scale(0.015625)"/>
       <path id="DejaVuSans-78" d="M 3513 3500 
L 2247 1797 
L 3578 0 
L 2900 0 
L 1881 1375 
L 863 0 
L 184 0 
L 1544 1831 
L 300 3500 
L 978 3500 
L 1906 2253 
L 2834 3500 
L 3513 3500 
z
" transform="scale(0.015625)"/>
       <path id="DejaVuSans-47" d="M 3809 666 
L 3809 1919 
L 2778 1919 
L 2778 2438 
L 4434 2438 
L 4434 434 
Q 4069 175 3628 42 
Q 3188 -91 2688 -91 
Q 1594 -91 976 548 
Q 359 1188 359 2328 
Q 359 3472 976 4111 
Q 1594 4750 2688 4750 
Q 3144 4750 3555 4637 
Q 3966 4525 4313 4306 
L 4313 3634 
Q 3963 3931 3569 4081 
Q 3175 4231 2741 4231 
Q 1884 4231 1454 3753 
Q 1025 3275 1025 2328 
Q 1025 1384 1454 906 
Q 1884 428 2741 428 
Q 3075 428 3337 486 
Q 3600 544 3809 666 
z
" transform="scale(0.015625)"/>
       <path id="DejaVuSans-64" d="M 2906 2969 
L 2906 4863 
L 3481 4863 
L 3481 0 
L 2906 0 
L 2906 525 
Q 2725 213 2448 61 
Q 2172 -91 1784 -91 
Q 1150 -91 751 415 
Q 353 922 353 1747 
Q 353 2572 751 3078 
Q 1150 3584 1784 3584 
Q 2172 3584 2448 3432 
Q 2725 3281 2906 2969 
z
M 947 1747 
Q 947 1113 1208 752 
Q 1469 391 1925 391 
Q 2381 391 2643 752 
Q 2906 1113 2906 1747 
Q 2906 2381 2643 2742 
Q 2381 3103 1925 3103 
Q 1469 3103 1208 2742 
Q 947 2381 947 1747 
z
" transform="scale(0.015625)"/>
       <path id="DejaVuSans-6c" d="M 603 4863 
L 1178 4863 
L 1178 0 
L 603 0 
L 603 4863 
z
" transform="scale(0.015625)"/>
      </defs>
      <use xlink:href="#DejaVuSans-45"/>
      <use xlink:href="#DejaVuSans-78" transform="translate(63.183594 0)"/>
      <use xlink:href="#DejaVuSans-61" transform="translate(122.363281 0)"/>
      <use xlink:href="#DejaVuSans-63" transform="translate(183.642578 0)"/>
      <use xlink:href="#DejaVuSans-74" transform="translate(238.623047 0)"/>
      <use xlink:href="#DejaVuSans-47" transform="translate(277.832031 0)"/>
      <use xlink:href="#DejaVuSans-50" transform="translate(355.322266 0)"/>
      <use xlink:href="#DejaVuSans-4d" transform="translate(415.625 0)"/>
      <use xlink:href="#DejaVuSans-6f" transform="translate(501.904297 0)"/>
      <use xlink:href="#DejaVuSans-64" transform="translate(563.085938 0)"/>
      <use xlink:href="#DejaVuSans-65" transform="translate(626.5625 0)"/>
      <use xlink:href="#DejaVuSans-6c" transform="translate(688.085938 0)"/>
      <use xlink:href="#DejaVuSans-20" transform="translate(715.869141 0)"/>
      <use xlink:href="#DejaVuSans-45" transform="translate(747.65625 0)"/>
      <use xlink:href="#DejaVuSans-78" transform="translate(810.839844 0)"/>
      <use xlink:href="#DejaVuSans-70" transform="translate(870.019531 0)"/>
      <use xlink:href="#DejaVuSans-6c" transform="translate(933.496094 0)"/>
      <use xlink:href="#DejaVuSans-6f" transform="translate(961.279297 0)"/>
      <use xlink:href="#DejaVuSans-72" transform="translate(1022.460938 0)"/>
      <use xlink:href="#DejaVuSans-61" transform="translate(1063.574219 0)"/>
      <use xlink:href="#DejaVuSans-74" transform="translate(1124.853516 0)"/>
      <use xlink:href="#DejaVuSans-69" transform="translate(1164.0625 0)"/>
      <use xlink:href="#DejaVuSans-6f" transform="translate(1191.845703 0)"/>
      <use xlink:href="#DejaVuSans-6e" transform="translate(1253.027344 0)"/>
     </g>
    </g>
    <g id="line2d_38">
     <path d="M 634.964369 74.977877 
L 643.294369 74.977877 
L 651.624369 74.977877 
" style="fill: none; stroke: #ff0000; stroke-width: 1.5; stroke-linecap: square"/>
    </g>
    <g id="text_20">
     <!-- ExactGPModel Exploitation -->
     <g transform="translate(658.288369 77.893377) scale(0.0833 -0.0833)">
      <use xlink:href="#DejaVuSans-45"/>
      <use xlink:href="#DejaVuSans-78" transform="translate(63.183594 0)"/>
      <use xlink:href="#DejaVuSans-61" transform="translate(122.363281 0)"/>
      <use xlink:href="#DejaVuSans-63" transform="translate(183.642578 0)"/>
      <use xlink:href="#DejaVuSans-74" transform="translate(238.623047 0)"/>
      <use xlink:href="#DejaVuSans-47" transform="translate(277.832031 0)"/>
      <use xlink:href="#DejaVuSans-50" transform="translate(355.322266 0)"/>
      <use xlink:href="#DejaVuSans-4d" transform="translate(415.625 0)"/>
      <use xlink:href="#DejaVuSans-6f" transform="translate(501.904297 0)"/>
      <use xlink:href="#DejaVuSans-64" transform="translate(563.085938 0)"/>
      <use xlink:href="#DejaVuSans-65" transform="translate(626.5625 0)"/>
      <use xlink:href="#DejaVuSans-6c" transform="translate(688.085938 0)"/>
      <use xlink:href="#DejaVuSans-20" transform="translate(715.869141 0)"/>
      <use xlink:href="#DejaVuSans-45" transform="translate(747.65625 0)"/>
      <use xlink:href="#DejaVuSans-78" transform="translate(810.839844 0)"/>
      <use xlink:href="#DejaVuSans-70" transform="translate(870.019531 0)"/>
      <use xlink:href="#DejaVuSans-6c" transform="translate(933.496094 0)"/>
      <use xlink:href="#DejaVuSans-6f" transform="translate(961.279297 0)"/>
      <use xlink:href="#DejaVuSans-69" transform="translate(1022.460938 0)"/>
      <use xlink:href="#DejaVuSans-74" transform="translate(1050.244141 0)"/>
      <use xlink:href="#DejaVuSans-61" transform="translate(1089.453125 0)"/>
      <use xlink:href="#DejaVuSans-74" transform="translate(1150.732422 0)"/>
      <use xlink:href="#DejaVuSans-69" transform="translate(1189.941406 0)"/>
      <use xlink:href="#DejaVuSans-6f" transform="translate(1217.724609 0)"/>
      <use xlink:href="#DejaVuSans-6e" transform="translate(1278.90625 0)"/>
     </g>
    </g>
    <g id="line2d_39">
     <path d="M 634.964369 87.204755 
L 643.294369 87.204755 
L 651.624369 87.204755 
" style="fill: none; stroke-dasharray: 5.55,2.4; stroke-dashoffset: 0; stroke: #0000ff; stroke-width: 1.5"/>
    </g>
    <g id="text_21">
     <!-- AdditiveGP Exploration -->
     <g transform="translate(658.288369 90.120255) scale(0.0833 -0.0833)">
      <use xlink:href="#DejaVuSans-41"/>
      <use xlink:href="#DejaVuSans-64" transform="translate(66.658203 0)"/>
      <use xlink:href="#DejaVuSans-64" transform="translate(130.134766 0)"/>
      <use xlink:href="#DejaVuSans-69" transform="translate(193.611328 0)"/>
      <use xlink:href="#DejaVuSans-74" transform="translate(221.394531 0)"/>
      <use xlink:href="#DejaVuSans-69" transform="translate(260.603516 0)"/>
      <use xlink:href="#DejaVuSans-76" transform="translate(288.386719 0)"/>
      <use xlink:href="#DejaVuSans-65" transform="translate(347.566406 0)"/>
      <use xlink:href="#DejaVuSans-47" transform="translate(409.089844 0)"/>
      <use xlink:href="#DejaVuSans-50" transform="translate(486.580078 0)"/>
      <use xlink:href="#DejaVuSans-20" transform="translate(546.882812 0)"/>
      <use xlink:href="#DejaVuSans-45" transform="translate(578.669922 0)"/>
      <use xlink:href="#DejaVuSans-78" transform="translate(641.853516 0)"/>
      <use xlink:href="#DejaVuSans-70" transform="translate(701.033203 0)"/>
      <use xlink:href="#DejaVuSans-6c" transform="translate(764.509766 0)"/>
      <use xlink:href="#DejaVuSans-6f" transform="translate(792.292969 0)"/>
      <use xlink:href="#DejaVuSans-72" transform="translate(853.474609 0)"/>
      <use xlink:href="#DejaVuSans-61" transform="translate(894.587891 0)"/>
      <use xlink:href="#DejaVuSans-74" transform="translate(955.867188 0)"/>
      <use xlink:href="#DejaVuSans-69" transform="translate(995.076172 0)"/>
      <use xlink:href="#DejaVuSans-6f" transform="translate(1022.859375 0)"/>
      <use xlink:href="#DejaVuSans-6e" transform="translate(1084.041016 0)"/>
     </g>
    </g>
    <g id="line2d_40">
     <path d="M 634.964369 99.431633 
L 643.294369 99.431633 
L 651.624369 99.431633 
" style="fill: none; stroke: #0000ff; stroke-width: 1.5; stroke-linecap: square"/>
    </g>
    <g id="text_22">
     <!-- AdditiveGP Exploitation -->
     <g transform="translate(658.288369 102.347133) scale(0.0833 -0.0833)">
      <use xlink:href="#DejaVuSans-41"/>
      <use xlink:href="#DejaVuSans-64" transform="translate(66.658203 0)"/>
      <use xlink:href="#DejaVuSans-64" transform="translate(130.134766 0)"/>
      <use xlink:href="#DejaVuSans-69" transform="translate(193.611328 0)"/>
      <use xlink:href="#DejaVuSans-74" transform="translate(221.394531 0)"/>
      <use xlink:href="#DejaVuSans-69" transform="translate(260.603516 0)"/>
      <use xlink:href="#DejaVuSans-76" transform="translate(288.386719 0)"/>
      <use xlink:href="#DejaVuSans-65" transform="translate(347.566406 0)"/>
      <use xlink:href="#DejaVuSans-47" transform="translate(409.089844 0)"/>
      <use xlink:href="#DejaVuSans-50" transform="translate(486.580078 0)"/>
      <use xlink:href="#DejaVuSans-20" transform="translate(546.882812 0)"/>
      <use xlink:href="#DejaVuSans-45" transform="translate(578.669922 0)"/>
      <use xlink:href="#DejaVuSans-78" transform="translate(641.853516 0)"/>
      <use xlink:href="#DejaVuSans-70" transform="translate(701.033203 0)"/>
      <use xlink:href="#DejaVuSans-6c" transform="translate(764.509766 0)"/>
      <use xlink:href="#DejaVuSans-6f" transform="translate(792.292969 0)"/>
      <use xlink:href="#DejaVuSans-69" transform="translate(853.474609 0)"/>
      <use xlink:href="#DejaVuSans-74" transform="translate(881.257812 0)"/>
      <use xlink:href="#DejaVuSans-61" transform="translate(920.466797 0)"/>
      <use xlink:href="#DejaVuSans-74" transform="translate(981.746094 0)"/>
      <use xlink:href="#DejaVuSans-69" transform="translate(1020.955078 0)"/>
      <use xlink:href="#DejaVuSans-6f" transform="translate(1048.738281 0)"/>
      <use xlink:href="#DejaVuSans-6e" transform="translate(1109.919922 0)"/>
     </g>
    </g>
    <g id="line2d_41">
     <path d="M 634.964369 111.658511 
L 643.294369 111.658511 
L 651.624369 111.658511 
" style="fill: none; stroke-dasharray: 5.55,2.4; stroke-dashoffset: 0; stroke: #008000; stroke-width: 1.5"/>
    </g>
    <g id="text_23">
     <!-- SobolGP Exploration -->
     <g transform="translate(658.288369 114.574011) scale(0.0833 -0.0833)">
      <defs>
       <path id="DejaVuSans-53" d="M 3425 4513 
L 3425 3897 
Q 3066 4069 2747 4153 
Q 2428 4238 2131 4238 
Q 1616 4238 1336 4038 
Q 1056 3838 1056 3469 
Q 1056 3159 1242 3001 
Q 1428 2844 1947 2747 
L 2328 2669 
Q 3034 2534 3370 2195 
Q 3706 1856 3706 1288 
Q 3706 609 3251 259 
Q 2797 -91 1919 -91 
Q 1588 -91 1214 -16 
Q 841 59 441 206 
L 441 856 
Q 825 641 1194 531 
Q 1563 422 1919 422 
Q 2459 422 2753 634 
Q 3047 847 3047 1241 
Q 3047 1584 2836 1778 
Q 2625 1972 2144 2069 
L 1759 2144 
Q 1053 2284 737 2584 
Q 422 2884 422 3419 
Q 422 4038 858 4394 
Q 1294 4750 2059 4750 
Q 2388 4750 2728 4690 
Q 3069 4631 3425 4513 
z
" transform="scale(0.015625)"/>
       <path id="DejaVuSans-62" d="M 3116 1747 
Q 3116 2381 2855 2742 
Q 2594 3103 2138 3103 
Q 1681 3103 1420 2742 
Q 1159 2381 1159 1747 
Q 1159 1113 1420 752 
Q 1681 391 2138 391 
Q 2594 391 2855 752 
Q 3116 1113 3116 1747 
z
M 1159 2969 
Q 1341 3281 1617 3432 
Q 1894 3584 2278 3584 
Q 2916 3584 3314 3078 
Q 3713 2572 3713 1747 
Q 3713 922 3314 415 
Q 2916 -91 2278 -91 
Q 1894 -91 1617 61 
Q 1341 213 1159 525 
L 1159 0 
L 581 0 
L 581 4863 
L 1159 4863 
L 1159 2969 
z
" transform="scale(0.015625)"/>
      </defs>
      <use xlink:href="#DejaVuSans-53"/>
      <use xlink:href="#DejaVuSans-6f" transform="translate(63.476562 0)"/>
      <use xlink:href="#DejaVuSans-62" transform="translate(124.658203 0)"/>
      <use xlink:href="#DejaVuSans-6f" transform="translate(188.134766 0)"/>
      <use xlink:href="#DejaVuSans-6c" transform="translate(249.316406 0)"/>
      <use xlink:href="#DejaVuSans-47" transform="translate(277.099609 0)"/>
      <use xlink:href="#DejaVuSans-50" transform="translate(354.589844 0)"/>
      <use xlink:href="#DejaVuSans-20" transform="translate(414.892578 0)"/>
      <use xlink:href="#DejaVuSans-45" transform="translate(446.679688 0)"/>
      <use xlink:href="#DejaVuSans-78" transform="translate(509.863281 0)"/>
      <use xlink:href="#DejaVuSans-70" transform="translate(569.042969 0)"/>
      <use xlink:href="#DejaVuSans-6c" transform="translate(632.519531 0)"/>
      <use xlink:href="#DejaVuSans-6f" transform="translate(660.302734 0)"/>
      <use xlink:href="#DejaVuSans-72" transform="translate(721.484375 0)"/>
      <use xlink:href="#DejaVuSans-61" transform="translate(762.597656 0)"/>
      <use xlink:href="#DejaVuSans-74" transform="translate(823.876953 0)"/>
      <use xlink:href="#DejaVuSans-69" transform="translate(863.085938 0)"/>
      <use xlink:href="#DejaVuSans-6f" transform="translate(890.869141 0)"/>
      <use xlink:href="#DejaVuSans-6e" transform="translate(952.050781 0)"/>
     </g>
    </g>
    <g id="line2d_42">
     <path d="M 634.964369 123.885389 
L 643.294369 123.885389 
L 651.624369 123.885389 
" style="fill: none; stroke: #008000; stroke-width: 1.5; stroke-linecap: square"/>
    </g>
    <g id="text_24">
     <!-- SobolGP Exploitation -->
     <g transform="translate(658.288369 126.800889) scale(0.0833 -0.0833)">
      <use xlink:href="#DejaVuSans-53"/>
      <use xlink:href="#DejaVuSans-6f" transform="translate(63.476562 0)"/>
      <use xlink:href="#DejaVuSans-62" transform="translate(124.658203 0)"/>
      <use xlink:href="#DejaVuSans-6f" transform="translate(188.134766 0)"/>
      <use xlink:href="#DejaVuSans-6c" transform="translate(249.316406 0)"/>
      <use xlink:href="#DejaVuSans-47" transform="translate(277.099609 0)"/>
      <use xlink:href="#DejaVuSans-50" transform="translate(354.589844 0)"/>
      <use xlink:href="#DejaVuSans-20" transform="translate(414.892578 0)"/>
      <use xlink:href="#DejaVuSans-45" transform="translate(446.679688 0)"/>
      <use xlink:href="#DejaVuSans-78" transform="translate(509.863281 0)"/>
      <use xlink:href="#DejaVuSans-70" transform="translate(569.042969 0)"/>
      <use xlink:href="#DejaVuSans-6c" transform="translate(632.519531 0)"/>
      <use xlink:href="#DejaVuSans-6f" transform="translate(660.302734 0)"/>
      <use xlink:href="#DejaVuSans-69" transform="translate(721.484375 0)"/>
      <use xlink:href="#DejaVuSans-74" transform="translate(749.267578 0)"/>
      <use xlink:href="#DejaVuSans-61" transform="translate(788.476562 0)"/>
      <use xlink:href="#DejaVuSans-74" transform="translate(849.755859 0)"/>
      <use xlink:href="#DejaVuSans-69" transform="translate(888.964844 0)"/>
      <use xlink:href="#DejaVuSans-6f" transform="translate(916.748047 0)"/>
      <use xlink:href="#DejaVuSans-6e" transform="translate(977.929688 0)"/>
     </g>
    </g>
   </g>
  </g>
 </g>
 <defs>
  <clipPath id="pcf87f12237">
   <rect x="108" y="51.84" width="669.6" height="332.64"/>
  </clipPath>
 </defs>
</svg>
