<?xml version="1.0" encoding="utf-8" standalone="no"?>
<!DOCTYPE svg PUBLIC "-//W3C//DTD SVG 1.1//EN"
  "http://www.w3.org/Graphics/SVG/1.1/DTD/svg11.dtd">
<svg xmlns:xlink="http://www.w3.org/1999/xlink" width="864pt" height="360pt" viewBox="0 0 864 360" xmlns="http://www.w3.org/2000/svg" version="1.1">
 <metadata>
  <rdf:RDF xmlns:dc="http://purl.org/dc/elements/1.1/" xmlns:cc="http://creativecommons.org/ns#" xmlns:rdf="http://www.w3.org/1999/02/22-rdf-syntax-ns#">
   <cc:Work>
    <dc:type rdf:resource="http://purl.org/dc/dcmitype/StillImage"/>
    <dc:date>2025-10-01T18:42:02.786698</dc:date>
    <dc:format>image/svg+xml</dc:format>
    <dc:creator>
     <cc:Agent>
      <dc:title>Matplotlib v3.10.1, https://matplotlib.org/</dc:title>
     </cc:Agent>
    </dc:creator>
   </cc:Work>
  </rdf:RDF>
 </metadata>
 <defs>
  <style type="text/css">*{stroke-linejoin: round; stroke-linecap: butt}</style>
 </defs>
 <g id="figure_1">
  <g id="patch_1">
   <path d="M 0 360 
L 864 360 
L 864 0 
L 0 0 
z
" style="fill: #ffffff"/>
  </g>
  <g id="axes_1">
   <g id="patch_2">
    <path d="M 108 320.4 
L 777.6 320.4 
L 777.6 43.2 
L 108 43.2 
z
" style="fill: #ffffff"/>
   </g>
   <g id="FillBetweenPolyCollection_1">
    <path d="M 138.436364 59.7942 
L 138.436364 79.286141 
L 141.623417 79.286141 
L 144.810471 79.286141 
L 147.997525 79.286141 
L 151.184579 79.286141 
L 154.371633 79.286141 
L 157.558686 79.286141 
L 160.74574 79.286141 
L 163.932794 79.286141 
L 167.119848 79.286141 
L 170.306901 79.286141 
L 173.493955 79.286141 
L 176.681009 79.286141 
L 179.868063 79.286141 
L 183.055117 79.286141 
L 186.24217 79.286141 
L 189.429224 79.286141 
L 192.616278 79.286141 
L 195.803332 79.286141 
L 198.990386 79.286141 
L 202.177439 79.286141 
L 205.364493 79.286141 
L 208.551547 79.286141 
L 211.738601 79.286141 
L 214.925654 79.286141 
L 218.112708 79.286141 
L 221.299762 79.286141 
L 224.486816 79.286141 
L 227.67387 79.286141 
L 230.860923 79.286141 
L 234.047977 79.286141 
L 237.235031 79.286141 
L 240.422085 79.286141 
L 243.609139 79.286141 
L 246.796192 79.286141 
L 249.983246 79.286141 
L 253.1703 79.286141 
L 256.357354 79.286141 
L 259.544407 79.286141 
L 262.731461 79.286141 
L 265.918515 79.286141 
L 269.105569 79.286141 
L 272.292623 79.286141 
L 275.479676 79.286141 
L 278.66673 79.286141 
L 281.853784 79.286141 
L 285.040838 79.286141 
L 288.227891 79.286141 
L 291.414945 79.286141 
L 294.601999 79.286141 
L 297.789053 79.286141 
L 300.976107 79.286141 
L 304.16316 79.286141 
L 307.350214 79.286141 
L 310.537268 79.286141 
L 313.724322 79.286141 
L 316.911376 79.286141 
L 320.098429 79.286141 
L 323.285483 79.286141 
L 326.472537 79.286141 
L 329.659591 79.286141 
L 332.846644 79.286141 
L 336.033698 79.286141 
L 339.220752 79.0515 
L 342.407806 78.848118 
L 345.59486 79.935151 
L 348.781913 83.827507 
L 351.968967 83.827507 
L 355.156021 83.827507 
L 358.343075 83.827507 
L 361.530129 83.827507 
L 364.717182 83.827507 
L 367.904236 83.827507 
L 371.09129 83.827507 
L 374.278344 84.743992 
L 377.465397 84.743992 
L 380.652451 85.772491 
L 383.839505 85.772491 
L 387.026559 85.772491 
L 390.213613 85.772491 
L 393.400666 85.772491 
L 396.58772 85.772491 
L 399.774774 88.148246 
L 402.961828 87.502566 
L 406.148881 87.502566 
L 409.335935 87.502566 
L 412.522989 87.502566 
L 415.710043 87.502566 
L 418.897097 87.279392 
L 422.08415 87.279392 
L 425.271204 87.279392 
L 428.458258 87.279392 
L 431.645312 87.279392 
L 434.832366 87.477894 
L 438.019419 87.556464 
L 441.206473 90.03042 
L 444.393527 91.646173 
L 447.580581 88.351219 
L 450.767634 88.351219 
L 453.954688 88.478037 
L 457.141742 89.876003 
L 460.328796 88.9864 
L 463.51585 88.995862 
L 466.702903 89.354351 
L 469.889957 89.359086 
L 473.077011 89.473494 
L 476.264065 90.295974 
L 479.451119 90.706569 
L 482.638172 93.715263 
L 485.825226 94.199938 
L 489.01228 94.820346 
L 492.199334 100.472945 
L 495.386387 100.472945 
L 498.573441 100.531115 
L 501.760495 96.300629 
L 504.947549 96.455882 
L 508.134603 96.4791 
L 511.321656 101.615391 
L 514.50871 101.615391 
L 517.695764 101.899893 
L 520.882818 100.470096 
L 524.069871 100.985893 
L 527.256925 101.971209 
L 530.443979 102.377519 
L 533.631033 102.439763 
L 536.818087 102.439763 
L 540.00514 105.949873 
L 543.192194 106.224813 
L 546.379248 106.670782 
L 549.566302 106.670782 
L 552.753356 107.012294 
L 555.940409 125.985295 
L 559.127463 126.311977 
L 562.314517 150.58191 
L 565.501571 150.58191 
L 568.688624 150.632196 
L 571.875678 150.632271 
L 575.062732 150.632271 
L 578.249786 141.381929 
L 581.43684 141.377616 
L 584.623893 142.191189 
L 587.810947 145.021517 
L 590.998001 153.740886 
L 594.185055 153.740886 
L 597.372109 154.395488 
L 600.559162 154.395488 
L 603.746216 154.908345 
L 606.93327 154.920207 
L 610.120324 155.072374 
L 613.307377 155.072374 
L 616.494431 169.321862 
L 619.681485 169.321862 
L 622.868539 168.436564 
L 626.055593 214.06553 
L 629.242646 213.515793 
L 632.4297 212.38646 
L 635.616754 211.358777 
L 638.803808 217.370928 
L 641.990861 217.039471 
L 645.177915 217.039471 
L 648.364969 217.039471 
L 651.552023 217.039471 
L 654.739077 217.039471 
L 657.92613 226.462389 
L 661.113184 300.116066 
L 664.300238 80640.181419 
L 667.487292 80640.181419 
L 670.674346 80640.181419 
L 673.861399 80640.181419 
L 677.048453 80640.181419 
L 680.235507 80640.181419 
L 683.422561 80640.181419 
L 686.609614 80640.181419 
L 689.796668 80640.181419 
L 692.983722 80640.181419 
L 696.170776 80640.181419 
L 699.35783 80640.181419 
L 702.544883 80640.181419 
L 705.731937 80640.181419 
L 708.918991 80640.181419 
L 712.106045 80640.181419 
L 715.293099 80640.181419 
L 718.480152 80640.181419 
L 721.667206 80640.181419 
L 724.85426 80640.181419 
L 728.041314 80640.181419 
L 731.228367 80640.181419 
L 734.415421 80640.181419 
L 737.602475 80640.181419 
L 740.789529 80640.181419 
L 743.976583 80640.181419 
L 747.163636 80640.181419 
L 747.163636 135.198144 
L 747.163636 135.198144 
L 743.976583 135.088709 
L 740.789529 134.905363 
L 737.602475 114.708162 
L 734.415421 114.708162 
L 731.228367 102.434014 
L 728.041314 102.434014 
L 724.85426 102.44056 
L 721.667206 102.44056 
L 718.480152 102.457754 
L 715.293099 102.468193 
L 712.106045 102.459028 
L 708.918991 102.459028 
L 705.731937 102.460083 
L 702.544883 102.477597 
L 699.35783 102.477597 
L 696.170776 102.283177 
L 692.983722 102.097001 
L 689.796668 102.116698 
L 686.609614 102.048687 
L 683.422561 102.086429 
L 680.235507 102.103128 
L 677.048453 102.138725 
L 673.861399 102.197417 
L 670.674346 102.281988 
L 667.487292 91.007806 
L 664.300238 81.953989 
L 661.113184 82.128372 
L 657.92613 82.628913 
L 654.739077 82.806767 
L 651.552023 82.806767 
L 648.364969 82.806767 
L 645.177915 82.806767 
L 641.990861 82.806767 
L 638.803808 82.799647 
L 635.616754 82.872222 
L 632.4297 82.846471 
L 629.242646 82.819053 
L 626.055593 82.788234 
L 622.868539 80.642802 
L 619.681485 80.570566 
L 616.494431 80.570566 
L 613.307377 79.205071 
L 610.120324 79.205071 
L 606.93327 79.222523 
L 603.746216 79.223887 
L 600.559162 79.283356 
L 597.372109 79.283356 
L 594.185055 79.360689 
L 590.998001 79.360689 
L 587.810947 78.198161 
L 584.623893 77.764123 
L 581.43684 77.660658 
L 578.249786 77.659959 
L 575.062732 76.357138 
L 571.875678 76.357138 
L 568.688624 76.357129 
L 565.501571 76.363155 
L 562.314517 76.363155 
L 559.127463 72.396562 
L 555.940409 72.464921 
L 552.753356 67.393576 
L 549.566302 67.504375 
L 546.379248 67.504375 
L 543.192194 67.368849 
L 540.00514 67.43049 
L 536.818087 66.241926 
L 533.631033 66.241926 
L 530.443979 66.264077 
L 527.256925 66.409995 
L 524.069871 66.270363 
L 520.882818 66.14725 
L 517.695764 65.625769 
L 514.50871 65.727233 
L 511.321656 65.727233 
L 508.134603 63.736824 
L 504.947549 63.745937 
L 501.760495 63.807094 
L 498.573441 62.266956 
L 495.386387 62.286468 
L 492.199334 62.286468 
L 489.01228 60.409597 
L 485.825226 60.64453 
L 482.638172 60.832113 
L 479.451119 59.673706 
L 476.264065 59.844274 
L 473.077011 59.196637 
L 469.889957 59.244911 
L 466.702903 59.242908 
L 463.51585 59.122947 
L 460.328796 59.126977 
L 457.141742 58.754745 
L 453.954688 58.577274 
L 450.767634 58.631377 
L 447.580581 58.631377 
L 444.393527 57.311546 
L 441.206473 57.937027 
L 438.019419 58.976908 
L 434.832366 59.011684 
L 431.645312 59.100047 
L 428.458258 59.100047 
L 425.271204 59.100047 
L 422.08415 59.100047 
L 418.897097 59.100047 
L 415.710043 59.000752 
L 412.522989 59.000752 
L 409.335935 59.000752 
L 406.148881 59.000752 
L 402.961828 59.000752 
L 399.774774 58.718556 
L 396.58772 59.795172 
L 393.400666 59.795172 
L 390.213613 59.795172 
L 387.026559 59.795172 
L 383.839505 59.795172 
L 380.652451 59.795172 
L 377.465397 59.301825 
L 374.278344 59.301825 
L 371.09129 59.753558 
L 367.904236 59.753558 
L 364.717182 59.753558 
L 361.530129 59.753558 
L 358.343075 59.753558 
L 355.156021 59.753558 
L 351.968967 59.753558 
L 348.781913 59.753558 
L 345.59486 60.10072 
L 342.407806 60.7328 
L 339.220752 60.612161 
L 336.033698 59.7942 
L 332.846644 59.7942 
L 329.659591 59.7942 
L 326.472537 59.7942 
L 323.285483 59.7942 
L 320.098429 59.7942 
L 316.911376 59.7942 
L 313.724322 59.7942 
L 310.537268 59.7942 
L 307.350214 59.7942 
L 304.16316 59.7942 
L 300.976107 59.7942 
L 297.789053 59.7942 
L 294.601999 59.7942 
L 291.414945 59.7942 
L 288.227891 59.7942 
L 285.040838 59.7942 
L 281.853784 59.7942 
L 278.66673 59.7942 
L 275.479676 59.7942 
L 272.292623 59.7942 
L 269.105569 59.7942 
L 265.918515 59.7942 
L 262.731461 59.7942 
L 259.544407 59.7942 
L 256.357354 59.7942 
L 253.1703 59.7942 
L 249.983246 59.7942 
L 246.796192 59.7942 
L 243.609139 59.7942 
L 240.422085 59.7942 
L 237.235031 59.7942 
L 234.047977 59.7942 
L 230.860923 59.7942 
L 227.67387 59.7942 
L 224.486816 59.7942 
L 221.299762 59.7942 
L 218.112708 59.7942 
L 214.925654 59.7942 
L 211.738601 59.7942 
L 208.551547 59.7942 
L 205.364493 59.7942 
L 202.177439 59.7942 
L 198.990386 59.7942 
L 195.803332 59.7942 
L 192.616278 59.7942 
L 189.429224 59.7942 
L 186.24217 59.7942 
L 183.055117 59.7942 
L 179.868063 59.7942 
L 176.681009 59.7942 
L 173.493955 59.7942 
L 170.306901 59.7942 
L 167.119848 59.7942 
L 163.932794 59.7942 
L 160.74574 59.7942 
L 157.558686 59.7942 
L 154.371633 59.7942 
L 151.184579 59.7942 
L 147.997525 59.7942 
L 144.810471 59.7942 
L 141.623417 59.7942 
L 138.436364 59.7942 
z
" clip-path="url(#pe1803d4b14)" style="fill: #ff0000; fill-opacity: 0.2; stroke: #ff0000; stroke-opacity: 0.2"/>
   </g>
   <g id="FillBetweenPolyCollection_2">
    <path d="M 138.436364 55.8 
L 138.436364 72.585617 
L 141.623417 72.585617 
L 144.810471 72.585617 
L 147.997525 72.585617 
L 151.184579 72.585617 
L 154.371633 72.585617 
L 157.558686 72.585617 
L 160.74574 76.964098 
L 163.932794 77.773805 
L 167.119848 77.773805 
L 170.306901 83.738231 
L 173.493955 83.738231 
L 176.681009 83.738231 
L 179.868063 86.777711 
L 183.055117 86.777711 
L 186.24217 86.777711 
L 189.429224 86.777711 
L 192.616278 86.777711 
L 195.803332 87.172223 
L 198.990386 87.172223 
L 202.177439 87.41422 
L 205.364493 87.574613 
L 208.551547 90.222063 
L 211.738601 90.222063 
L 214.925654 90.222063 
L 218.112708 105.873412 
L 221.299762 105.873412 
L 224.486816 105.873412 
L 227.67387 107.644756 
L 230.860923 110.667157 
L 234.047977 127.331493 
L 237.235031 127.331493 
L 240.422085 127.679363 
L 243.609139 130.168804 
L 246.796192 140.627915 
L 249.983246 140.627915 
L 253.1703 140.627915 
L 256.357354 142.987028 
L 259.544407 142.987028 
L 262.731461 142.987028 
L 265.918515 142.987028 
L 269.105569 142.987028 
L 272.292623 142.987028 
L 275.479676 146.026575 
L 278.66673 222.359255 
L 281.853784 80640.181419 
L 285.040838 80640.181419 
L 288.227891 80640.181419 
L 291.414945 80640.181419 
L 294.601999 80640.181419 
L 297.789053 80640.181419 
L 300.976107 80640.181419 
L 304.16316 80640.181419 
L 307.350214 80640.181419 
L 310.537268 80640.181419 
L 313.724322 80640.181419 
L 316.911376 80640.181419 
L 320.098429 80640.181419 
L 323.285483 80640.181419 
L 326.472537 80640.181419 
L 329.659591 80640.181419 
L 332.846644 80640.181419 
L 336.033698 80640.181419 
L 339.220752 80640.181419 
L 342.407806 80640.181419 
L 345.59486 80640.181419 
L 348.781913 80640.181419 
L 351.968967 80640.181419 
L 355.156021 80640.181419 
L 358.343075 80640.181419 
L 361.530129 80640.181419 
L 364.717182 80640.181419 
L 367.904236 80640.181419 
L 371.09129 80640.181419 
L 374.278344 80640.181419 
L 377.465397 80640.181419 
L 380.652451 80640.181419 
L 383.839505 80640.181419 
L 387.026559 80640.181419 
L 390.213613 80640.181419 
L 393.400666 80640.181419 
L 396.58772 80640.181419 
L 399.774774 80640.181419 
L 402.961828 80640.181419 
L 406.148881 80640.181419 
L 409.335935 80640.181419 
L 412.522989 80640.181419 
L 415.710043 80640.181419 
L 418.897097 80640.181419 
L 422.08415 80640.181419 
L 425.271204 80640.181419 
L 428.458258 80640.181419 
L 431.645312 80640.181419 
L 434.832366 80640.181419 
L 438.019419 80640.181419 
L 441.206473 80640.181419 
L 444.393527 80640.181419 
L 447.580581 80640.181419 
L 450.767634 80640.181419 
L 453.954688 80640.181419 
L 457.141742 80640.181419 
L 460.328796 80640.181419 
L 463.51585 80640.181419 
L 466.702903 80640.181419 
L 469.889957 80640.181419 
L 473.077011 80640.181419 
L 476.264065 80640.181419 
L 479.451119 80640.181419 
L 482.638172 80640.181419 
L 485.825226 80640.181419 
L 489.01228 80640.181419 
L 492.199334 80640.181419 
L 495.386387 80640.181419 
L 498.573441 80640.181419 
L 501.760495 80640.181419 
L 504.947549 80640.181419 
L 508.134603 80640.181419 
L 511.321656 80640.181419 
L 514.50871 80640.181419 
L 517.695764 80640.181419 
L 520.882818 80640.181419 
L 524.069871 80640.181419 
L 527.256925 80640.181419 
L 530.443979 80640.181419 
L 533.631033 80640.181419 
L 536.818087 80640.181419 
L 540.00514 80640.181419 
L 543.192194 80640.181419 
L 546.379248 80640.181419 
L 549.566302 80640.181419 
L 552.753356 80640.181419 
L 555.940409 80640.181419 
L 559.127463 80640.181419 
L 562.314517 80640.181419 
L 565.501571 80640.181419 
L 568.688624 80640.181419 
L 571.875678 80640.181419 
L 575.062732 80640.181419 
L 578.249786 80640.181419 
L 581.43684 80640.181419 
L 584.623893 80640.181419 
L 587.810947 80640.181419 
L 590.998001 80640.181419 
L 594.185055 80640.181419 
L 597.372109 80640.181419 
L 600.559162 80640.181419 
L 603.746216 80640.181419 
L 606.93327 80640.181419 
L 610.120324 80640.181419 
L 613.307377 80640.181419 
L 616.494431 80640.181419 
L 619.681485 80640.181419 
L 622.868539 80640.181419 
L 626.055593 80640.181419 
L 629.242646 80640.181419 
L 632.4297 80640.181419 
L 635.616754 80640.181419 
L 638.803808 80640.181419 
L 641.990861 80640.181419 
L 645.177915 80640.181419 
L 648.364969 80640.181419 
L 651.552023 80640.181419 
L 654.739077 80640.181419 
L 657.92613 80640.181419 
L 661.113184 80640.181419 
L 664.300238 80640.181419 
L 667.487292 80640.181419 
L 670.674346 80640.181419 
L 673.861399 80640.181419 
L 677.048453 80640.181419 
L 680.235507 80640.181419 
L 683.422561 80640.181419 
L 686.609614 80640.181419 
L 689.796668 80640.181419 
L 692.983722 80640.181419 
L 696.170776 80640.181419 
L 699.35783 80640.181419 
L 702.544883 80640.181419 
L 705.731937 80640.181419 
L 708.918991 80640.181419 
L 712.106045 80640.181419 
L 715.293099 80640.181419 
L 718.480152 80640.181419 
L 721.667206 80640.181419 
L 724.85426 80640.181419 
L 728.041314 80640.181419 
L 731.228367 80640.181419 
L 734.415421 80640.181419 
L 737.602475 80640.181419 
L 740.789529 80640.181419 
L 743.976583 80640.181419 
L 747.163636 80640.181419 
L 747.163636 307.8 
L 747.163636 307.8 
L 743.976583 295.176453 
L 740.789529 280.766672 
L 737.602475 142.856044 
L 734.415421 142.84806 
L 731.228367 119.671394 
L 728.041314 119.661234 
L 724.85426 119.666979 
L 721.667206 119.663484 
L 718.480152 119.681798 
L 715.293099 119.692795 
L 712.106045 119.684535 
L 708.918991 119.673199 
L 705.731937 119.66119 
L 702.544883 119.682489 
L 699.35783 119.682489 
L 696.170776 119.693848 
L 692.983722 119.707094 
L 689.796668 119.73968 
L 686.609614 119.627218 
L 683.422561 119.689609 
L 680.235507 119.717229 
L 677.048453 119.776134 
L 673.861399 119.873342 
L 670.674346 120.013601 
L 667.487292 120.200734 
L 664.300238 120.600547 
L 661.113184 121.317023 
L 657.92613 122.87408 
L 654.739077 123.438902 
L 651.552023 123.438902 
L 648.364969 123.438902 
L 645.177915 123.438902 
L 641.990861 123.438902 
L 638.803808 123.41617 
L 635.616754 123.757326 
L 632.4297 123.674564 
L 629.242646 123.586591 
L 626.055593 123.516362 
L 622.868539 123.505256 
L 619.681485 123.261996 
L 616.494431 123.261996 
L 613.307377 123.261996 
L 610.120324 123.261996 
L 606.93327 123.323495 
L 603.746216 123.328305 
L 600.559162 123.538475 
L 597.372109 123.538475 
L 594.185055 123.813142 
L 590.998001 123.813142 
L 587.810947 123.813142 
L 584.623893 123.807687 
L 581.43684 123.857984 
L 578.249786 123.85537 
L 575.062732 119.227583 
L 571.875678 119.227583 
L 568.688624 119.227583 
L 565.501571 119.248102 
L 562.314517 119.248102 
L 559.127463 119.248102 
L 555.940409 119.513465 
L 552.753356 119.513465 
L 549.566302 120.00747 
L 546.379248 120.00747 
L 543.192194 120.031618 
L 540.00514 120.376762 
L 536.818087 120.420294 
L 533.631033 120.420294 
L 530.443979 120.524592 
L 527.256925 121.217833 
L 524.069871 121.752961 
L 520.882818 121.922657 
L 517.695764 119.427549 
L 514.50871 119.902137 
L 511.321656 119.902137 
L 508.134603 119.751619 
L 504.947549 119.796811 
L 501.760495 120.101291 
L 498.573441 113.005484 
L 495.386387 113.088735 
L 492.199334 113.088735 
L 489.01228 113.37173 
L 485.825226 114.451781 
L 482.638172 115.333338 
L 479.451119 115.451988 
L 476.264065 116.299823 
L 473.077011 115.542491 
L 469.889957 115.784699 
L 466.702903 115.784699 
L 463.51585 115.865906 
L 460.328796 115.886305 
L 457.141742 114.041195 
L 453.954688 115.046198 
L 450.767634 115.318702 
L 447.580581 115.318702 
L 444.393527 109.108154 
L 441.206473 111.943604 
L 438.019419 117.100492 
L 434.832366 117.283946 
L 431.645312 117.753634 
L 428.458258 117.753634 
L 425.271204 117.753634 
L 422.08415 117.753634 
L 418.897097 117.753634 
L 415.710043 117.226191 
L 412.522989 114.624408 
L 409.335935 114.624408 
L 406.148881 114.624408 
L 402.961828 114.624408 
L 399.774774 113.262563 
L 396.58772 118.702849 
L 393.400666 118.702849 
L 390.213613 118.702849 
L 387.026559 118.702849 
L 383.839505 118.702849 
L 380.652451 118.702849 
L 377.465397 118.500873 
L 374.278344 107.28579 
L 371.09129 109.100405 
L 367.904236 109.100405 
L 364.717182 109.09501 
L 361.530129 109.010526 
L 358.343075 102.913347 
L 355.156021 102.913347 
L 351.968967 97.333058 
L 348.781913 97.333058 
L 345.59486 101.058027 
L 342.407806 103.137655 
L 339.220752 102.734025 
L 336.033698 101.160973 
L 332.846644 101.160973 
L 329.659591 99.701596 
L 326.472537 96.539742 
L 323.285483 96.531479 
L 320.098429 94.3098 
L 316.911376 94.3098 
L 313.724322 94.3098 
L 310.537268 94.187716 
L 307.350214 94.187716 
L 304.16316 92.509956 
L 300.976107 92.509956 
L 297.789053 92.232479 
L 294.601999 92.232479 
L 291.414945 92.232479 
L 288.227891 92.232479 
L 285.040838 92.232479 
L 281.853784 92.232479 
L 278.66673 88.789582 
L 275.479676 83.210369 
L 272.292623 82.686781 
L 269.105569 82.686781 
L 265.918515 82.686781 
L 262.731461 82.686781 
L 259.544407 82.686781 
L 256.357354 82.686781 
L 253.1703 82.253829 
L 249.983246 82.253829 
L 246.796192 82.253829 
L 243.609139 80.027019 
L 240.422085 79.416673 
L 237.235031 79.328754 
L 234.047977 79.328754 
L 230.860923 74.294339 
L 227.67387 73.195312 
L 224.486816 72.522899 
L 221.299762 72.522899 
L 218.112708 72.522899 
L 214.925654 65.636894 
L 211.738601 65.636894 
L 208.551547 65.636894 
L 205.364493 64.300506 
L 202.177439 64.217935 
L 198.990386 64.093005 
L 195.803332 64.093005 
L 192.616278 63.888444 
L 189.429224 63.888444 
L 186.24217 63.888444 
L 183.055117 63.888444 
L 179.868063 63.888444 
L 176.681009 62.275251 
L 173.493955 62.275251 
L 170.306901 62.275251 
L 167.119848 58.919761 
L 163.932794 58.919761 
L 160.74574 58.445049 
L 157.558686 55.8 
L 154.371633 55.8 
L 151.184579 55.8 
L 147.997525 55.8 
L 144.810471 55.8 
L 141.623417 55.8 
L 138.436364 55.8 
z
" clip-path="url(#pe1803d4b14)" style="fill: #0000ff; fill-opacity: 0.2; stroke: #0000ff; stroke-opacity: 0.2"/>
   </g>
   <g id="FillBetweenPolyCollection_3">
    <path d="M 138.436364 64.607454 
L 138.436364 88.174007 
L 141.623417 88.174007 
L 144.810471 88.174007 
L 147.997525 88.174007 
L 151.184579 88.174007 
L 154.371633 88.174007 
L 157.558686 88.174007 
L 160.74574 88.174007 
L 163.932794 88.174007 
L 167.119848 88.174007 
L 170.306901 88.174007 
L 173.493955 88.174007 
L 176.681009 88.174007 
L 179.868063 88.174007 
L 183.055117 88.174007 
L 186.24217 88.174007 
L 189.429224 88.174007 
L 192.616278 88.174007 
L 195.803332 88.174007 
L 198.990386 88.174007 
L 202.177439 88.174007 
L 205.364493 88.174007 
L 208.551547 88.174007 
L 211.738601 88.174007 
L 214.925654 88.174007 
L 218.112708 88.174007 
L 221.299762 88.174007 
L 224.486816 88.174007 
L 227.67387 88.174007 
L 230.860923 88.174007 
L 234.047977 88.174007 
L 237.235031 88.174007 
L 240.422085 88.174007 
L 243.609139 88.174007 
L 246.796192 88.174007 
L 249.983246 88.174007 
L 253.1703 88.174007 
L 256.357354 88.174007 
L 259.544407 88.174007 
L 262.731461 88.174007 
L 265.918515 88.174007 
L 269.105569 88.174007 
L 272.292623 88.174007 
L 275.479676 88.174007 
L 278.66673 88.174007 
L 281.853784 88.174007 
L 285.040838 88.174007 
L 288.227891 88.174007 
L 291.414945 88.174007 
L 294.601999 88.174007 
L 297.789053 88.174007 
L 300.976107 88.174007 
L 304.16316 88.174007 
L 307.350214 88.174007 
L 310.537268 88.174007 
L 313.724322 88.174007 
L 316.911376 88.174007 
L 320.098429 88.174007 
L 323.285483 88.174007 
L 326.472537 88.174007 
L 329.659591 88.174007 
L 332.846644 88.174007 
L 336.033698 88.174007 
L 339.220752 88.858025 
L 342.407806 89.041416 
L 345.59486 91.474904 
L 348.781913 105.256609 
L 351.968967 105.256609 
L 355.156021 105.256609 
L 358.343075 105.256609 
L 361.530129 105.256609 
L 364.717182 105.256609 
L 367.904236 105.256609 
L 371.09129 105.256609 
L 374.278344 110.882541 
L 377.465397 110.882541 
L 380.652451 110.882541 
L 383.839505 110.882541 
L 387.026559 110.882541 
L 390.213613 110.882541 
L 393.400666 110.882541 
L 396.58772 110.882541 
L 399.774774 143.216121 
L 402.961828 224.529231 
L 406.148881 224.529231 
L 409.335935 224.529231 
L 412.522989 224.529231 
L 415.710043 224.529231 
L 418.897097 80640.181419 
L 422.08415 80640.181419 
L 425.271204 80640.181419 
L 428.458258 80640.181419 
L 431.645312 80640.181419 
L 434.832366 80640.181419 
L 438.019419 80640.181419 
L 441.206473 80640.181419 
L 444.393527 80640.181419 
L 447.580581 80640.181419 
L 450.767634 80640.181419 
L 453.954688 80640.181419 
L 457.141742 80640.181419 
L 460.328796 80640.181419 
L 463.51585 80640.181419 
L 466.702903 80640.181419 
L 469.889957 80640.181419 
L 473.077011 80640.181419 
L 476.264065 80640.181419 
L 479.451119 80640.181419 
L 482.638172 80640.181419 
L 485.825226 80640.181419 
L 489.01228 80640.181419 
L 492.199334 80640.181419 
L 495.386387 80640.181419 
L 498.573441 80640.181419 
L 501.760495 80640.181419 
L 504.947549 80640.181419 
L 508.134603 80640.181419 
L 511.321656 80640.181419 
L 514.50871 80640.181419 
L 517.695764 80640.181419 
L 520.882818 80640.181419 
L 524.069871 80640.181419 
L 527.256925 80640.181419 
L 530.443979 80640.181419 
L 533.631033 80640.181419 
L 536.818087 80640.181419 
L 540.00514 80640.181419 
L 543.192194 80640.181419 
L 546.379248 80640.181419 
L 549.566302 80640.181419 
L 552.753356 80640.181419 
L 555.940409 80640.181419 
L 559.127463 80640.181419 
L 562.314517 80640.181419 
L 565.501571 80640.181419 
L 568.688624 80640.181419 
L 571.875678 80640.181419 
L 575.062732 80640.181419 
L 578.249786 80640.181419 
L 581.43684 80640.181419 
L 584.623893 80640.181419 
L 587.810947 80640.181419 
L 590.998001 80640.181419 
L 594.185055 80640.181419 
L 597.372109 80640.181419 
L 600.559162 80640.181419 
L 603.746216 80640.181419 
L 606.93327 80640.181419 
L 610.120324 80640.181419 
L 613.307377 80640.181419 
L 616.494431 80640.181419 
L 619.681485 80640.181419 
L 622.868539 80640.181419 
L 626.055593 80640.181419 
L 629.242646 80640.181419 
L 632.4297 80640.181419 
L 635.616754 80640.181419 
L 638.803808 80640.181419 
L 641.990861 80640.181419 
L 645.177915 80640.181419 
L 648.364969 80640.181419 
L 651.552023 80640.181419 
L 654.739077 80640.181419 
L 657.92613 80640.181419 
L 661.113184 80640.181419 
L 664.300238 80640.181419 
L 667.487292 80640.181419 
L 670.674346 80640.181419 
L 673.861399 80640.181419 
L 677.048453 80640.181419 
L 680.235507 80640.181419 
L 683.422561 80640.181419 
L 686.609614 80640.181419 
L 689.796668 80640.181419 
L 692.983722 80640.181419 
L 696.170776 80640.181419 
L 699.35783 80640.181419 
L 702.544883 80640.181419 
L 705.731937 80640.181419 
L 708.918991 80640.181419 
L 712.106045 80640.181419 
L 715.293099 80640.181419 
L 718.480152 80640.181419 
L 721.667206 80640.181419 
L 724.85426 80640.181419 
L 728.041314 80640.181419 
L 731.228367 80640.181419 
L 734.415421 80640.181419 
L 737.602475 80640.181419 
L 740.789529 80640.181419 
L 743.976583 80640.181419 
L 747.163636 80640.181419 
L 747.163636 80640.181419 
L 747.163636 80640.181419 
L 743.976583 80640.181419 
L 740.789529 80640.181419 
L 737.602475 80640.181419 
L 734.415421 80640.181419 
L 731.228367 80640.181419 
L 728.041314 80640.181419 
L 724.85426 80640.181419 
L 721.667206 80640.181419 
L 718.480152 80640.181419 
L 715.293099 80640.181419 
L 712.106045 80640.181419 
L 708.918991 80640.181419 
L 705.731937 80640.181419 
L 702.544883 80640.181419 
L 699.35783 80640.181419 
L 696.170776 80640.181419 
L 692.983722 80640.181419 
L 689.796668 80640.181419 
L 686.609614 80640.181419 
L 683.422561 80640.181419 
L 680.235507 80640.181419 
L 677.048453 80640.181419 
L 673.861399 80640.181419 
L 670.674346 80640.181419 
L 667.487292 80640.181419 
L 664.300238 80640.181419 
L 661.113184 80640.181419 
L 657.92613 80640.181419 
L 654.739077 80640.181419 
L 651.552023 80640.181419 
L 648.364969 80640.181419 
L 645.177915 80640.181419 
L 641.990861 80640.181419 
L 638.803808 80640.181419 
L 635.616754 80640.181419 
L 632.4297 80640.181419 
L 629.242646 80640.181419 
L 626.055593 80640.181419 
L 622.868539 80640.181419 
L 619.681485 80640.181419 
L 616.494431 80640.181419 
L 613.307377 80640.181419 
L 610.120324 80640.181419 
L 606.93327 80640.181419 
L 603.746216 80640.181419 
L 600.559162 80640.181419 
L 597.372109 80640.181419 
L 594.185055 80640.181419 
L 590.998001 80640.181419 
L 587.810947 80640.181419 
L 584.623893 80640.181419 
L 581.43684 80640.181419 
L 578.249786 80640.181419 
L 575.062732 80640.181419 
L 571.875678 80640.181419 
L 568.688624 80640.181419 
L 565.501571 80640.181419 
L 562.314517 80640.181419 
L 559.127463 80640.181419 
L 555.940409 80640.181419 
L 552.753356 80640.181419 
L 549.566302 264.750943 
L 546.379248 264.750943 
L 543.192194 260.246883 
L 540.00514 228.950928 
L 536.818087 226.024496 
L 533.631033 226.024496 
L 530.443979 221.86835 
L 527.256925 192.243361 
L 524.069871 173.761472 
L 520.882818 171.996471 
L 517.695764 153.682299 
L 514.50871 152.417481 
L 511.321656 152.417481 
L 508.134603 145.002665 
L 504.947549 144.903071 
L 501.760495 138.733049 
L 498.573441 118.107851 
L 495.386387 117.809356 
L 492.199334 117.809356 
L 489.01228 117.487773 
L 485.825226 113.418583 
L 482.638172 112.409751 
L 479.451119 112.186097 
L 476.264065 109.231573 
L 473.077011 101.496944 
L 469.889957 100.824393 
L 466.702903 100.824393 
L 463.51585 100.466551 
L 460.328796 100.348322 
L 457.141742 96.437287 
L 453.954688 95.918699 
L 450.767634 95.484088 
L 447.580581 95.484088 
L 444.393527 85.819295 
L 441.206473 84.665742 
L 438.019419 83.122441 
L 434.832366 83.017 
L 431.645312 82.672833 
L 428.458258 82.672833 
L 425.271204 82.672833 
L 422.08415 82.672833 
L 418.897097 82.672833 
L 415.710043 78.921807 
L 412.522989 78.921807 
L 409.335935 78.921807 
L 406.148881 78.921807 
L 402.961828 78.921807 
L 399.774774 73.359581 
L 396.58772 69.571637 
L 393.400666 69.571637 
L 390.213613 69.571637 
L 387.026559 69.571637 
L 383.839505 69.571637 
L 380.652451 69.571637 
L 377.465397 69.571637 
L 374.278344 69.571637 
L 371.09129 68.90727 
L 367.904236 68.90727 
L 364.717182 68.90727 
L 361.530129 68.90727 
L 358.343075 68.90727 
L 355.156021 68.90727 
L 351.968967 68.90727 
L 348.781913 68.90727 
L 345.59486 66.175897 
L 342.407806 66.444177 
L 339.220752 66.065294 
L 336.033698 64.607454 
L 332.846644 64.607454 
L 329.659591 64.607454 
L 326.472537 64.607454 
L 323.285483 64.607454 
L 320.098429 64.607454 
L 316.911376 64.607454 
L 313.724322 64.607454 
L 310.537268 64.607454 
L 307.350214 64.607454 
L 304.16316 64.607454 
L 300.976107 64.607454 
L 297.789053 64.607454 
L 294.601999 64.607454 
L 291.414945 64.607454 
L 288.227891 64.607454 
L 285.040838 64.607454 
L 281.853784 64.607454 
L 278.66673 64.607454 
L 275.479676 64.607454 
L 272.292623 64.607454 
L 269.105569 64.607454 
L 265.918515 64.607454 
L 262.731461 64.607454 
L 259.544407 64.607454 
L 256.357354 64.607454 
L 253.1703 64.607454 
L 249.983246 64.607454 
L 246.796192 64.607454 
L 243.609139 64.607454 
L 240.422085 64.607454 
L 237.235031 64.607454 
L 234.047977 64.607454 
L 230.860923 64.607454 
L 227.67387 64.607454 
L 224.486816 64.607454 
L 221.299762 64.607454 
L 218.112708 64.607454 
L 214.925654 64.607454 
L 211.738601 64.607454 
L 208.551547 64.607454 
L 205.364493 64.607454 
L 202.177439 64.607454 
L 198.990386 64.607454 
L 195.803332 64.607454 
L 192.616278 64.607454 
L 189.429224 64.607454 
L 186.24217 64.607454 
L 183.055117 64.607454 
L 179.868063 64.607454 
L 176.681009 64.607454 
L 173.493955 64.607454 
L 170.306901 64.607454 
L 167.119848 64.607454 
L 163.932794 64.607454 
L 160.74574 64.607454 
L 157.558686 64.607454 
L 154.371633 64.607454 
L 151.184579 64.607454 
L 147.997525 64.607454 
L 144.810471 64.607454 
L 141.623417 64.607454 
L 138.436364 64.607454 
z
" clip-path="url(#pe1803d4b14)" style="fill: #008000; fill-opacity: 0.2; stroke: #008000; stroke-opacity: 0.2"/>
   </g>
   <g id="matplotlib.axis_1">
    <g id="xtick_1">
     <g id="line2d_1">
      <path d="M 135.24931 320.4 
L 135.24931 43.2 
" clip-path="url(#pe1803d4b14)" style="fill: none; stroke: #b0b0b0; stroke-width: 0.8; stroke-linecap: square"/>
     </g>
     <g id="line2d_2">
      <defs>
       <path id="m2a98fabd90" d="M 0 0 
L 0 3.5 
" style="stroke: #000000; stroke-width: 0.8"/>
      </defs>
      <g>
       <use xlink:href="#m2a98fabd90" x="135.24931" y="320.4" style="stroke: #000000; stroke-width: 0.8"/>
      </g>
     </g>
     <g id="text_1">
      <!-- 0 -->
      <g transform="translate(132.06806 334.998438) scale(0.1 -0.1)">
       <defs>
        <path id="DejaVuSans-30" d="M 2034 4250 
Q 1547 4250 1301 3770 
Q 1056 3291 1056 2328 
Q 1056 1369 1301 889 
Q 1547 409 2034 409 
Q 2525 409 2770 889 
Q 3016 1369 3016 2328 
Q 3016 3291 2770 3770 
Q 2525 4250 2034 4250 
z
M 2034 4750 
Q 2819 4750 3233 4129 
Q 3647 3509 3647 2328 
Q 3647 1150 3233 529 
Q 2819 -91 2034 -91 
Q 1250 -91 836 529 
Q 422 1150 422 2328 
Q 422 3509 836 4129 
Q 1250 4750 2034 4750 
z
" transform="scale(0.015625)"/>
       </defs>
       <use xlink:href="#DejaVuSans-30"/>
      </g>
     </g>
    </g>
    <g id="xtick_2">
     <g id="line2d_3">
      <path d="M 214.925654 320.4 
L 214.925654 43.2 
" clip-path="url(#pe1803d4b14)" style="fill: none; stroke: #b0b0b0; stroke-width: 0.8; stroke-linecap: square"/>
     </g>
     <g id="line2d_4">
      <g>
       <use xlink:href="#m2a98fabd90" x="214.925654" y="320.4" style="stroke: #000000; stroke-width: 0.8"/>
      </g>
     </g>
     <g id="text_2">
      <!-- 25 -->
      <g transform="translate(208.563154 334.998438) scale(0.1 -0.1)">
       <defs>
        <path id="DejaVuSans-32" d="M 1228 531 
L 3431 531 
L 3431 0 
L 469 0 
L 469 531 
Q 828 903 1448 1529 
Q 2069 2156 2228 2338 
Q 2531 2678 2651 2914 
Q 2772 3150 2772 3378 
Q 2772 3750 2511 3984 
Q 2250 4219 1831 4219 
Q 1534 4219 1204 4116 
Q 875 4013 500 3803 
L 500 4441 
Q 881 4594 1212 4672 
Q 1544 4750 1819 4750 
Q 2544 4750 2975 4387 
Q 3406 4025 3406 3419 
Q 3406 3131 3298 2873 
Q 3191 2616 2906 2266 
Q 2828 2175 2409 1742 
Q 1991 1309 1228 531 
z
" transform="scale(0.015625)"/>
        <path id="DejaVuSans-35" d="M 691 4666 
L 3169 4666 
L 3169 4134 
L 1269 4134 
L 1269 2991 
Q 1406 3038 1543 3061 
Q 1681 3084 1819 3084 
Q 2600 3084 3056 2656 
Q 3513 2228 3513 1497 
Q 3513 744 3044 326 
Q 2575 -91 1722 -91 
Q 1428 -91 1123 -41 
Q 819 9 494 109 
L 494 744 
Q 775 591 1075 516 
Q 1375 441 1709 441 
Q 2250 441 2565 725 
Q 2881 1009 2881 1497 
Q 2881 1984 2565 2268 
Q 2250 2553 1709 2553 
Q 1456 2553 1204 2497 
Q 953 2441 691 2322 
L 691 4666 
z
" transform="scale(0.015625)"/>
       </defs>
       <use xlink:href="#DejaVuSans-32"/>
       <use xlink:href="#DejaVuSans-35" transform="translate(63.623047 0)"/>
      </g>
     </g>
    </g>
    <g id="xtick_3">
     <g id="line2d_5">
      <path d="M 294.601999 320.4 
L 294.601999 43.2 
" clip-path="url(#pe1803d4b14)" style="fill: none; stroke: #b0b0b0; stroke-width: 0.8; stroke-linecap: square"/>
     </g>
     <g id="line2d_6">
      <g>
       <use xlink:href="#m2a98fabd90" x="294.601999" y="320.4" style="stroke: #000000; stroke-width: 0.8"/>
      </g>
     </g>
     <g id="text_3">
      <!-- 50 -->
      <g transform="translate(288.239499 334.998438) scale(0.1 -0.1)">
       <use xlink:href="#DejaVuSans-35"/>
       <use xlink:href="#DejaVuSans-30" transform="translate(63.623047 0)"/>
      </g>
     </g>
    </g>
    <g id="xtick_4">
     <g id="line2d_7">
      <path d="M 374.278344 320.4 
L 374.278344 43.2 
" clip-path="url(#pe1803d4b14)" style="fill: none; stroke: #b0b0b0; stroke-width: 0.8; stroke-linecap: square"/>
     </g>
     <g id="line2d_8">
      <g>
       <use xlink:href="#m2a98fabd90" x="374.278344" y="320.4" style="stroke: #000000; stroke-width: 0.8"/>
      </g>
     </g>
     <g id="text_4">
      <!-- 75 -->
      <g transform="translate(367.915844 334.998438) scale(0.1 -0.1)">
       <defs>
        <path id="DejaVuSans-37" d="M 525 4666 
L 3525 4666 
L 3525 4397 
L 1831 0 
L 1172 0 
L 2766 4134 
L 525 4134 
L 525 4666 
z
" transform="scale(0.015625)"/>
       </defs>
       <use xlink:href="#DejaVuSans-37"/>
       <use xlink:href="#DejaVuSans-35" transform="translate(63.623047 0)"/>
      </g>
     </g>
    </g>
    <g id="xtick_5">
     <g id="line2d_9">
      <path d="M 453.954688 320.4 
L 453.954688 43.2 
" clip-path="url(#pe1803d4b14)" style="fill: none; stroke: #b0b0b0; stroke-width: 0.8; stroke-linecap: square"/>
     </g>
     <g id="line2d_10">
      <g>
       <use xlink:href="#m2a98fabd90" x="453.954688" y="320.4" style="stroke: #000000; stroke-width: 0.8"/>
      </g>
     </g>
     <g id="text_5">
      <!-- 100 -->
      <g transform="translate(444.410938 334.998438) scale(0.1 -0.1)">
       <defs>
        <path id="DejaVuSans-31" d="M 794 531 
L 1825 531 
L 1825 4091 
L 703 3866 
L 703 4441 
L 1819 4666 
L 2450 4666 
L 2450 531 
L 3481 531 
L 3481 0 
L 794 0 
L 794 531 
z
" transform="scale(0.015625)"/>
       </defs>
       <use xlink:href="#DejaVuSans-31"/>
       <use xlink:href="#DejaVuSans-30" transform="translate(63.623047 0)"/>
       <use xlink:href="#DejaVuSans-30" transform="translate(127.246094 0)"/>
      </g>
     </g>
    </g>
    <g id="xtick_6">
     <g id="line2d_11">
      <path d="M 533.631033 320.4 
L 533.631033 43.2 
" clip-path="url(#pe1803d4b14)" style="fill: none; stroke: #b0b0b0; stroke-width: 0.8; stroke-linecap: square"/>
     </g>
     <g id="line2d_12">
      <g>
       <use xlink:href="#m2a98fabd90" x="533.631033" y="320.4" style="stroke: #000000; stroke-width: 0.8"/>
      </g>
     </g>
     <g id="text_6">
      <!-- 125 -->
      <g transform="translate(524.087283 334.998438) scale(0.1 -0.1)">
       <use xlink:href="#DejaVuSans-31"/>
       <use xlink:href="#DejaVuSans-32" transform="translate(63.623047 0)"/>
       <use xlink:href="#DejaVuSans-35" transform="translate(127.246094 0)"/>
      </g>
     </g>
    </g>
    <g id="xtick_7">
     <g id="line2d_13">
      <path d="M 613.307377 320.4 
L 613.307377 43.2 
" clip-path="url(#pe1803d4b14)" style="fill: none; stroke: #b0b0b0; stroke-width: 0.8; stroke-linecap: square"/>
     </g>
     <g id="line2d_14">
      <g>
       <use xlink:href="#m2a98fabd90" x="613.307377" y="320.4" style="stroke: #000000; stroke-width: 0.8"/>
      </g>
     </g>
     <g id="text_7">
      <!-- 150 -->
      <g transform="translate(603.763627 334.998438) scale(0.1 -0.1)">
       <use xlink:href="#DejaVuSans-31"/>
       <use xlink:href="#DejaVuSans-35" transform="translate(63.623047 0)"/>
       <use xlink:href="#DejaVuSans-30" transform="translate(127.246094 0)"/>
      </g>
     </g>
    </g>
    <g id="xtick_8">
     <g id="line2d_15">
      <path d="M 692.983722 320.4 
L 692.983722 43.2 
" clip-path="url(#pe1803d4b14)" style="fill: none; stroke: #b0b0b0; stroke-width: 0.8; stroke-linecap: square"/>
     </g>
     <g id="line2d_16">
      <g>
       <use xlink:href="#m2a98fabd90" x="692.983722" y="320.4" style="stroke: #000000; stroke-width: 0.8"/>
      </g>
     </g>
     <g id="text_8">
      <!-- 175 -->
      <g transform="translate(683.439972 334.998438) scale(0.1 -0.1)">
       <use xlink:href="#DejaVuSans-31"/>
       <use xlink:href="#DejaVuSans-37" transform="translate(63.623047 0)"/>
       <use xlink:href="#DejaVuSans-35" transform="translate(127.246094 0)"/>
      </g>
     </g>
    </g>
    <g id="xtick_9">
     <g id="line2d_17">
      <path d="M 772.660067 320.4 
L 772.660067 43.2 
" clip-path="url(#pe1803d4b14)" style="fill: none; stroke: #b0b0b0; stroke-width: 0.8; stroke-linecap: square"/>
     </g>
     <g id="line2d_18">
      <g>
       <use xlink:href="#m2a98fabd90" x="772.660067" y="320.4" style="stroke: #000000; stroke-width: 0.8"/>
      </g>
     </g>
     <g id="text_9">
      <!-- 200 -->
      <g transform="translate(763.116317 334.998438) scale(0.1 -0.1)">
       <use xlink:href="#DejaVuSans-32"/>
       <use xlink:href="#DejaVuSans-30" transform="translate(63.623047 0)"/>
       <use xlink:href="#DejaVuSans-30" transform="translate(127.246094 0)"/>
      </g>
     </g>
    </g>
    <g id="text_10">
     <!-- Iteration -->
     <g transform="translate(421.591406 348.676562) scale(0.1 -0.1)">
      <defs>
       <path id="DejaVuSans-49" d="M 628 4666 
L 1259 4666 
L 1259 0 
L 628 0 
L 628 4666 
z
" transform="scale(0.015625)"/>
       <path id="DejaVuSans-74" d="M 1172 4494 
L 1172 3500 
L 2356 3500 
L 2356 3053 
L 1172 3053 
L 1172 1153 
Q 1172 725 1289 603 
Q 1406 481 1766 481 
L 2356 481 
L 2356 0 
L 1766 0 
Q 1100 0 847 248 
Q 594 497 594 1153 
L 594 3053 
L 172 3053 
L 172 3500 
L 594 3500 
L 594 4494 
L 1172 4494 
z
" transform="scale(0.015625)"/>
       <path id="DejaVuSans-65" d="M 3597 1894 
L 3597 1613 
L 953 1613 
Q 991 1019 1311 708 
Q 1631 397 2203 397 
Q 2534 397 2845 478 
Q 3156 559 3463 722 
L 3463 178 
Q 3153 47 2828 -22 
Q 2503 -91 2169 -91 
Q 1331 -91 842 396 
Q 353 884 353 1716 
Q 353 2575 817 3079 
Q 1281 3584 2069 3584 
Q 2775 3584 3186 3129 
Q 3597 2675 3597 1894 
z
M 3022 2063 
Q 3016 2534 2758 2815 
Q 2500 3097 2075 3097 
Q 1594 3097 1305 2825 
Q 1016 2553 972 2059 
L 3022 2063 
z
" transform="scale(0.015625)"/>
       <path id="DejaVuSans-72" d="M 2631 2963 
Q 2534 3019 2420 3045 
Q 2306 3072 2169 3072 
Q 1681 3072 1420 2755 
Q 1159 2438 1159 1844 
L 1159 0 
L 581 0 
L 581 3500 
L 1159 3500 
L 1159 2956 
Q 1341 3275 1631 3429 
Q 1922 3584 2338 3584 
Q 2397 3584 2469 3576 
Q 2541 3569 2628 3553 
L 2631 2963 
z
" transform="scale(0.015625)"/>
       <path id="DejaVuSans-61" d="M 2194 1759 
Q 1497 1759 1228 1600 
Q 959 1441 959 1056 
Q 959 750 1161 570 
Q 1363 391 1709 391 
Q 2188 391 2477 730 
Q 2766 1069 2766 1631 
L 2766 1759 
L 2194 1759 
z
M 3341 1997 
L 3341 0 
L 2766 0 
L 2766 531 
Q 2569 213 2275 61 
Q 1981 -91 1556 -91 
Q 1019 -91 701 211 
Q 384 513 384 1019 
Q 384 1609 779 1909 
Q 1175 2209 1959 2209 
L 2766 2209 
L 2766 2266 
Q 2766 2663 2505 2880 
Q 2244 3097 1772 3097 
Q 1472 3097 1187 3025 
Q 903 2953 641 2809 
L 641 3341 
Q 956 3463 1253 3523 
Q 1550 3584 1831 3584 
Q 2591 3584 2966 3190 
Q 3341 2797 3341 1997 
z
" transform="scale(0.015625)"/>
       <path id="DejaVuSans-69" d="M 603 3500 
L 1178 3500 
L 1178 0 
L 603 0 
L 603 3500 
z
M 603 4863 
L 1178 4863 
L 1178 4134 
L 603 4134 
L 603 4863 
z
" transform="scale(0.015625)"/>
       <path id="DejaVuSans-6f" d="M 1959 3097 
Q 1497 3097 1228 2736 
Q 959 2375 959 1747 
Q 959 1119 1226 758 
Q 1494 397 1959 397 
Q 2419 397 2687 759 
Q 2956 1122 2956 1747 
Q 2956 2369 2687 2733 
Q 2419 3097 1959 3097 
z
M 1959 3584 
Q 2709 3584 3137 3096 
Q 3566 2609 3566 1747 
Q 3566 888 3137 398 
Q 2709 -91 1959 -91 
Q 1206 -91 779 398 
Q 353 888 353 1747 
Q 353 2609 779 3096 
Q 1206 3584 1959 3584 
z
" transform="scale(0.015625)"/>
       <path id="DejaVuSans-6e" d="M 3513 2113 
L 3513 0 
L 2938 0 
L 2938 2094 
Q 2938 2591 2744 2837 
Q 2550 3084 2163 3084 
Q 1697 3084 1428 2787 
Q 1159 2491 1159 1978 
L 1159 0 
L 581 0 
L 581 3500 
L 1159 3500 
L 1159 2956 
Q 1366 3272 1645 3428 
Q 1925 3584 2291 3584 
Q 2894 3584 3203 3211 
Q 3513 2838 3513 2113 
z
" transform="scale(0.015625)"/>
      </defs>
      <use xlink:href="#DejaVuSans-49"/>
      <use xlink:href="#DejaVuSans-74" transform="translate(29.492188 0)"/>
      <use xlink:href="#DejaVuSans-65" transform="translate(68.701172 0)"/>
      <use xlink:href="#DejaVuSans-72" transform="translate(130.224609 0)"/>
      <use xlink:href="#DejaVuSans-61" transform="translate(171.337891 0)"/>
      <use xlink:href="#DejaVuSans-74" transform="translate(232.617188 0)"/>
      <use xlink:href="#DejaVuSans-69" transform="translate(271.826172 0)"/>
      <use xlink:href="#DejaVuSans-6f" transform="translate(299.609375 0)"/>
      <use xlink:href="#DejaVuSans-6e" transform="translate(360.791016 0)"/>
     </g>
    </g>
   </g>
   <g id="matplotlib.axis_2">
    <g id="ytick_1">
     <g id="line2d_19">
      <path d="M 108 303.261799 
L 777.6 303.261799 
" clip-path="url(#pe1803d4b14)" style="fill: none; stroke: #b0b0b0; stroke-width: 0.8; stroke-linecap: square"/>
     </g>
     <g id="line2d_20">
      <defs>
       <path id="m18fb92d0cd" d="M 0 0 
L -3.5 0 
" style="stroke: #000000; stroke-width: 0.8"/>
      </defs>
      <g>
       <use xlink:href="#m18fb92d0cd" x="108" y="303.261799" style="stroke: #000000; stroke-width: 0.8"/>
      </g>
     </g>
     <g id="text_11">
      <!-- $\mathdefault{10^{-3}}$ -->
      <g transform="translate(77.5 307.061017) scale(0.1 -0.1)">
       <defs>
        <path id="DejaVuSans-2212" d="M 678 2272 
L 4684 2272 
L 4684 1741 
L 678 1741 
L 678 2272 
z
" transform="scale(0.015625)"/>
        <path id="DejaVuSans-33" d="M 2597 2516 
Q 3050 2419 3304 2112 
Q 3559 1806 3559 1356 
Q 3559 666 3084 287 
Q 2609 -91 1734 -91 
Q 1441 -91 1130 -33 
Q 819 25 488 141 
L 488 750 
Q 750 597 1062 519 
Q 1375 441 1716 441 
Q 2309 441 2620 675 
Q 2931 909 2931 1356 
Q 2931 1769 2642 2001 
Q 2353 2234 1838 2234 
L 1294 2234 
L 1294 2753 
L 1863 2753 
Q 2328 2753 2575 2939 
Q 2822 3125 2822 3475 
Q 2822 3834 2567 4026 
Q 2313 4219 1838 4219 
Q 1578 4219 1281 4162 
Q 984 4106 628 3988 
L 628 4550 
Q 988 4650 1302 4700 
Q 1616 4750 1894 4750 
Q 2613 4750 3031 4423 
Q 3450 4097 3450 3541 
Q 3450 3153 3228 2886 
Q 3006 2619 2597 2516 
z
" transform="scale(0.015625)"/>
       </defs>
       <use xlink:href="#DejaVuSans-31" transform="translate(0 0.765625)"/>
       <use xlink:href="#DejaVuSans-30" transform="translate(63.623047 0.765625)"/>
       <use xlink:href="#DejaVuSans-2212" transform="translate(128.203125 39.046875) scale(0.7)"/>
       <use xlink:href="#DejaVuSans-33" transform="translate(186.855469 39.046875) scale(0.7)"/>
      </g>
     </g>
    </g>
    <g id="ytick_2">
     <g id="line2d_21">
      <path d="M 108 222.683143 
L 777.6 222.683143 
" clip-path="url(#pe1803d4b14)" style="fill: none; stroke: #b0b0b0; stroke-width: 0.8; stroke-linecap: square"/>
     </g>
     <g id="line2d_22">
      <g>
       <use xlink:href="#m18fb92d0cd" x="108" y="222.683143" style="stroke: #000000; stroke-width: 0.8"/>
      </g>
     </g>
     <g id="text_12">
      <!-- $\mathdefault{10^{-2}}$ -->
      <g transform="translate(77.5 226.482362) scale(0.1 -0.1)">
       <use xlink:href="#DejaVuSans-31" transform="translate(0 0.765625)"/>
       <use xlink:href="#DejaVuSans-30" transform="translate(63.623047 0.765625)"/>
       <use xlink:href="#DejaVuSans-2212" transform="translate(128.203125 39.046875) scale(0.7)"/>
       <use xlink:href="#DejaVuSans-32" transform="translate(186.855469 39.046875) scale(0.7)"/>
      </g>
     </g>
    </g>
    <g id="ytick_3">
     <g id="line2d_23">
      <path d="M 108 142.104487 
L 777.6 142.104487 
" clip-path="url(#pe1803d4b14)" style="fill: none; stroke: #b0b0b0; stroke-width: 0.8; stroke-linecap: square"/>
     </g>
     <g id="line2d_24">
      <g>
       <use xlink:href="#m18fb92d0cd" x="108" y="142.104487" style="stroke: #000000; stroke-width: 0.8"/>
      </g>
     </g>
     <g id="text_13">
      <!-- $\mathdefault{10^{-1}}$ -->
      <g transform="translate(77.5 145.903706) scale(0.1 -0.1)">
       <use xlink:href="#DejaVuSans-31" transform="translate(0 0.684375)"/>
       <use xlink:href="#DejaVuSans-30" transform="translate(63.623047 0.684375)"/>
       <use xlink:href="#DejaVuSans-2212" transform="translate(128.203125 38.965625) scale(0.7)"/>
       <use xlink:href="#DejaVuSans-31" transform="translate(186.855469 38.965625) scale(0.7)"/>
      </g>
     </g>
    </g>
    <g id="ytick_4">
     <g id="line2d_25">
      <path d="M 108 61.525832 
L 777.6 61.525832 
" clip-path="url(#pe1803d4b14)" style="fill: none; stroke: #b0b0b0; stroke-width: 0.8; stroke-linecap: square"/>
     </g>
     <g id="line2d_26">
      <g>
       <use xlink:href="#m18fb92d0cd" x="108" y="61.525832" style="stroke: #000000; stroke-width: 0.8"/>
      </g>
     </g>
     <g id="text_14">
      <!-- $\mathdefault{10^{0}}$ -->
      <g transform="translate(83.4 65.325051) scale(0.1 -0.1)">
       <use xlink:href="#DejaVuSans-31" transform="translate(0 0.765625)"/>
       <use xlink:href="#DejaVuSans-30" transform="translate(63.623047 0.765625)"/>
       <use xlink:href="#DejaVuSans-30" transform="translate(128.203125 39.046875) scale(0.7)"/>
      </g>
     </g>
    </g>
    <g id="ytick_5">
     <g id="line2d_27">
      <defs>
       <path id="md780332281" d="M 0 0 
L -2 0 
" style="stroke: #000000; stroke-width: 0.6"/>
      </defs>
      <g>
       <use xlink:href="#md780332281" x="108" y="315.74359" style="stroke: #000000; stroke-width: 0.6"/>
      </g>
     </g>
    </g>
    <g id="ytick_6">
     <g id="line2d_28">
      <g>
       <use xlink:href="#md780332281" x="108" y="311.070677" style="stroke: #000000; stroke-width: 0.6"/>
      </g>
     </g>
    </g>
    <g id="ytick_7">
     <g id="line2d_29">
      <g>
       <use xlink:href="#md780332281" x="108" y="306.948876" style="stroke: #000000; stroke-width: 0.6"/>
      </g>
     </g>
    </g>
    <g id="ytick_8">
     <g id="line2d_30">
      <g>
       <use xlink:href="#md780332281" x="108" y="279.005206" style="stroke: #000000; stroke-width: 0.6"/>
      </g>
     </g>
    </g>
    <g id="ytick_9">
     <g id="line2d_31">
      <g>
       <use xlink:href="#md780332281" x="108" y="264.816009" style="stroke: #000000; stroke-width: 0.6"/>
      </g>
     </g>
    </g>
    <g id="ytick_10">
     <g id="line2d_32">
      <g>
       <use xlink:href="#md780332281" x="108" y="254.748614" style="stroke: #000000; stroke-width: 0.6"/>
      </g>
     </g>
    </g>
    <g id="ytick_11">
     <g id="line2d_33">
      <g>
       <use xlink:href="#md780332281" x="108" y="246.939735" style="stroke: #000000; stroke-width: 0.6"/>
      </g>
     </g>
    </g>
    <g id="ytick_12">
     <g id="line2d_34">
      <g>
       <use xlink:href="#md780332281" x="108" y="240.559417" style="stroke: #000000; stroke-width: 0.6"/>
      </g>
     </g>
    </g>
    <g id="ytick_13">
     <g id="line2d_35">
      <g>
       <use xlink:href="#md780332281" x="108" y="235.164935" style="stroke: #000000; stroke-width: 0.6"/>
      </g>
     </g>
    </g>
    <g id="ytick_14">
     <g id="line2d_36">
      <g>
       <use xlink:href="#md780332281" x="108" y="230.492022" style="stroke: #000000; stroke-width: 0.6"/>
      </g>
     </g>
    </g>
    <g id="ytick_15">
     <g id="line2d_37">
      <g>
       <use xlink:href="#md780332281" x="108" y="226.37022" style="stroke: #000000; stroke-width: 0.6"/>
      </g>
     </g>
    </g>
    <g id="ytick_16">
     <g id="line2d_38">
      <g>
       <use xlink:href="#md780332281" x="108" y="198.426551" style="stroke: #000000; stroke-width: 0.6"/>
      </g>
     </g>
    </g>
    <g id="ytick_17">
     <g id="line2d_39">
      <g>
       <use xlink:href="#md780332281" x="108" y="184.237354" style="stroke: #000000; stroke-width: 0.6"/>
      </g>
     </g>
    </g>
    <g id="ytick_18">
     <g id="line2d_40">
      <g>
       <use xlink:href="#md780332281" x="108" y="174.169958" style="stroke: #000000; stroke-width: 0.6"/>
      </g>
     </g>
    </g>
    <g id="ytick_19">
     <g id="line2d_41">
      <g>
       <use xlink:href="#md780332281" x="108" y="166.36108" style="stroke: #000000; stroke-width: 0.6"/>
      </g>
     </g>
    </g>
    <g id="ytick_20">
     <g id="line2d_42">
      <g>
       <use xlink:href="#md780332281" x="108" y="159.980761" style="stroke: #000000; stroke-width: 0.6"/>
      </g>
     </g>
    </g>
    <g id="ytick_21">
     <g id="line2d_43">
      <g>
       <use xlink:href="#md780332281" x="108" y="154.586279" style="stroke: #000000; stroke-width: 0.6"/>
      </g>
     </g>
    </g>
    <g id="ytick_22">
     <g id="line2d_44">
      <g>
       <use xlink:href="#md780332281" x="108" y="149.913366" style="stroke: #000000; stroke-width: 0.6"/>
      </g>
     </g>
    </g>
    <g id="ytick_23">
     <g id="line2d_45">
      <g>
       <use xlink:href="#md780332281" x="108" y="145.791565" style="stroke: #000000; stroke-width: 0.6"/>
      </g>
     </g>
    </g>
    <g id="ytick_24">
     <g id="line2d_46">
      <g>
       <use xlink:href="#md780332281" x="108" y="117.847895" style="stroke: #000000; stroke-width: 0.6"/>
      </g>
     </g>
    </g>
    <g id="ytick_25">
     <g id="line2d_47">
      <g>
       <use xlink:href="#md780332281" x="108" y="103.658698" style="stroke: #000000; stroke-width: 0.6"/>
      </g>
     </g>
    </g>
    <g id="ytick_26">
     <g id="line2d_48">
      <g>
       <use xlink:href="#md780332281" x="108" y="93.591303" style="stroke: #000000; stroke-width: 0.6"/>
      </g>
     </g>
    </g>
    <g id="ytick_27">
     <g id="line2d_49">
      <g>
       <use xlink:href="#md780332281" x="108" y="85.782424" style="stroke: #000000; stroke-width: 0.6"/>
      </g>
     </g>
    </g>
    <g id="ytick_28">
     <g id="line2d_50">
      <g>
       <use xlink:href="#md780332281" x="108" y="79.402106" style="stroke: #000000; stroke-width: 0.6"/>
      </g>
     </g>
    </g>
    <g id="ytick_29">
     <g id="line2d_51">
      <g>
       <use xlink:href="#md780332281" x="108" y="74.007624" style="stroke: #000000; stroke-width: 0.6"/>
      </g>
     </g>
    </g>
    <g id="ytick_30">
     <g id="line2d_52">
      <g>
       <use xlink:href="#md780332281" x="108" y="69.33471" style="stroke: #000000; stroke-width: 0.6"/>
      </g>
     </g>
    </g>
    <g id="ytick_31">
     <g id="line2d_53">
      <g>
       <use xlink:href="#md780332281" x="108" y="65.212909" style="stroke: #000000; stroke-width: 0.6"/>
      </g>
     </g>
    </g>
    <g id="text_15">
     <!-- Regret (log scale) -->
     <g transform="translate(71.420312 225.865625) rotate(-90) scale(0.1 -0.1)">
      <defs>
       <path id="DejaVuSans-52" d="M 2841 2188 
Q 3044 2119 3236 1894 
Q 3428 1669 3622 1275 
L 4263 0 
L 3584 0 
L 2988 1197 
Q 2756 1666 2539 1819 
Q 2322 1972 1947 1972 
L 1259 1972 
L 1259 0 
L 628 0 
L 628 4666 
L 2053 4666 
Q 2853 4666 3247 4331 
Q 3641 3997 3641 3322 
Q 3641 2881 3436 2590 
Q 3231 2300 2841 2188 
z
M 1259 4147 
L 1259 2491 
L 2053 2491 
Q 2509 2491 2742 2702 
Q 2975 2913 2975 3322 
Q 2975 3731 2742 3939 
Q 2509 4147 2053 4147 
L 1259 4147 
z
" transform="scale(0.015625)"/>
       <path id="DejaVuSans-67" d="M 2906 1791 
Q 2906 2416 2648 2759 
Q 2391 3103 1925 3103 
Q 1463 3103 1205 2759 
Q 947 2416 947 1791 
Q 947 1169 1205 825 
Q 1463 481 1925 481 
Q 2391 481 2648 825 
Q 2906 1169 2906 1791 
z
M 3481 434 
Q 3481 -459 3084 -895 
Q 2688 -1331 1869 -1331 
Q 1566 -1331 1297 -1286 
Q 1028 -1241 775 -1147 
L 775 -588 
Q 1028 -725 1275 -790 
Q 1522 -856 1778 -856 
Q 2344 -856 2625 -561 
Q 2906 -266 2906 331 
L 2906 616 
Q 2728 306 2450 153 
Q 2172 0 1784 0 
Q 1141 0 747 490 
Q 353 981 353 1791 
Q 353 2603 747 3093 
Q 1141 3584 1784 3584 
Q 2172 3584 2450 3431 
Q 2728 3278 2906 2969 
L 2906 3500 
L 3481 3500 
L 3481 434 
z
" transform="scale(0.015625)"/>
       <path id="DejaVuSans-20" transform="scale(0.015625)"/>
       <path id="DejaVuSans-28" d="M 1984 4856 
Q 1566 4138 1362 3434 
Q 1159 2731 1159 2009 
Q 1159 1288 1364 580 
Q 1569 -128 1984 -844 
L 1484 -844 
Q 1016 -109 783 600 
Q 550 1309 550 2009 
Q 550 2706 781 3412 
Q 1013 4119 1484 4856 
L 1984 4856 
z
" transform="scale(0.015625)"/>
       <path id="DejaVuSans-6c" d="M 603 4863 
L 1178 4863 
L 1178 0 
L 603 0 
L 603 4863 
z
" transform="scale(0.015625)"/>
       <path id="DejaVuSans-73" d="M 2834 3397 
L 2834 2853 
Q 2591 2978 2328 3040 
Q 2066 3103 1784 3103 
Q 1356 3103 1142 2972 
Q 928 2841 928 2578 
Q 928 2378 1081 2264 
Q 1234 2150 1697 2047 
L 1894 2003 
Q 2506 1872 2764 1633 
Q 3022 1394 3022 966 
Q 3022 478 2636 193 
Q 2250 -91 1575 -91 
Q 1294 -91 989 -36 
Q 684 19 347 128 
L 347 722 
Q 666 556 975 473 
Q 1284 391 1588 391 
Q 1994 391 2212 530 
Q 2431 669 2431 922 
Q 2431 1156 2273 1281 
Q 2116 1406 1581 1522 
L 1381 1569 
Q 847 1681 609 1914 
Q 372 2147 372 2553 
Q 372 3047 722 3315 
Q 1072 3584 1716 3584 
Q 2034 3584 2315 3537 
Q 2597 3491 2834 3397 
z
" transform="scale(0.015625)"/>
       <path id="DejaVuSans-63" d="M 3122 3366 
L 3122 2828 
Q 2878 2963 2633 3030 
Q 2388 3097 2138 3097 
Q 1578 3097 1268 2742 
Q 959 2388 959 1747 
Q 959 1106 1268 751 
Q 1578 397 2138 397 
Q 2388 397 2633 464 
Q 2878 531 3122 666 
L 3122 134 
Q 2881 22 2623 -34 
Q 2366 -91 2075 -91 
Q 1284 -91 818 406 
Q 353 903 353 1747 
Q 353 2603 823 3093 
Q 1294 3584 2113 3584 
Q 2378 3584 2631 3529 
Q 2884 3475 3122 3366 
z
" transform="scale(0.015625)"/>
       <path id="DejaVuSans-29" d="M 513 4856 
L 1013 4856 
Q 1481 4119 1714 3412 
Q 1947 2706 1947 2009 
Q 1947 1309 1714 600 
Q 1481 -109 1013 -844 
L 513 -844 
Q 928 -128 1133 580 
Q 1338 1288 1338 2009 
Q 1338 2731 1133 3434 
Q 928 4138 513 4856 
z
" transform="scale(0.015625)"/>
      </defs>
      <use xlink:href="#DejaVuSans-52"/>
      <use xlink:href="#DejaVuSans-65" transform="translate(64.982422 0)"/>
      <use xlink:href="#DejaVuSans-67" transform="translate(126.505859 0)"/>
      <use xlink:href="#DejaVuSans-72" transform="translate(189.982422 0)"/>
      <use xlink:href="#DejaVuSans-65" transform="translate(228.845703 0)"/>
      <use xlink:href="#DejaVuSans-74" transform="translate(290.369141 0)"/>
      <use xlink:href="#DejaVuSans-20" transform="translate(329.578125 0)"/>
      <use xlink:href="#DejaVuSans-28" transform="translate(361.365234 0)"/>
      <use xlink:href="#DejaVuSans-6c" transform="translate(400.378906 0)"/>
      <use xlink:href="#DejaVuSans-6f" transform="translate(428.162109 0)"/>
      <use xlink:href="#DejaVuSans-67" transform="translate(489.34375 0)"/>
      <use xlink:href="#DejaVuSans-20" transform="translate(552.820312 0)"/>
      <use xlink:href="#DejaVuSans-73" transform="translate(584.607422 0)"/>
      <use xlink:href="#DejaVuSans-63" transform="translate(636.707031 0)"/>
      <use xlink:href="#DejaVuSans-61" transform="translate(691.6875 0)"/>
      <use xlink:href="#DejaVuSans-6c" transform="translate(752.966797 0)"/>
      <use xlink:href="#DejaVuSans-65" transform="translate(780.75 0)"/>
      <use xlink:href="#DejaVuSans-29" transform="translate(842.273438 0)"/>
     </g>
    </g>
   </g>
   <g id="line2d_54">
    <path d="M 138.436364 68.200246 
L 336.033698 68.200246 
L 339.220752 68.631129 
L 345.59486 68.631129 
L 348.781913 69.759966 
L 377.465397 69.759966 
L 380.652451 70.426794 
L 453.954688 70.426794 
L 457.141742 70.964152 
L 463.51585 70.964152 
L 466.702903 71.155185 
L 473.077011 71.158 
L 476.264065 71.857345 
L 479.451119 71.857345 
L 482.638172 73.545584 
L 489.01228 73.545584 
L 492.199334 76.410657 
L 508.134603 76.410657 
L 511.321656 79.259285 
L 520.882818 79.259285 
L 524.069871 79.48906 
L 527.256925 79.855453 
L 536.818087 79.855453 
L 540.00514 81.638071 
L 543.192194 81.660139 
L 546.379248 81.87234 
L 552.753356 81.87234 
L 555.940409 89.858392 
L 559.127463 89.860058 
L 562.314517 96.656012 
L 581.43684 96.665919 
L 584.623893 96.867473 
L 587.810947 97.620094 
L 590.998001 99.670799 
L 613.307377 99.670799 
L 616.494431 102.160733 
L 622.868539 102.161823 
L 626.055593 106.232423 
L 664.300238 106.438827 
L 667.487292 128.430487 
L 670.674346 186.408633 
L 692.983722 186.408633 
L 696.170776 188.632789 
L 699.35783 191.084575 
L 712.106045 191.084575 
L 715.293099 191.216613 
L 747.163636 191.216613 
L 747.163636 191.216613 
" clip-path="url(#pe1803d4b14)" style="fill: none; stroke: #ff0000; stroke-width: 1.5; stroke-linecap: square"/>
   </g>
   <g id="line2d_55">
    <path d="M 138.436364 63.195889 
L 157.558686 63.195889 
L 160.74574 66.493587 
L 163.932794 67.092109 
L 167.119848 67.092109 
L 170.306901 71.386448 
L 176.681009 71.386448 
L 179.868063 73.494103 
L 192.616278 73.494103 
L 195.803332 73.763525 
L 198.990386 73.763525 
L 205.364493 74.037332 
L 208.551547 75.813473 
L 214.925654 75.813473 
L 218.112708 85.367056 
L 224.486816 85.367056 
L 227.67387 86.341829 
L 230.860923 87.953668 
L 234.047977 95.673781 
L 237.235031 95.673781 
L 240.422085 95.814144 
L 243.609139 96.794446 
L 246.796192 100.463859 
L 253.1703 100.463859 
L 256.357354 101.195468 
L 272.292623 101.195468 
L 275.479676 102.088717 
L 278.66673 112.284726 
L 281.853784 119.373305 
L 297.789053 119.373305 
L 300.976107 119.97876 
L 304.16316 119.97876 
L 307.350214 123.768031 
L 310.537268 123.768031 
L 313.724322 124.052979 
L 320.098429 124.052979 
L 323.285483 129.490379 
L 326.472537 129.511576 
L 329.659591 138.28023 
L 332.846644 142.873289 
L 351.968967 142.873289 
L 355.156021 170.167107 
L 358.343075 170.167107 
L 358.350633 361 
L 358.350633 361 
" clip-path="url(#pe1803d4b14)" style="fill: none; stroke: #0000ff; stroke-width: 1.5; stroke-linecap: square"/>
   </g>
   <g id="line2d_56">
    <path d="M 138.436364 74.443321 
L 336.033698 74.443321 
L 339.220752 75.6379 
L 342.407806 75.949667 
L 345.59486 76.587326 
L 348.781913 82.560463 
L 371.09129 82.560463 
L 374.278344 84.455423 
L 396.58772 84.455423 
L 399.774774 93.158441 
L 402.961828 102.636876 
L 415.710043 102.636876 
L 418.897097 110.024231 
L 431.645312 110.024231 
L 434.832366 111.170229 
L 438.019419 111.562234 
L 441.206473 120.834949 
L 444.393527 128.642201 
L 447.580581 155.532845 
L 450.767634 155.532845 
L 453.954688 158.960934 
L 457.141742 166.391686 
L 460.328796 194.436208 
L 463.51585 196.420334 
L 466.702903 203.411139 
L 469.889957 203.411139 
L 473.077011 223.824343 
L 473.082447 361 
L 473.082447 361 
" clip-path="url(#pe1803d4b14)" style="fill: none; stroke: #008000; stroke-width: 1.5; stroke-linecap: square"/>
   </g>
   <g id="patch_3">
    <path d="M 108 320.4 
L 108 43.2 
" style="fill: none; stroke: #000000; stroke-width: 0.8; stroke-linejoin: miter; stroke-linecap: square"/>
   </g>
   <g id="patch_4">
    <path d="M 777.6 320.4 
L 777.6 43.2 
" style="fill: none; stroke: #000000; stroke-width: 0.8; stroke-linejoin: miter; stroke-linecap: square"/>
   </g>
   <g id="patch_5">
    <path d="M 108 320.4 
L 777.6 320.4 
" style="fill: none; stroke: #000000; stroke-width: 0.8; stroke-linejoin: miter; stroke-linecap: square"/>
   </g>
   <g id="patch_6">
    <path d="M 108 43.2 
L 777.6 43.2 
" style="fill: none; stroke: #000000; stroke-width: 0.8; stroke-linejoin: miter; stroke-linecap: square"/>
   </g>
   <g id="text_16">
    <!-- Mean Regret across 10 runs | 6-hartmann (kappas=[11.0, 11.0, 11.0]) -->
    <g transform="translate(232.274063 37.2) scale(0.12 -0.12)">
     <defs>
      <path id="DejaVuSans-4d" d="M 628 4666 
L 1569 4666 
L 2759 1491 
L 3956 4666 
L 4897 4666 
L 4897 0 
L 4281 0 
L 4281 4097 
L 3078 897 
L 2444 897 
L 1241 4097 
L 1241 0 
L 628 0 
L 628 4666 
z
" transform="scale(0.015625)"/>
      <path id="DejaVuSans-75" d="M 544 1381 
L 544 3500 
L 1119 3500 
L 1119 1403 
Q 1119 906 1312 657 
Q 1506 409 1894 409 
Q 2359 409 2629 706 
Q 2900 1003 2900 1516 
L 2900 3500 
L 3475 3500 
L 3475 0 
L 2900 0 
L 2900 538 
Q 2691 219 2414 64 
Q 2138 -91 1772 -91 
Q 1169 -91 856 284 
Q 544 659 544 1381 
z
M 1991 3584 
L 1991 3584 
z
" transform="scale(0.015625)"/>
      <path id="DejaVuSans-7c" d="M 1344 4891 
L 1344 -1509 
L 813 -1509 
L 813 4891 
L 1344 4891 
z
" transform="scale(0.015625)"/>
      <path id="DejaVuSans-36" d="M 2113 2584 
Q 1688 2584 1439 2293 
Q 1191 2003 1191 1497 
Q 1191 994 1439 701 
Q 1688 409 2113 409 
Q 2538 409 2786 701 
Q 3034 994 3034 1497 
Q 3034 2003 2786 2293 
Q 2538 2584 2113 2584 
z
M 3366 4563 
L 3366 3988 
Q 3128 4100 2886 4159 
Q 2644 4219 2406 4219 
Q 1781 4219 1451 3797 
Q 1122 3375 1075 2522 
Q 1259 2794 1537 2939 
Q 1816 3084 2150 3084 
Q 2853 3084 3261 2657 
Q 3669 2231 3669 1497 
Q 3669 778 3244 343 
Q 2819 -91 2113 -91 
Q 1303 -91 875 529 
Q 447 1150 447 2328 
Q 447 3434 972 4092 
Q 1497 4750 2381 4750 
Q 2619 4750 2861 4703 
Q 3103 4656 3366 4563 
z
" transform="scale(0.015625)"/>
      <path id="DejaVuSans-2d" d="M 313 2009 
L 1997 2009 
L 1997 1497 
L 313 1497 
L 313 2009 
z
" transform="scale(0.015625)"/>
      <path id="DejaVuSans-68" d="M 3513 2113 
L 3513 0 
L 2938 0 
L 2938 2094 
Q 2938 2591 2744 2837 
Q 2550 3084 2163 3084 
Q 1697 3084 1428 2787 
Q 1159 2491 1159 1978 
L 1159 0 
L 581 0 
L 581 4863 
L 1159 4863 
L 1159 2956 
Q 1366 3272 1645 3428 
Q 1925 3584 2291 3584 
Q 2894 3584 3203 3211 
Q 3513 2838 3513 2113 
z
" transform="scale(0.015625)"/>
      <path id="DejaVuSans-6d" d="M 3328 2828 
Q 3544 3216 3844 3400 
Q 4144 3584 4550 3584 
Q 5097 3584 5394 3201 
Q 5691 2819 5691 2113 
L 5691 0 
L 5113 0 
L 5113 2094 
Q 5113 2597 4934 2840 
Q 4756 3084 4391 3084 
Q 3944 3084 3684 2787 
Q 3425 2491 3425 1978 
L 3425 0 
L 2847 0 
L 2847 2094 
Q 2847 2600 2669 2842 
Q 2491 3084 2119 3084 
Q 1678 3084 1418 2786 
Q 1159 2488 1159 1978 
L 1159 0 
L 581 0 
L 581 3500 
L 1159 3500 
L 1159 2956 
Q 1356 3278 1631 3431 
Q 1906 3584 2284 3584 
Q 2666 3584 2933 3390 
Q 3200 3197 3328 2828 
z
" transform="scale(0.015625)"/>
      <path id="DejaVuSans-6b" d="M 581 4863 
L 1159 4863 
L 1159 1991 
L 2875 3500 
L 3609 3500 
L 1753 1863 
L 3688 0 
L 2938 0 
L 1159 1709 
L 1159 0 
L 581 0 
L 581 4863 
z
" transform="scale(0.015625)"/>
      <path id="DejaVuSans-70" d="M 1159 525 
L 1159 -1331 
L 581 -1331 
L 581 3500 
L 1159 3500 
L 1159 2969 
Q 1341 3281 1617 3432 
Q 1894 3584 2278 3584 
Q 2916 3584 3314 3078 
Q 3713 2572 3713 1747 
Q 3713 922 3314 415 
Q 2916 -91 2278 -91 
Q 1894 -91 1617 61 
Q 1341 213 1159 525 
z
M 3116 1747 
Q 3116 2381 2855 2742 
Q 2594 3103 2138 3103 
Q 1681 3103 1420 2742 
Q 1159 2381 1159 1747 
Q 1159 1113 1420 752 
Q 1681 391 2138 391 
Q 2594 391 2855 752 
Q 3116 1113 3116 1747 
z
" transform="scale(0.015625)"/>
      <path id="DejaVuSans-3d" d="M 678 2906 
L 4684 2906 
L 4684 2381 
L 678 2381 
L 678 2906 
z
M 678 1631 
L 4684 1631 
L 4684 1100 
L 678 1100 
L 678 1631 
z
" transform="scale(0.015625)"/>
      <path id="DejaVuSans-5b" d="M 550 4863 
L 1875 4863 
L 1875 4416 
L 1125 4416 
L 1125 -397 
L 1875 -397 
L 1875 -844 
L 550 -844 
L 550 4863 
z
" transform="scale(0.015625)"/>
      <path id="DejaVuSans-2e" d="M 684 794 
L 1344 794 
L 1344 0 
L 684 0 
L 684 794 
z
" transform="scale(0.015625)"/>
      <path id="DejaVuSans-2c" d="M 750 794 
L 1409 794 
L 1409 256 
L 897 -744 
L 494 -744 
L 750 256 
L 750 794 
z
" transform="scale(0.015625)"/>
      <path id="DejaVuSans-5d" d="M 1947 4863 
L 1947 -844 
L 622 -844 
L 622 -397 
L 1369 -397 
L 1369 4416 
L 622 4416 
L 622 4863 
L 1947 4863 
z
" transform="scale(0.015625)"/>
     </defs>
     <use xlink:href="#DejaVuSans-4d"/>
     <use xlink:href="#DejaVuSans-65" transform="translate(86.279297 0)"/>
     <use xlink:href="#DejaVuSans-61" transform="translate(147.802734 0)"/>
     <use xlink:href="#DejaVuSans-6e" transform="translate(209.082031 0)"/>
     <use xlink:href="#DejaVuSans-20" transform="translate(272.460938 0)"/>
     <use xlink:href="#DejaVuSans-52" transform="translate(304.248047 0)"/>
     <use xlink:href="#DejaVuSans-65" transform="translate(369.230469 0)"/>
     <use xlink:href="#DejaVuSans-67" transform="translate(430.753906 0)"/>
     <use xlink:href="#DejaVuSans-72" transform="translate(494.230469 0)"/>
     <use xlink:href="#DejaVuSans-65" transform="translate(533.09375 0)"/>
     <use xlink:href="#DejaVuSans-74" transform="translate(594.617188 0)"/>
     <use xlink:href="#DejaVuSans-20" transform="translate(633.826172 0)"/>
     <use xlink:href="#DejaVuSans-61" transform="translate(665.613281 0)"/>
     <use xlink:href="#DejaVuSans-63" transform="translate(726.892578 0)"/>
     <use xlink:href="#DejaVuSans-72" transform="translate(781.873047 0)"/>
     <use xlink:href="#DejaVuSans-6f" transform="translate(820.736328 0)"/>
     <use xlink:href="#DejaVuSans-73" transform="translate(881.917969 0)"/>
     <use xlink:href="#DejaVuSans-73" transform="translate(934.017578 0)"/>
     <use xlink:href="#DejaVuSans-20" transform="translate(986.117188 0)"/>
     <use xlink:href="#DejaVuSans-31" transform="translate(1017.904297 0)"/>
     <use xlink:href="#DejaVuSans-30" transform="translate(1081.527344 0)"/>
     <use xlink:href="#DejaVuSans-20" transform="translate(1145.150391 0)"/>
     <use xlink:href="#DejaVuSans-72" transform="translate(1176.9375 0)"/>
     <use xlink:href="#DejaVuSans-75" transform="translate(1218.050781 0)"/>
     <use xlink:href="#DejaVuSans-6e" transform="translate(1281.429688 0)"/>
     <use xlink:href="#DejaVuSans-73" transform="translate(1344.808594 0)"/>
     <use xlink:href="#DejaVuSans-20" transform="translate(1396.908203 0)"/>
     <use xlink:href="#DejaVuSans-7c" transform="translate(1428.695312 0)"/>
     <use xlink:href="#DejaVuSans-20" transform="translate(1462.386719 0)"/>
     <use xlink:href="#DejaVuSans-36" transform="translate(1494.173828 0)"/>
     <use xlink:href="#DejaVuSans-2d" transform="translate(1557.796875 0)"/>
     <use xlink:href="#DejaVuSans-68" transform="translate(1593.880859 0)"/>
     <use xlink:href="#DejaVuSans-61" transform="translate(1657.259766 0)"/>
     <use xlink:href="#DejaVuSans-72" transform="translate(1718.539062 0)"/>
     <use xlink:href="#DejaVuSans-74" transform="translate(1759.652344 0)"/>
     <use xlink:href="#DejaVuSans-6d" transform="translate(1798.861328 0)"/>
     <use xlink:href="#DejaVuSans-61" transform="translate(1896.273438 0)"/>
     <use xlink:href="#DejaVuSans-6e" transform="translate(1957.552734 0)"/>
     <use xlink:href="#DejaVuSans-6e" transform="translate(2020.931641 0)"/>
     <use xlink:href="#DejaVuSans-20" transform="translate(2084.310547 0)"/>
     <use xlink:href="#DejaVuSans-28" transform="translate(2116.097656 0)"/>
     <use xlink:href="#DejaVuSans-6b" transform="translate(2155.111328 0)"/>
     <use xlink:href="#DejaVuSans-61" transform="translate(2211.271484 0)"/>
     <use xlink:href="#DejaVuSans-70" transform="translate(2272.550781 0)"/>
     <use xlink:href="#DejaVuSans-70" transform="translate(2336.027344 0)"/>
     <use xlink:href="#DejaVuSans-61" transform="translate(2399.503906 0)"/>
     <use xlink:href="#DejaVuSans-73" transform="translate(2460.783203 0)"/>
     <use xlink:href="#DejaVuSans-3d" transform="translate(2512.882812 0)"/>
     <use xlink:href="#DejaVuSans-5b" transform="translate(2596.671875 0)"/>
     <use xlink:href="#DejaVuSans-31" transform="translate(2635.685547 0)"/>
     <use xlink:href="#DejaVuSans-31" transform="translate(2699.308594 0)"/>
     <use xlink:href="#DejaVuSans-2e" transform="translate(2762.931641 0)"/>
     <use xlink:href="#DejaVuSans-30" transform="translate(2794.71875 0)"/>
     <use xlink:href="#DejaVuSans-2c" transform="translate(2858.341797 0)"/>
     <use xlink:href="#DejaVuSans-20" transform="translate(2890.128906 0)"/>
     <use xlink:href="#DejaVuSans-31" transform="translate(2921.916016 0)"/>
     <use xlink:href="#DejaVuSans-31" transform="translate(2985.539062 0)"/>
     <use xlink:href="#DejaVuSans-2e" transform="translate(3049.162109 0)"/>
     <use xlink:href="#DejaVuSans-30" transform="translate(3080.949219 0)"/>
     <use xlink:href="#DejaVuSans-2c" transform="translate(3144.572266 0)"/>
     <use xlink:href="#DejaVuSans-20" transform="translate(3176.359375 0)"/>
     <use xlink:href="#DejaVuSans-31" transform="translate(3208.146484 0)"/>
     <use xlink:href="#DejaVuSans-31" transform="translate(3271.769531 0)"/>
     <use xlink:href="#DejaVuSans-2e" transform="translate(3335.392578 0)"/>
     <use xlink:href="#DejaVuSans-30" transform="translate(3367.179688 0)"/>
     <use xlink:href="#DejaVuSans-5d" transform="translate(3430.802734 0)"/>
     <use xlink:href="#DejaVuSans-29" transform="translate(3469.816406 0)"/>
    </g>
   </g>
   <g id="legend_1">
    <g id="patch_7">
     <path d="M 630.032748 86.544634 
L 771.769 86.544634 
Q 773.435 86.544634 773.435 84.878634 
L 773.435 49.031 
Q 773.435 47.365 771.769 47.365 
L 630.032748 47.365 
Q 628.366748 47.365 628.366748 49.031 
L 628.366748 84.878634 
Q 628.366748 86.544634 630.032748 86.544634 
z
" style="fill: #ffffff; opacity: 0.8; stroke: #cccccc; stroke-linejoin: miter"/>
    </g>
    <g id="line2d_57">
     <path d="M 631.698748 54.110998 
L 640.028748 54.110998 
L 648.358748 54.110998 
" style="fill: none; stroke: #ff0000; stroke-width: 1.5; stroke-linecap: square"/>
    </g>
    <g id="text_17">
     <!-- ExactGPModel Mean Regret -->
     <g transform="translate(655.022748 57.026498) scale(0.0833 -0.0833)">
      <defs>
       <path id="DejaVuSans-45" d="M 628 4666 
L 3578 4666 
L 3578 4134 
L 1259 4134 
L 1259 2753 
L 3481 2753 
L 3481 2222 
L 1259 2222 
L 1259 531 
L 3634 531 
L 3634 0 
L 628 0 
L 628 4666 
z
" transform="scale(0.015625)"/>
       <path id="DejaVuSans-78" d="M 3513 3500 
L 2247 1797 
L 3578 0 
L 2900 0 
L 1881 1375 
L 863 0 
L 184 0 
L 1544 1831 
L 300 3500 
L 978 3500 
L 1906 2253 
L 2834 3500 
L 3513 3500 
z
" transform="scale(0.015625)"/>
       <path id="DejaVuSans-47" d="M 3809 666 
L 3809 1919 
L 2778 1919 
L 2778 2438 
L 4434 2438 
L 4434 434 
Q 4069 175 3628 42 
Q 3188 -91 2688 -91 
Q 1594 -91 976 548 
Q 359 1188 359 2328 
Q 359 3472 976 4111 
Q 1594 4750 2688 4750 
Q 3144 4750 3555 4637 
Q 3966 4525 4313 4306 
L 4313 3634 
Q 3963 3931 3569 4081 
Q 3175 4231 2741 4231 
Q 1884 4231 1454 3753 
Q 1025 3275 1025 2328 
Q 1025 1384 1454 906 
Q 1884 428 2741 428 
Q 3075 428 3337 486 
Q 3600 544 3809 666 
z
" transform="scale(0.015625)"/>
       <path id="DejaVuSans-50" d="M 1259 4147 
L 1259 2394 
L 2053 2394 
Q 2494 2394 2734 2622 
Q 2975 2850 2975 3272 
Q 2975 3691 2734 3919 
Q 2494 4147 2053 4147 
L 1259 4147 
z
M 628 4666 
L 2053 4666 
Q 2838 4666 3239 4311 
Q 3641 3956 3641 3272 
Q 3641 2581 3239 2228 
Q 2838 1875 2053 1875 
L 1259 1875 
L 1259 0 
L 628 0 
L 628 4666 
z
" transform="scale(0.015625)"/>
       <path id="DejaVuSans-64" d="M 2906 2969 
L 2906 4863 
L 3481 4863 
L 3481 0 
L 2906 0 
L 2906 525 
Q 2725 213 2448 61 
Q 2172 -91 1784 -91 
Q 1150 -91 751 415 
Q 353 922 353 1747 
Q 353 2572 751 3078 
Q 1150 3584 1784 3584 
Q 2172 3584 2448 3432 
Q 2725 3281 2906 2969 
z
M 947 1747 
Q 947 1113 1208 752 
Q 1469 391 1925 391 
Q 2381 391 2643 752 
Q 2906 1113 2906 1747 
Q 2906 2381 2643 2742 
Q 2381 3103 1925 3103 
Q 1469 3103 1208 2742 
Q 947 2381 947 1747 
z
" transform="scale(0.015625)"/>
      </defs>
      <use xlink:href="#DejaVuSans-45"/>
      <use xlink:href="#DejaVuSans-78" transform="translate(63.183594 0)"/>
      <use xlink:href="#DejaVuSans-61" transform="translate(122.363281 0)"/>
      <use xlink:href="#DejaVuSans-63" transform="translate(183.642578 0)"/>
      <use xlink:href="#DejaVuSans-74" transform="translate(238.623047 0)"/>
      <use xlink:href="#DejaVuSans-47" transform="translate(277.832031 0)"/>
      <use xlink:href="#DejaVuSans-50" transform="translate(355.322266 0)"/>
      <use xlink:href="#DejaVuSans-4d" transform="translate(415.625 0)"/>
      <use xlink:href="#DejaVuSans-6f" transform="translate(501.904297 0)"/>
      <use xlink:href="#DejaVuSans-64" transform="translate(563.085938 0)"/>
      <use xlink:href="#DejaVuSans-65" transform="translate(626.5625 0)"/>
      <use xlink:href="#DejaVuSans-6c" transform="translate(688.085938 0)"/>
      <use xlink:href="#DejaVuSans-20" transform="translate(715.869141 0)"/>
      <use xlink:href="#DejaVuSans-4d" transform="translate(747.65625 0)"/>
      <use xlink:href="#DejaVuSans-65" transform="translate(833.935547 0)"/>
      <use xlink:href="#DejaVuSans-61" transform="translate(895.458984 0)"/>
      <use xlink:href="#DejaVuSans-6e" transform="translate(956.738281 0)"/>
      <use xlink:href="#DejaVuSans-20" transform="translate(1020.117188 0)"/>
      <use xlink:href="#DejaVuSans-52" transform="translate(1051.904297 0)"/>
      <use xlink:href="#DejaVuSans-65" transform="translate(1116.886719 0)"/>
      <use xlink:href="#DejaVuSans-67" transform="translate(1178.410156 0)"/>
      <use xlink:href="#DejaVuSans-72" transform="translate(1241.886719 0)"/>
      <use xlink:href="#DejaVuSans-65" transform="translate(1280.75 0)"/>
      <use xlink:href="#DejaVuSans-74" transform="translate(1342.273438 0)"/>
     </g>
    </g>
    <g id="line2d_58">
     <path d="M 631.698748 66.337877 
L 640.028748 66.337877 
L 648.358748 66.337877 
" style="fill: none; stroke: #0000ff; stroke-width: 1.5; stroke-linecap: square"/>
    </g>
    <g id="text_18">
     <!-- AdditiveGP Mean Regret -->
     <g transform="translate(655.022748 69.253377) scale(0.0833 -0.0833)">
      <defs>
       <path id="DejaVuSans-41" d="M 2188 4044 
L 1331 1722 
L 3047 1722 
L 2188 4044 
z
M 1831 4666 
L 2547 4666 
L 4325 0 
L 3669 0 
L 3244 1197 
L 1141 1197 
L 716 0 
L 50 0 
L 1831 4666 
z
" transform="scale(0.015625)"/>
       <path id="DejaVuSans-76" d="M 191 3500 
L 800 3500 
L 1894 563 
L 2988 3500 
L 3597 3500 
L 2284 0 
L 1503 0 
L 191 3500 
z
" transform="scale(0.015625)"/>
      </defs>
      <use xlink:href="#DejaVuSans-41"/>
      <use xlink:href="#DejaVuSans-64" transform="translate(66.658203 0)"/>
      <use xlink:href="#DejaVuSans-64" transform="translate(130.134766 0)"/>
      <use xlink:href="#DejaVuSans-69" transform="translate(193.611328 0)"/>
      <use xlink:href="#DejaVuSans-74" transform="translate(221.394531 0)"/>
      <use xlink:href="#DejaVuSans-69" transform="translate(260.603516 0)"/>
      <use xlink:href="#DejaVuSans-76" transform="translate(288.386719 0)"/>
      <use xlink:href="#DejaVuSans-65" transform="translate(347.566406 0)"/>
      <use xlink:href="#DejaVuSans-47" transform="translate(409.089844 0)"/>
      <use xlink:href="#DejaVuSans-50" transform="translate(486.580078 0)"/>
      <use xlink:href="#DejaVuSans-20" transform="translate(546.882812 0)"/>
      <use xlink:href="#DejaVuSans-4d" transform="translate(578.669922 0)"/>
      <use xlink:href="#DejaVuSans-65" transform="translate(664.949219 0)"/>
      <use xlink:href="#DejaVuSans-61" transform="translate(726.472656 0)"/>
      <use xlink:href="#DejaVuSans-6e" transform="translate(787.751953 0)"/>
      <use xlink:href="#DejaVuSans-20" transform="translate(851.130859 0)"/>
      <use xlink:href="#DejaVuSans-52" transform="translate(882.917969 0)"/>
      <use xlink:href="#DejaVuSans-65" transform="translate(947.900391 0)"/>
      <use xlink:href="#DejaVuSans-67" transform="translate(1009.423828 0)"/>
      <use xlink:href="#DejaVuSans-72" transform="translate(1072.900391 0)"/>
      <use xlink:href="#DejaVuSans-65" transform="translate(1111.763672 0)"/>
      <use xlink:href="#DejaVuSans-74" transform="translate(1173.287109 0)"/>
     </g>
    </g>
    <g id="line2d_59">
     <path d="M 631.698748 78.564755 
L 640.028748 78.564755 
L 648.358748 78.564755 
" style="fill: none; stroke: #008000; stroke-width: 1.5; stroke-linecap: square"/>
    </g>
    <g id="text_19">
     <!-- SobolGP Mean Regret -->
     <g transform="translate(655.022748 81.480255) scale(0.0833 -0.0833)">
      <defs>
       <path id="DejaVuSans-53" d="M 3425 4513 
L 3425 3897 
Q 3066 4069 2747 4153 
Q 2428 4238 2131 4238 
Q 1616 4238 1336 4038 
Q 1056 3838 1056 3469 
Q 1056 3159 1242 3001 
Q 1428 2844 1947 2747 
L 2328 2669 
Q 3034 2534 3370 2195 
Q 3706 1856 3706 1288 
Q 3706 609 3251 259 
Q 2797 -91 1919 -91 
Q 1588 -91 1214 -16 
Q 841 59 441 206 
L 441 856 
Q 825 641 1194 531 
Q 1563 422 1919 422 
Q 2459 422 2753 634 
Q 3047 847 3047 1241 
Q 3047 1584 2836 1778 
Q 2625 1972 2144 2069 
L 1759 2144 
Q 1053 2284 737 2584 
Q 422 2884 422 3419 
Q 422 4038 858 4394 
Q 1294 4750 2059 4750 
Q 2388 4750 2728 4690 
Q 3069 4631 3425 4513 
z
" transform="scale(0.015625)"/>
       <path id="DejaVuSans-62" d="M 3116 1747 
Q 3116 2381 2855 2742 
Q 2594 3103 2138 3103 
Q 1681 3103 1420 2742 
Q 1159 2381 1159 1747 
Q 1159 1113 1420 752 
Q 1681 391 2138 391 
Q 2594 391 2855 752 
Q 3116 1113 3116 1747 
z
M 1159 2969 
Q 1341 3281 1617 3432 
Q 1894 3584 2278 3584 
Q 2916 3584 3314 3078 
Q 3713 2572 3713 1747 
Q 3713 922 3314 415 
Q 2916 -91 2278 -91 
Q 1894 -91 1617 61 
Q 1341 213 1159 525 
L 1159 0 
L 581 0 
L 581 4863 
L 1159 4863 
L 1159 2969 
z
" transform="scale(0.015625)"/>
      </defs>
      <use xlink:href="#DejaVuSans-53"/>
      <use xlink:href="#DejaVuSans-6f" transform="translate(63.476562 0)"/>
      <use xlink:href="#DejaVuSans-62" transform="translate(124.658203 0)"/>
      <use xlink:href="#DejaVuSans-6f" transform="translate(188.134766 0)"/>
      <use xlink:href="#DejaVuSans-6c" transform="translate(249.316406 0)"/>
      <use xlink:href="#DejaVuSans-47" transform="translate(277.099609 0)"/>
      <use xlink:href="#DejaVuSans-50" transform="translate(354.589844 0)"/>
      <use xlink:href="#DejaVuSans-20" transform="translate(414.892578 0)"/>
      <use xlink:href="#DejaVuSans-4d" transform="translate(446.679688 0)"/>
      <use xlink:href="#DejaVuSans-65" transform="translate(532.958984 0)"/>
      <use xlink:href="#DejaVuSans-61" transform="translate(594.482422 0)"/>
      <use xlink:href="#DejaVuSans-6e" transform="translate(655.761719 0)"/>
      <use xlink:href="#DejaVuSans-20" transform="translate(719.140625 0)"/>
      <use xlink:href="#DejaVuSans-52" transform="translate(750.927734 0)"/>
      <use xlink:href="#DejaVuSans-65" transform="translate(815.910156 0)"/>
      <use xlink:href="#DejaVuSans-67" transform="translate(877.433594 0)"/>
      <use xlink:href="#DejaVuSans-72" transform="translate(940.910156 0)"/>
      <use xlink:href="#DejaVuSans-65" transform="translate(979.773438 0)"/>
      <use xlink:href="#DejaVuSans-74" transform="translate(1041.296875 0)"/>
     </g>
    </g>
   </g>
  </g>
 </g>
 <defs>
  <clipPath id="pe1803d4b14">
   <rect x="108" y="43.2" width="669.6" height="277.2"/>
  </clipPath>
 </defs>
</svg>
