<?xml version="1.0" encoding="utf-8" standalone="no"?>
<!DOCTYPE svg PUBLIC "-//W3C//DTD SVG 1.1//EN"
  "http://www.w3.org/Graphics/SVG/1.1/DTD/svg11.dtd">
<svg xmlns:xlink="http://www.w3.org/1999/xlink" width="864pt" height="432pt" viewBox="0 0 864 432" xmlns="http://www.w3.org/2000/svg" version="1.1">
 <metadata>
  <rdf:RDF xmlns:dc="http://purl.org/dc/elements/1.1/" xmlns:cc="http://creativecommons.org/ns#" xmlns:rdf="http://www.w3.org/1999/02/22-rdf-syntax-ns#">
   <cc:Work>
    <dc:type rdf:resource="http://purl.org/dc/dcmitype/StillImage"/>
    <dc:date>2025-10-01T11:45:54.769165</dc:date>
    <dc:format>image/svg+xml</dc:format>
    <dc:creator>
     <cc:Agent>
      <dc:title>Matplotlib v3.10.1, https://matplotlib.org/</dc:title>
     </cc:Agent>
    </dc:creator>
   </cc:Work>
  </rdf:RDF>
 </metadata>
 <defs>
  <style type="text/css">*{stroke-linejoin: round; stroke-linecap: butt}</style>
 </defs>
 <g id="figure_1">
  <g id="patch_1">
   <path d="M 0 432 
L 864 432 
L 864 0 
L 0 0 
z
" style="fill: #ffffff"/>
  </g>
  <g id="axes_1">
   <g id="patch_2">
    <path d="M 108 384.48 
L 777.6 384.48 
L 777.6 51.84 
L 108 51.84 
z
" style="fill: #ffffff"/>
   </g>
   <g id="matplotlib.axis_1">
    <g id="xtick_1">
     <g id="line2d_1">
      <path d="M 131.747053 384.48 
L 131.747053 51.84 
" clip-path="url(#p38ae61800c)" style="fill: none; stroke: #b0b0b0; stroke-width: 0.8; stroke-linecap: square"/>
     </g>
     <g id="line2d_2">
      <defs>
       <path id="m8d8675d33b" d="M 0 0 
L 0 3.5 
" style="stroke: #000000; stroke-width: 0.8"/>
      </defs>
      <g>
       <use xlink:href="#m8d8675d33b" x="131.747053" y="384.48" style="stroke: #000000; stroke-width: 0.8"/>
      </g>
     </g>
     <g id="text_1">
      <!-- 0 -->
      <g transform="translate(128.565803 399.078438) scale(0.1 -0.1)">
       <defs>
        <path id="DejaVuSans-30" d="M 2034 4250 
Q 1547 4250 1301 3770 
Q 1056 3291 1056 2328 
Q 1056 1369 1301 889 
Q 1547 409 2034 409 
Q 2525 409 2770 889 
Q 3016 1369 3016 2328 
Q 3016 3291 2770 3770 
Q 2525 4250 2034 4250 
z
M 2034 4750 
Q 2819 4750 3233 4129 
Q 3647 3509 3647 2328 
Q 3647 1150 3233 529 
Q 2819 -91 2034 -91 
Q 1250 -91 836 529 
Q 422 1150 422 2328 
Q 422 3509 836 4129 
Q 1250 4750 2034 4750 
z
" transform="scale(0.015625)"/>
       </defs>
       <use xlink:href="#DejaVuSans-30"/>
      </g>
     </g>
    </g>
    <g id="xtick_2">
     <g id="line2d_3">
      <path d="M 265.533267 384.48 
L 265.533267 51.84 
" clip-path="url(#p38ae61800c)" style="fill: none; stroke: #b0b0b0; stroke-width: 0.8; stroke-linecap: square"/>
     </g>
     <g id="line2d_4">
      <g>
       <use xlink:href="#m8d8675d33b" x="265.533267" y="384.48" style="stroke: #000000; stroke-width: 0.8"/>
      </g>
     </g>
     <g id="text_2">
      <!-- 20 -->
      <g transform="translate(259.170767 399.078438) scale(0.1 -0.1)">
       <defs>
        <path id="DejaVuSans-32" d="M 1228 531 
L 3431 531 
L 3431 0 
L 469 0 
L 469 531 
Q 828 903 1448 1529 
Q 2069 2156 2228 2338 
Q 2531 2678 2651 2914 
Q 2772 3150 2772 3378 
Q 2772 3750 2511 3984 
Q 2250 4219 1831 4219 
Q 1534 4219 1204 4116 
Q 875 4013 500 3803 
L 500 4441 
Q 881 4594 1212 4672 
Q 1544 4750 1819 4750 
Q 2544 4750 2975 4387 
Q 3406 4025 3406 3419 
Q 3406 3131 3298 2873 
Q 3191 2616 2906 2266 
Q 2828 2175 2409 1742 
Q 1991 1309 1228 531 
z
" transform="scale(0.015625)"/>
       </defs>
       <use xlink:href="#DejaVuSans-32"/>
       <use xlink:href="#DejaVuSans-30" transform="translate(63.623047 0)"/>
      </g>
     </g>
    </g>
    <g id="xtick_3">
     <g id="line2d_5">
      <path d="M 399.319481 384.48 
L 399.319481 51.84 
" clip-path="url(#p38ae61800c)" style="fill: none; stroke: #b0b0b0; stroke-width: 0.8; stroke-linecap: square"/>
     </g>
     <g id="line2d_6">
      <g>
       <use xlink:href="#m8d8675d33b" x="399.319481" y="384.48" style="stroke: #000000; stroke-width: 0.8"/>
      </g>
     </g>
     <g id="text_3">
      <!-- 40 -->
      <g transform="translate(392.956981 399.078438) scale(0.1 -0.1)">
       <defs>
        <path id="DejaVuSans-34" d="M 2419 4116 
L 825 1625 
L 2419 1625 
L 2419 4116 
z
M 2253 4666 
L 3047 4666 
L 3047 1625 
L 3713 1625 
L 3713 1100 
L 3047 1100 
L 3047 0 
L 2419 0 
L 2419 1100 
L 313 1100 
L 313 1709 
L 2253 4666 
z
" transform="scale(0.015625)"/>
       </defs>
       <use xlink:href="#DejaVuSans-34"/>
       <use xlink:href="#DejaVuSans-30" transform="translate(63.623047 0)"/>
      </g>
     </g>
    </g>
    <g id="xtick_4">
     <g id="line2d_7">
      <path d="M 533.105694 384.48 
L 533.105694 51.84 
" clip-path="url(#p38ae61800c)" style="fill: none; stroke: #b0b0b0; stroke-width: 0.8; stroke-linecap: square"/>
     </g>
     <g id="line2d_8">
      <g>
       <use xlink:href="#m8d8675d33b" x="533.105694" y="384.48" style="stroke: #000000; stroke-width: 0.8"/>
      </g>
     </g>
     <g id="text_4">
      <!-- 60 -->
      <g transform="translate(526.743194 399.078438) scale(0.1 -0.1)">
       <defs>
        <path id="DejaVuSans-36" d="M 2113 2584 
Q 1688 2584 1439 2293 
Q 1191 2003 1191 1497 
Q 1191 994 1439 701 
Q 1688 409 2113 409 
Q 2538 409 2786 701 
Q 3034 994 3034 1497 
Q 3034 2003 2786 2293 
Q 2538 2584 2113 2584 
z
M 3366 4563 
L 3366 3988 
Q 3128 4100 2886 4159 
Q 2644 4219 2406 4219 
Q 1781 4219 1451 3797 
Q 1122 3375 1075 2522 
Q 1259 2794 1537 2939 
Q 1816 3084 2150 3084 
Q 2853 3084 3261 2657 
Q 3669 2231 3669 1497 
Q 3669 778 3244 343 
Q 2819 -91 2113 -91 
Q 1303 -91 875 529 
Q 447 1150 447 2328 
Q 447 3434 972 4092 
Q 1497 4750 2381 4750 
Q 2619 4750 2861 4703 
Q 3103 4656 3366 4563 
z
" transform="scale(0.015625)"/>
       </defs>
       <use xlink:href="#DejaVuSans-36"/>
       <use xlink:href="#DejaVuSans-30" transform="translate(63.623047 0)"/>
      </g>
     </g>
    </g>
    <g id="xtick_5">
     <g id="line2d_9">
      <path d="M 666.891908 384.48 
L 666.891908 51.84 
" clip-path="url(#p38ae61800c)" style="fill: none; stroke: #b0b0b0; stroke-width: 0.8; stroke-linecap: square"/>
     </g>
     <g id="line2d_10">
      <g>
       <use xlink:href="#m8d8675d33b" x="666.891908" y="384.48" style="stroke: #000000; stroke-width: 0.8"/>
      </g>
     </g>
     <g id="text_5">
      <!-- 80 -->
      <g transform="translate(660.529408 399.078438) scale(0.1 -0.1)">
       <defs>
        <path id="DejaVuSans-38" d="M 2034 2216 
Q 1584 2216 1326 1975 
Q 1069 1734 1069 1313 
Q 1069 891 1326 650 
Q 1584 409 2034 409 
Q 2484 409 2743 651 
Q 3003 894 3003 1313 
Q 3003 1734 2745 1975 
Q 2488 2216 2034 2216 
z
M 1403 2484 
Q 997 2584 770 2862 
Q 544 3141 544 3541 
Q 544 4100 942 4425 
Q 1341 4750 2034 4750 
Q 2731 4750 3128 4425 
Q 3525 4100 3525 3541 
Q 3525 3141 3298 2862 
Q 3072 2584 2669 2484 
Q 3125 2378 3379 2068 
Q 3634 1759 3634 1313 
Q 3634 634 3220 271 
Q 2806 -91 2034 -91 
Q 1263 -91 848 271 
Q 434 634 434 1313 
Q 434 1759 690 2068 
Q 947 2378 1403 2484 
z
M 1172 3481 
Q 1172 3119 1398 2916 
Q 1625 2713 2034 2713 
Q 2441 2713 2670 2916 
Q 2900 3119 2900 3481 
Q 2900 3844 2670 4047 
Q 2441 4250 2034 4250 
Q 1625 4250 1398 4047 
Q 1172 3844 1172 3481 
z
" transform="scale(0.015625)"/>
       </defs>
       <use xlink:href="#DejaVuSans-38"/>
       <use xlink:href="#DejaVuSans-30" transform="translate(63.623047 0)"/>
      </g>
     </g>
    </g>
    <g id="text_6">
     <!-- Iteration -->
     <g transform="translate(421.591406 412.756563) scale(0.1 -0.1)">
      <defs>
       <path id="DejaVuSans-49" d="M 628 4666 
L 1259 4666 
L 1259 0 
L 628 0 
L 628 4666 
z
" transform="scale(0.015625)"/>
       <path id="DejaVuSans-74" d="M 1172 4494 
L 1172 3500 
L 2356 3500 
L 2356 3053 
L 1172 3053 
L 1172 1153 
Q 1172 725 1289 603 
Q 1406 481 1766 481 
L 2356 481 
L 2356 0 
L 1766 0 
Q 1100 0 847 248 
Q 594 497 594 1153 
L 594 3053 
L 172 3053 
L 172 3500 
L 594 3500 
L 594 4494 
L 1172 4494 
z
" transform="scale(0.015625)"/>
       <path id="DejaVuSans-65" d="M 3597 1894 
L 3597 1613 
L 953 1613 
Q 991 1019 1311 708 
Q 1631 397 2203 397 
Q 2534 397 2845 478 
Q 3156 559 3463 722 
L 3463 178 
Q 3153 47 2828 -22 
Q 2503 -91 2169 -91 
Q 1331 -91 842 396 
Q 353 884 353 1716 
Q 353 2575 817 3079 
Q 1281 3584 2069 3584 
Q 2775 3584 3186 3129 
Q 3597 2675 3597 1894 
z
M 3022 2063 
Q 3016 2534 2758 2815 
Q 2500 3097 2075 3097 
Q 1594 3097 1305 2825 
Q 1016 2553 972 2059 
L 3022 2063 
z
" transform="scale(0.015625)"/>
       <path id="DejaVuSans-72" d="M 2631 2963 
Q 2534 3019 2420 3045 
Q 2306 3072 2169 3072 
Q 1681 3072 1420 2755 
Q 1159 2438 1159 1844 
L 1159 0 
L 581 0 
L 581 3500 
L 1159 3500 
L 1159 2956 
Q 1341 3275 1631 3429 
Q 1922 3584 2338 3584 
Q 2397 3584 2469 3576 
Q 2541 3569 2628 3553 
L 2631 2963 
z
" transform="scale(0.015625)"/>
       <path id="DejaVuSans-61" d="M 2194 1759 
Q 1497 1759 1228 1600 
Q 959 1441 959 1056 
Q 959 750 1161 570 
Q 1363 391 1709 391 
Q 2188 391 2477 730 
Q 2766 1069 2766 1631 
L 2766 1759 
L 2194 1759 
z
M 3341 1997 
L 3341 0 
L 2766 0 
L 2766 531 
Q 2569 213 2275 61 
Q 1981 -91 1556 -91 
Q 1019 -91 701 211 
Q 384 513 384 1019 
Q 384 1609 779 1909 
Q 1175 2209 1959 2209 
L 2766 2209 
L 2766 2266 
Q 2766 2663 2505 2880 
Q 2244 3097 1772 3097 
Q 1472 3097 1187 3025 
Q 903 2953 641 2809 
L 641 3341 
Q 956 3463 1253 3523 
Q 1550 3584 1831 3584 
Q 2591 3584 2966 3190 
Q 3341 2797 3341 1997 
z
" transform="scale(0.015625)"/>
       <path id="DejaVuSans-69" d="M 603 3500 
L 1178 3500 
L 1178 0 
L 603 0 
L 603 3500 
z
M 603 4863 
L 1178 4863 
L 1178 4134 
L 603 4134 
L 603 4863 
z
" transform="scale(0.015625)"/>
       <path id="DejaVuSans-6f" d="M 1959 3097 
Q 1497 3097 1228 2736 
Q 959 2375 959 1747 
Q 959 1119 1226 758 
Q 1494 397 1959 397 
Q 2419 397 2687 759 
Q 2956 1122 2956 1747 
Q 2956 2369 2687 2733 
Q 2419 3097 1959 3097 
z
M 1959 3584 
Q 2709 3584 3137 3096 
Q 3566 2609 3566 1747 
Q 3566 888 3137 398 
Q 2709 -91 1959 -91 
Q 1206 -91 779 398 
Q 353 888 353 1747 
Q 353 2609 779 3096 
Q 1206 3584 1959 3584 
z
" transform="scale(0.015625)"/>
       <path id="DejaVuSans-6e" d="M 3513 2113 
L 3513 0 
L 2938 0 
L 2938 2094 
Q 2938 2591 2744 2837 
Q 2550 3084 2163 3084 
Q 1697 3084 1428 2787 
Q 1159 2491 1159 1978 
L 1159 0 
L 581 0 
L 581 3500 
L 1159 3500 
L 1159 2956 
Q 1366 3272 1645 3428 
Q 1925 3584 2291 3584 
Q 2894 3584 3203 3211 
Q 3513 2838 3513 2113 
z
" transform="scale(0.015625)"/>
      </defs>
      <use xlink:href="#DejaVuSans-49"/>
      <use xlink:href="#DejaVuSans-74" transform="translate(29.492188 0)"/>
      <use xlink:href="#DejaVuSans-65" transform="translate(68.701172 0)"/>
      <use xlink:href="#DejaVuSans-72" transform="translate(130.224609 0)"/>
      <use xlink:href="#DejaVuSans-61" transform="translate(171.337891 0)"/>
      <use xlink:href="#DejaVuSans-74" transform="translate(232.617188 0)"/>
      <use xlink:href="#DejaVuSans-69" transform="translate(271.826172 0)"/>
      <use xlink:href="#DejaVuSans-6f" transform="translate(299.609375 0)"/>
      <use xlink:href="#DejaVuSans-6e" transform="translate(360.791016 0)"/>
     </g>
    </g>
   </g>
   <g id="matplotlib.axis_2">
    <g id="ytick_1">
     <g id="line2d_11">
      <path d="M 108 384.48 
L 777.6 384.48 
" clip-path="url(#p38ae61800c)" style="fill: none; stroke: #b0b0b0; stroke-width: 0.8; stroke-linecap: square"/>
     </g>
     <g id="line2d_12">
      <defs>
       <path id="m51f701e94b" d="M 0 0 
L -3.5 0 
" style="stroke: #000000; stroke-width: 0.8"/>
      </defs>
      <g>
       <use xlink:href="#m51f701e94b" x="108" y="384.48" style="stroke: #000000; stroke-width: 0.8"/>
      </g>
     </g>
     <g id="text_7">
      <!-- 0.0 -->
      <g transform="translate(85.096875 388.279219) scale(0.1 -0.1)">
       <defs>
        <path id="DejaVuSans-2e" d="M 684 794 
L 1344 794 
L 1344 0 
L 684 0 
L 684 794 
z
" transform="scale(0.015625)"/>
       </defs>
       <use xlink:href="#DejaVuSans-30"/>
       <use xlink:href="#DejaVuSans-2e" transform="translate(63.623047 0)"/>
       <use xlink:href="#DejaVuSans-30" transform="translate(95.410156 0)"/>
      </g>
     </g>
    </g>
    <g id="ytick_2">
     <g id="line2d_13">
      <path d="M 108 324 
L 777.6 324 
" clip-path="url(#p38ae61800c)" style="fill: none; stroke: #b0b0b0; stroke-width: 0.8; stroke-linecap: square"/>
     </g>
     <g id="line2d_14">
      <g>
       <use xlink:href="#m51f701e94b" x="108" y="324" style="stroke: #000000; stroke-width: 0.8"/>
      </g>
     </g>
     <g id="text_8">
      <!-- 0.2 -->
      <g transform="translate(85.096875 327.799219) scale(0.1 -0.1)">
       <use xlink:href="#DejaVuSans-30"/>
       <use xlink:href="#DejaVuSans-2e" transform="translate(63.623047 0)"/>
       <use xlink:href="#DejaVuSans-32" transform="translate(95.410156 0)"/>
      </g>
     </g>
    </g>
    <g id="ytick_3">
     <g id="line2d_15">
      <path d="M 108 263.52 
L 777.6 263.52 
" clip-path="url(#p38ae61800c)" style="fill: none; stroke: #b0b0b0; stroke-width: 0.8; stroke-linecap: square"/>
     </g>
     <g id="line2d_16">
      <g>
       <use xlink:href="#m51f701e94b" x="108" y="263.52" style="stroke: #000000; stroke-width: 0.8"/>
      </g>
     </g>
     <g id="text_9">
      <!-- 0.4 -->
      <g transform="translate(85.096875 267.319219) scale(0.1 -0.1)">
       <use xlink:href="#DejaVuSans-30"/>
       <use xlink:href="#DejaVuSans-2e" transform="translate(63.623047 0)"/>
       <use xlink:href="#DejaVuSans-34" transform="translate(95.410156 0)"/>
      </g>
     </g>
    </g>
    <g id="ytick_4">
     <g id="line2d_17">
      <path d="M 108 203.04 
L 777.6 203.04 
" clip-path="url(#p38ae61800c)" style="fill: none; stroke: #b0b0b0; stroke-width: 0.8; stroke-linecap: square"/>
     </g>
     <g id="line2d_18">
      <g>
       <use xlink:href="#m51f701e94b" x="108" y="203.04" style="stroke: #000000; stroke-width: 0.8"/>
      </g>
     </g>
     <g id="text_10">
      <!-- 0.6 -->
      <g transform="translate(85.096875 206.839219) scale(0.1 -0.1)">
       <use xlink:href="#DejaVuSans-30"/>
       <use xlink:href="#DejaVuSans-2e" transform="translate(63.623047 0)"/>
       <use xlink:href="#DejaVuSans-36" transform="translate(95.410156 0)"/>
      </g>
     </g>
    </g>
    <g id="ytick_5">
     <g id="line2d_19">
      <path d="M 108 142.56 
L 777.6 142.56 
" clip-path="url(#p38ae61800c)" style="fill: none; stroke: #b0b0b0; stroke-width: 0.8; stroke-linecap: square"/>
     </g>
     <g id="line2d_20">
      <g>
       <use xlink:href="#m51f701e94b" x="108" y="142.56" style="stroke: #000000; stroke-width: 0.8"/>
      </g>
     </g>
     <g id="text_11">
      <!-- 0.8 -->
      <g transform="translate(85.096875 146.359219) scale(0.1 -0.1)">
       <use xlink:href="#DejaVuSans-30"/>
       <use xlink:href="#DejaVuSans-2e" transform="translate(63.623047 0)"/>
       <use xlink:href="#DejaVuSans-38" transform="translate(95.410156 0)"/>
      </g>
     </g>
    </g>
    <g id="ytick_6">
     <g id="line2d_21">
      <path d="M 108 82.08 
L 777.6 82.08 
" clip-path="url(#p38ae61800c)" style="fill: none; stroke: #b0b0b0; stroke-width: 0.8; stroke-linecap: square"/>
     </g>
     <g id="line2d_22">
      <g>
       <use xlink:href="#m51f701e94b" x="108" y="82.08" style="stroke: #000000; stroke-width: 0.8"/>
      </g>
     </g>
     <g id="text_12">
      <!-- 1.0 -->
      <g transform="translate(85.096875 85.879219) scale(0.1 -0.1)">
       <defs>
        <path id="DejaVuSans-31" d="M 794 531 
L 1825 531 
L 1825 4091 
L 703 3866 
L 703 4441 
L 1819 4666 
L 2450 4666 
L 2450 531 
L 3481 531 
L 3481 0 
L 794 0 
L 794 531 
z
" transform="scale(0.015625)"/>
       </defs>
       <use xlink:href="#DejaVuSans-31"/>
       <use xlink:href="#DejaVuSans-2e" transform="translate(63.623047 0)"/>
       <use xlink:href="#DejaVuSans-30" transform="translate(95.410156 0)"/>
      </g>
     </g>
    </g>
    <g id="text_13">
     <!-- Metric -->
     <g transform="translate(79.017187 233.704531) rotate(-90) scale(0.1 -0.1)">
      <defs>
       <path id="DejaVuSans-4d" d="M 628 4666 
L 1569 4666 
L 2759 1491 
L 3956 4666 
L 4897 4666 
L 4897 0 
L 4281 0 
L 4281 4097 
L 3078 897 
L 2444 897 
L 1241 4097 
L 1241 0 
L 628 0 
L 628 4666 
z
" transform="scale(0.015625)"/>
       <path id="DejaVuSans-63" d="M 3122 3366 
L 3122 2828 
Q 2878 2963 2633 3030 
Q 2388 3097 2138 3097 
Q 1578 3097 1268 2742 
Q 959 2388 959 1747 
Q 959 1106 1268 751 
Q 1578 397 2138 397 
Q 2388 397 2633 464 
Q 2878 531 3122 666 
L 3122 134 
Q 2881 22 2623 -34 
Q 2366 -91 2075 -91 
Q 1284 -91 818 406 
Q 353 903 353 1747 
Q 353 2603 823 3093 
Q 1294 3584 2113 3584 
Q 2378 3584 2631 3529 
Q 2884 3475 3122 3366 
z
" transform="scale(0.015625)"/>
      </defs>
      <use xlink:href="#DejaVuSans-4d"/>
      <use xlink:href="#DejaVuSans-65" transform="translate(86.279297 0)"/>
      <use xlink:href="#DejaVuSans-74" transform="translate(147.802734 0)"/>
      <use xlink:href="#DejaVuSans-72" transform="translate(187.011719 0)"/>
      <use xlink:href="#DejaVuSans-69" transform="translate(228.125 0)"/>
      <use xlink:href="#DejaVuSans-63" transform="translate(255.908203 0)"/>
     </g>
    </g>
   </g>
   <g id="line2d_23">
    <path d="M 138.436364 329.916852 
L 145.125674 317.39251 
L 151.814985 298.454068 
L 158.504296 280.163971 
L 165.193606 280.095091 
L 171.882917 277.854408 
L 178.572228 245.37883 
L 185.261538 245.37883 
L 191.950849 243.278504 
L 198.64016 227.373166 
L 205.329471 225.837278 
L 212.018781 225.837278 
L 218.708092 225.837278 
L 225.397403 225.837278 
L 232.086713 225.837278 
L 238.776024 220.406289 
L 245.465335 206.635231 
L 252.154645 206.635231 
L 258.843956 199.435893 
L 265.533267 199.435893 
L 272.222577 184.510696 
L 278.911888 184.510696 
L 285.601199 184.510696 
L 292.290509 172.344168 
L 298.97982 172.344168 
L 305.669131 162.538111 
L 312.358442 162.174059 
L 319.047752 162.174059 
L 325.737063 162.174059 
L 332.426374 160.893447 
L 339.115684 160.737951 
L 345.804995 155.180049 
L 352.494306 154.819084 
L 359.183616 154.819084 
L 365.872927 154.819084 
L 372.562238 154.748327 
L 379.251548 151.992196 
L 385.940859 151.992196 
L 392.63017 148.210339 
L 399.319481 143.895499 
L 406.008791 142.861117 
L 412.698102 142.619507 
L 419.387413 130.826091 
L 426.076723 117.783021 
L 432.766034 117.658507 
L 439.455345 114.595162 
L 446.144655 108.90305 
L 452.833966 101.17637 
L 459.523277 100.675871 
L 466.212587 100.425282 
L 472.901898 100.179348 
L 479.591209 95.459273 
L 486.280519 95.430195 
L 492.96983 83.007529 
L 499.659141 82.96274 
L 506.348452 82.843835 
L 513.037762 82.735859 
L 519.727073 82.456589 
L 526.416384 82.419598 
L 533.105694 82.405674 
L 539.795005 82.344775 
L 546.484316 82.31638 
L 553.173626 82.266155 
L 559.862937 82.245137 
L 566.552248 82.235841 
L 573.241558 82.218516 
L 579.930869 82.218516 
L 586.62018 82.218516 
L 593.309491 82.215148 
L 599.998801 82.205195 
L 606.688112 82.188441 
L 613.377423 82.177959 
L 620.066733 82.175087 
L 626.756044 82.174576 
L 633.445355 82.164282 
L 640.134665 82.161259 
L 646.823976 82.160262 
L 653.513287 82.160262 
L 660.202597 82.156884 
L 666.891908 82.156664 
L 673.581219 82.153437 
L 680.270529 82.147956 
L 686.95984 82.147956 
L 693.649151 82.147956 
L 700.338462 82.147956 
L 707.027772 82.147956 
L 713.717083 82.147344 
L 720.406394 82.143259 
L 727.095704 82.140907 
L 733.785015 82.140588 
L 740.474326 82.140588 
L 747.163636 82.140588 
" clip-path="url(#p38ae61800c)" style="fill: none; stroke-dasharray: 5.55,2.4; stroke-dashoffset: 0; stroke: #ff0000; stroke-width: 1.5"/>
   </g>
   <g id="line2d_24">
    <path d="M 138.436364 361.867513 
L 145.125674 351.847292 
L 151.814985 330.469365 
L 158.504296 345.674427 
L 165.193606 369.256555 
L 171.882917 372.79998 
L 178.572228 338.758079 
L 185.261538 354.852716 
L 191.950849 365.871751 
L 198.64016 341.371589 
L 205.329471 372.038113 
L 212.018781 365.627813 
L 218.708092 370.034625 
L 225.397403 375.156875 
L 232.086713 383.882476 
L 238.776024 356.613014 
L 245.465335 353.79098 
L 252.154645 371.276045 
L 258.843956 354.622043 
L 265.533267 372.487212 
L 272.222577 361.455544 
L 278.911888 377.78827 
L 285.601199 373.400858 
L 292.290509 365.910438 
L 298.97982 368.539729 
L 305.669131 345.64806 
L 312.358442 352.606147 
L 319.047752 360.57166 
L 325.737063 384.003231 
L 332.426374 361.508982 
L 339.115684 341.890401 
L 345.804995 335.422239 
L 352.494306 336.770836 
L 359.183616 362.882454 
L 365.872927 348.603987 
L 372.562238 309.574098 
L 379.251548 277.133683 
L 385.940859 328.771262 
L 392.63017 284.283371 
L 399.319481 235.216842 
L 406.008791 238.420241 
L 412.698102 238.127118 
L 419.387413 200.659527 
L 426.076723 211.563326 
L 432.766034 192.743374 
L 439.455345 168.92691 
L 446.144655 148.964976 
L 452.833966 132.07018 
L 459.523277 130.97499 
L 466.212587 128.581757 
L 472.901898 127.548112 
L 479.591209 107.931409 
L 486.280519 107.430072 
L 492.96983 87.234476 
L 499.659141 94.134247 
L 506.348452 85.964278 
L 513.037762 83.858368 
L 519.727073 84.893894 
L 526.416384 85.103645 
L 533.105694 86.969457 
L 539.795005 84.212404 
L 546.484316 86.959388 
L 553.173626 84.121633 
L 559.862937 83.692461 
L 566.552248 83.353828 
L 573.241558 84.356849 
L 579.930869 85.159463 
L 586.62018 85.519913 
L 593.309491 84.165054 
L 599.998801 83.278202 
L 606.688112 82.626447 
L 613.377423 86.775376 
L 620.066733 85.302731 
L 626.756044 83.837837 
L 633.445355 83.268969 
L 640.134665 84.198132 
L 646.823976 84.080389 
L 653.513287 83.202344 
L 660.202597 83.026675 
L 666.891908 83.077979 
L 673.581219 82.939892 
L 680.270529 83.744146 
L 686.95984 83.037635 
L 693.649151 83.631533 
L 700.338462 83.349264 
L 707.027772 83.048148 
L 713.717083 85.415861 
L 720.406394 82.76286 
L 727.095704 82.565202 
L 733.785015 82.856141 
L 740.474326 82.888835 
L 747.163636 82.473898 
" clip-path="url(#p38ae61800c)" style="fill: none; stroke: #ff0000; stroke-width: 1.5; stroke-linecap: square"/>
   </g>
   <g id="line2d_25">
    <path d="M 138.436364 303.549115 
L 145.125674 301.756089 
L 151.814985 297.879153 
L 158.504296 281.546543 
L 165.193606 280.607397 
L 171.882917 278.79908 
L 178.572228 274.633296 
L 185.261538 274.633296 
L 191.950849 274.633296 
L 198.64016 274.633296 
L 205.329471 272.646529 
L 212.018781 272.646529 
L 218.708092 258.421304 
L 225.397403 258.421304 
L 232.086713 254.484105 
L 238.776024 254.484105 
L 245.465335 234.485408 
L 252.154645 234.485408 
L 258.843956 231.766248 
L 265.533267 231.766248 
L 272.222577 231.766248 
L 278.911888 229.447702 
L 285.601199 229.447702 
L 292.290509 229.447702 
L 298.97982 204.62345 
L 305.669131 204.62345 
L 312.358442 204.62345 
L 319.047752 191.963174 
L 325.737063 186.254694 
L 332.426374 178.695969 
L 339.115684 178.695969 
L 345.804995 176.804852 
L 352.494306 172.078296 
L 359.183616 166.101186 
L 365.872927 165.891842 
L 372.562238 148.7146 
L 379.251548 140.255259 
L 385.940859 130.106835 
L 392.63017 129.063929 
L 399.319481 124.168353 
L 406.008791 113.020304 
L 412.698102 112.552968 
L 419.387413 110.60533 
L 426.076723 108.465238 
L 432.766034 104.196692 
L 439.455345 97.300156 
L 446.144655 96.071455 
L 452.833966 96.064403 
L 459.523277 95.926991 
L 466.212587 95.919083 
L 472.901898 95.156235 
L 479.591209 95.119563 
L 486.280519 95.034019 
L 492.96983 95.013527 
L 499.659141 94.994043 
L 506.348452 94.987825 
L 513.037762 94.676708 
L 519.727073 94.59149 
L 526.416384 94.576117 
L 533.105694 94.474076 
L 539.795005 94.456776 
L 546.484316 94.456033 
L 553.173626 93.794923 
L 559.862937 93.689105 
L 566.552248 93.626357 
L 573.241558 93.580406 
L 579.930869 93.538001 
L 586.62018 93.512479 
L 593.309491 93.468473 
L 599.998801 93.42961 
L 606.688112 93.416015 
L 613.377423 93.390588 
L 620.066733 93.38141 
L 626.756044 93.363458 
L 633.445355 93.346762 
L 640.134665 93.340704 
L 646.823976 93.330954 
L 653.513287 93.323703 
L 660.202597 93.231989 
L 666.891908 93.223793 
L 673.581219 93.21494 
L 680.270529 93.203247 
L 686.95984 93.191712 
L 693.649151 93.183901 
L 700.338462 93.182375 
L 707.027772 93.178528 
L 713.717083 93.167585 
L 720.406394 93.164705 
L 727.095704 93.157213 
L 733.785015 93.148088 
L 740.474326 93.144211 
L 747.163636 93.091971 
" clip-path="url(#p38ae61800c)" style="fill: none; stroke-dasharray: 5.55,2.4; stroke-dashoffset: 0; stroke: #0000ff; stroke-width: 1.5"/>
   </g>
   <g id="line2d_26">
    <path d="M 138.436364 384.039356 
L 145.125674 379.776936 
L 151.814985 375.678739 
L 158.504296 366.238007 
L 165.193606 379.973691 
L 171.882917 373.998314 
L 178.572228 378.011079 
L 185.261538 382.737538 
L 191.950849 377.778272 
L 198.64016 375.311964 
L 205.329471 370.35595 
L 212.018781 378.288222 
L 218.708092 357.082863 
L 225.397403 380.124434 
L 232.086713 350.311963 
L 238.776024 375.846257 
L 245.465335 339.855639 
L 252.154645 369.22372 
L 258.843956 355.870498 
L 265.533267 377.289058 
L 272.222577 367.701921 
L 278.911888 363.204861 
L 285.601199 374.524096 
L 292.290509 364.925766 
L 298.97982 343.457413 
L 305.669131 356.953762 
L 312.358442 366.279985 
L 319.047752 351.681861 
L 325.737063 306.859812 
L 332.426374 299.17477 
L 339.115684 330.059667 
L 345.804995 307.79512 
L 352.494306 307.544263 
L 359.183616 281.19075 
L 365.872927 303.953142 
L 372.562238 265.809001 
L 379.251548 238.211294 
L 385.940859 225.19276 
L 392.63017 244.807235 
L 399.319481 190.750651 
L 406.008791 140.686638 
L 412.698102 145.325389 
L 419.387413 125.090016 
L 426.076723 134.724555 
L 432.766034 117.568671 
L 439.455345 101.995489 
L 446.144655 97.395977 
L 452.833966 98.318918 
L 459.523277 96.800457 
L 466.212587 99.068474 
L 472.901898 96.466411 
L 479.591209 96.876384 
L 486.280519 96.459761 
L 492.96983 96.406552 
L 499.659141 96.781 
L 506.348452 96.914705 
L 513.037762 96.227388 
L 519.727073 95.785611 
L 526.416384 96.020284 
L 533.105694 96.265974 
L 539.795005 95.779185 
L 546.484316 96.312418 
L 553.173626 94.951751 
L 559.862937 94.847373 
L 566.552248 94.785698 
L 573.241558 94.877292 
L 579.930869 114.325183 
L 586.62018 114.741688 
L 593.309491 95.103122 
L 599.998801 94.689092 
L 606.688112 94.633885 
L 613.377423 94.57296 
L 620.066733 94.626328 
L 626.756044 94.476619 
L 633.445355 94.576763 
L 640.134665 94.321341 
L 646.823976 94.536722 
L 653.513287 94.543398 
L 660.202597 94.295717 
L 666.891908 94.593616 
L 673.581219 94.249465 
L 680.270529 94.383183 
L 686.95984 94.373613 
L 693.649151 94.524586 
L 700.338462 94.441949 
L 707.027772 94.388884 
L 713.717083 94.365635 
L 720.406394 94.316398 
L 727.095704 94.307548 
L 733.785015 94.497876 
L 740.474326 94.017445 
L 747.163636 93.98878 
" clip-path="url(#p38ae61800c)" style="fill: none; stroke: #0000ff; stroke-width: 1.5; stroke-linecap: square"/>
   </g>
   <g id="line2d_27">
    <path d="M 138.436364 283.602215 
L 145.125674 274.295793 
L 151.814985 259.137881 
L 158.504296 235.620256 
L 165.193606 235.503314 
L 171.882917 234.593017 
L 178.572228 228.98882 
L 185.261538 223.516596 
L 191.950849 222.33293 
L 198.64016 212.658297 
L 205.329471 208.562489 
L 212.018781 195.686014 
L 218.708092 187.116129 
L 225.397403 187.116129 
L 232.086713 179.257789 
L 238.776024 172.704523 
L 245.465335 172.617033 
L 252.154645 171.828956 
L 258.843956 171.629177 
L 265.533267 155.7407 
L 272.222577 150.858015 
L 278.911888 133.333154 
L 285.601199 122.525592 
L 292.290509 122.504988 
L 298.97982 122.479564 
L 305.669131 122.449296 
L 312.358442 121.063945 
L 319.047752 112.34295 
L 325.737063 111.410873 
L 332.426374 99.10616 
L 339.115684 99.099418 
L 345.804995 99.099418 
L 352.494306 98.782101 
L 359.183616 98.773309 
L 365.872927 98.625646 
L 372.562238 93.491944 
L 379.251548 93.483024 
L 385.940859 83.328916 
L 392.63017 83.317839 
L 399.319481 83.291206 
L 406.008791 83.258663 
L 412.698102 82.730783 
L 419.387413 82.72196 
L 426.076723 82.705467 
L 432.766034 82.681582 
L 439.455345 82.680729 
L 446.144655 82.401359 
L 452.833966 82.370023 
L 459.523277 82.322239 
L 466.212587 82.23769 
L 472.901898 82.23769 
L 479.591209 82.23769 
L 486.280519 82.213717 
L 492.96983 82.20484 
L 499.659141 82.204383 
L 506.348452 82.203614 
L 513.037762 82.195504 
L 519.727073 82.195504 
L 526.416384 82.191583 
L 533.105694 82.151963 
L 539.795005 82.151963 
L 546.484316 82.150171 
L 553.173626 82.145349 
L 559.862937 82.145349 
L 566.552248 82.145349 
L 573.241558 82.144861 
L 579.930869 82.144861 
L 586.62018 82.133091 
L 593.309491 82.129715 
L 599.998801 82.127889 
L 606.688112 82.127889 
L 613.377423 82.127889 
L 620.066733 82.127889 
L 626.756044 82.127889 
L 633.445355 82.124497 
L 640.134665 82.114829 
L 646.823976 82.11399 
L 653.513287 82.11399 
L 660.202597 82.11399 
L 666.891908 82.111416 
L 673.581219 82.111416 
L 680.270529 82.111259 
L 686.95984 82.111259 
L 693.649151 82.107465 
L 700.338462 82.104672 
L 707.027772 82.103632 
L 713.717083 82.103032 
L 720.406394 82.103032 
L 727.095704 82.099263 
L 733.785015 82.097882 
L 740.474326 82.095911 
L 747.163636 82.095814 
" clip-path="url(#p38ae61800c)" style="fill: none; stroke-dasharray: 5.55,2.4; stroke-dashoffset: 0; stroke: #008000; stroke-width: 1.5"/>
   </g>
   <g id="line2d_28">
    <path d="M 138.436364 326.348429 
L 145.125674 328.871446 
L 151.814985 318.45208 
L 158.504296 310.311045 
L 165.193606 314.605818 
L 171.882917 331.634133 
L 178.572228 323.927609 
L 185.261538 317.92387 
L 191.950849 345.457298 
L 198.64016 323.914746 
L 205.329471 309.698119 
L 212.018781 280.174248 
L 218.708092 273.887667 
L 225.397403 268.196483 
L 232.086713 234.62958 
L 238.776024 218.954109 
L 245.465335 225.938983 
L 252.154645 221.917371 
L 258.843956 222.694976 
L 265.533267 212.342457 
L 272.222577 186.170054 
L 278.911888 161.314687 
L 285.601199 159.936108 
L 292.290509 172.425504 
L 298.97982 160.364482 
L 305.669131 164.353005 
L 312.358442 156.953564 
L 319.047752 146.405685 
L 325.737063 151.774769 
L 332.426374 118.355932 
L 339.115684 117.065684 
L 345.804995 111.005464 
L 352.494306 110.516979 
L 359.183616 141.239502 
L 365.872927 107.65261 
L 372.562238 95.988929 
L 379.251548 107.666282 
L 385.940859 86.745949 
L 392.63017 91.019797 
L 399.319481 88.415439 
L 406.008791 91.185875 
L 412.698102 85.323393 
L 419.387413 85.289405 
L 426.076723 87.63881 
L 432.766034 90.338266 
L 439.455345 86.425832 
L 446.144655 84.752146 
L 452.833966 84.648615 
L 459.523277 84.291471 
L 466.212587 84.95927 
L 472.901898 85.016445 
L 479.591209 85.916635 
L 486.280519 83.526435 
L 492.96983 83.926192 
L 499.659141 83.40638 
L 506.348452 83.415298 
L 513.037762 105.548706 
L 519.727073 83.867604 
L 526.416384 83.855794 
L 533.105694 83.328768 
L 539.795005 83.226519 
L 546.484316 83.081241 
L 553.173626 84.601982 
L 559.862937 83.436133 
L 566.552248 83.178436 
L 573.241558 82.902131 
L 579.930869 82.947007 
L 586.62018 83.758572 
L 593.309491 83.012303 
L 599.998801 82.678548 
L 606.688112 83.39486 
L 613.377423 83.122156 
L 620.066733 83.179432 
L 626.756044 82.756886 
L 633.445355 82.716605 
L 640.134665 82.44392 
L 646.823976 82.513239 
L 653.513287 82.676069 
L 660.202597 82.819546 
L 666.891908 82.768611 
L 673.581219 82.897856 
L 680.270529 82.81487 
L 686.95984 82.617699 
L 693.649151 82.630221 
L 700.338462 83.196955 
L 707.027772 82.91882 
L 713.717083 82.82886 
L 720.406394 82.953948 
L 727.095704 82.533658 
L 733.785015 82.513212 
L 740.474326 82.568659 
L 747.163636 82.429968 
" clip-path="url(#p38ae61800c)" style="fill: none; stroke: #008000; stroke-width: 1.5; stroke-linecap: square"/>
   </g>
   <g id="patch_3">
    <path d="M 108 384.48 
L 108 51.84 
" style="fill: none; stroke: #000000; stroke-width: 0.8; stroke-linejoin: miter; stroke-linecap: square"/>
   </g>
   <g id="patch_4">
    <path d="M 777.6 384.48 
L 777.6 51.84 
" style="fill: none; stroke: #000000; stroke-width: 0.8; stroke-linejoin: miter; stroke-linecap: square"/>
   </g>
   <g id="patch_5">
    <path d="M 108 384.48 
L 777.6 384.48 
" style="fill: none; stroke: #000000; stroke-width: 0.8; stroke-linejoin: miter; stroke-linecap: square"/>
   </g>
   <g id="patch_6">
    <path d="M 108 51.84 
L 777.6 51.84 
" style="fill: none; stroke: #000000; stroke-width: 0.8; stroke-linejoin: miter; stroke-linecap: square"/>
   </g>
   <g id="text_14">
    <!-- Average Performance over 15 runs | 2-twoblobs (kappas=[1.0, 1.0, 1.0]) -->
    <g transform="translate(225.45375 45.84) scale(0.12 -0.12)">
     <defs>
      <path id="DejaVuSans-41" d="M 2188 4044 
L 1331 1722 
L 3047 1722 
L 2188 4044 
z
M 1831 4666 
L 2547 4666 
L 4325 0 
L 3669 0 
L 3244 1197 
L 1141 1197 
L 716 0 
L 50 0 
L 1831 4666 
z
" transform="scale(0.015625)"/>
      <path id="DejaVuSans-76" d="M 191 3500 
L 800 3500 
L 1894 563 
L 2988 3500 
L 3597 3500 
L 2284 0 
L 1503 0 
L 191 3500 
z
" transform="scale(0.015625)"/>
      <path id="DejaVuSans-67" d="M 2906 1791 
Q 2906 2416 2648 2759 
Q 2391 3103 1925 3103 
Q 1463 3103 1205 2759 
Q 947 2416 947 1791 
Q 947 1169 1205 825 
Q 1463 481 1925 481 
Q 2391 481 2648 825 
Q 2906 1169 2906 1791 
z
M 3481 434 
Q 3481 -459 3084 -895 
Q 2688 -1331 1869 -1331 
Q 1566 -1331 1297 -1286 
Q 1028 -1241 775 -1147 
L 775 -588 
Q 1028 -725 1275 -790 
Q 1522 -856 1778 -856 
Q 2344 -856 2625 -561 
Q 2906 -266 2906 331 
L 2906 616 
Q 2728 306 2450 153 
Q 2172 0 1784 0 
Q 1141 0 747 490 
Q 353 981 353 1791 
Q 353 2603 747 3093 
Q 1141 3584 1784 3584 
Q 2172 3584 2450 3431 
Q 2728 3278 2906 2969 
L 2906 3500 
L 3481 3500 
L 3481 434 
z
" transform="scale(0.015625)"/>
      <path id="DejaVuSans-20" transform="scale(0.015625)"/>
      <path id="DejaVuSans-50" d="M 1259 4147 
L 1259 2394 
L 2053 2394 
Q 2494 2394 2734 2622 
Q 2975 2850 2975 3272 
Q 2975 3691 2734 3919 
Q 2494 4147 2053 4147 
L 1259 4147 
z
M 628 4666 
L 2053 4666 
Q 2838 4666 3239 4311 
Q 3641 3956 3641 3272 
Q 3641 2581 3239 2228 
Q 2838 1875 2053 1875 
L 1259 1875 
L 1259 0 
L 628 0 
L 628 4666 
z
" transform="scale(0.015625)"/>
      <path id="DejaVuSans-66" d="M 2375 4863 
L 2375 4384 
L 1825 4384 
Q 1516 4384 1395 4259 
Q 1275 4134 1275 3809 
L 1275 3500 
L 2222 3500 
L 2222 3053 
L 1275 3053 
L 1275 0 
L 697 0 
L 697 3053 
L 147 3053 
L 147 3500 
L 697 3500 
L 697 3744 
Q 697 4328 969 4595 
Q 1241 4863 1831 4863 
L 2375 4863 
z
" transform="scale(0.015625)"/>
      <path id="DejaVuSans-6d" d="M 3328 2828 
Q 3544 3216 3844 3400 
Q 4144 3584 4550 3584 
Q 5097 3584 5394 3201 
Q 5691 2819 5691 2113 
L 5691 0 
L 5113 0 
L 5113 2094 
Q 5113 2597 4934 2840 
Q 4756 3084 4391 3084 
Q 3944 3084 3684 2787 
Q 3425 2491 3425 1978 
L 3425 0 
L 2847 0 
L 2847 2094 
Q 2847 2600 2669 2842 
Q 2491 3084 2119 3084 
Q 1678 3084 1418 2786 
Q 1159 2488 1159 1978 
L 1159 0 
L 581 0 
L 581 3500 
L 1159 3500 
L 1159 2956 
Q 1356 3278 1631 3431 
Q 1906 3584 2284 3584 
Q 2666 3584 2933 3390 
Q 3200 3197 3328 2828 
z
" transform="scale(0.015625)"/>
      <path id="DejaVuSans-35" d="M 691 4666 
L 3169 4666 
L 3169 4134 
L 1269 4134 
L 1269 2991 
Q 1406 3038 1543 3061 
Q 1681 3084 1819 3084 
Q 2600 3084 3056 2656 
Q 3513 2228 3513 1497 
Q 3513 744 3044 326 
Q 2575 -91 1722 -91 
Q 1428 -91 1123 -41 
Q 819 9 494 109 
L 494 744 
Q 775 591 1075 516 
Q 1375 441 1709 441 
Q 2250 441 2565 725 
Q 2881 1009 2881 1497 
Q 2881 1984 2565 2268 
Q 2250 2553 1709 2553 
Q 1456 2553 1204 2497 
Q 953 2441 691 2322 
L 691 4666 
z
" transform="scale(0.015625)"/>
      <path id="DejaVuSans-75" d="M 544 1381 
L 544 3500 
L 1119 3500 
L 1119 1403 
Q 1119 906 1312 657 
Q 1506 409 1894 409 
Q 2359 409 2629 706 
Q 2900 1003 2900 1516 
L 2900 3500 
L 3475 3500 
L 3475 0 
L 2900 0 
L 2900 538 
Q 2691 219 2414 64 
Q 2138 -91 1772 -91 
Q 1169 -91 856 284 
Q 544 659 544 1381 
z
M 1991 3584 
L 1991 3584 
z
" transform="scale(0.015625)"/>
      <path id="DejaVuSans-73" d="M 2834 3397 
L 2834 2853 
Q 2591 2978 2328 3040 
Q 2066 3103 1784 3103 
Q 1356 3103 1142 2972 
Q 928 2841 928 2578 
Q 928 2378 1081 2264 
Q 1234 2150 1697 2047 
L 1894 2003 
Q 2506 1872 2764 1633 
Q 3022 1394 3022 966 
Q 3022 478 2636 193 
Q 2250 -91 1575 -91 
Q 1294 -91 989 -36 
Q 684 19 347 128 
L 347 722 
Q 666 556 975 473 
Q 1284 391 1588 391 
Q 1994 391 2212 530 
Q 2431 669 2431 922 
Q 2431 1156 2273 1281 
Q 2116 1406 1581 1522 
L 1381 1569 
Q 847 1681 609 1914 
Q 372 2147 372 2553 
Q 372 3047 722 3315 
Q 1072 3584 1716 3584 
Q 2034 3584 2315 3537 
Q 2597 3491 2834 3397 
z
" transform="scale(0.015625)"/>
      <path id="DejaVuSans-7c" d="M 1344 4891 
L 1344 -1509 
L 813 -1509 
L 813 4891 
L 1344 4891 
z
" transform="scale(0.015625)"/>
      <path id="DejaVuSans-2d" d="M 313 2009 
L 1997 2009 
L 1997 1497 
L 313 1497 
L 313 2009 
z
" transform="scale(0.015625)"/>
      <path id="DejaVuSans-77" d="M 269 3500 
L 844 3500 
L 1563 769 
L 2278 3500 
L 2956 3500 
L 3675 769 
L 4391 3500 
L 4966 3500 
L 4050 0 
L 3372 0 
L 2619 2869 
L 1863 0 
L 1184 0 
L 269 3500 
z
" transform="scale(0.015625)"/>
      <path id="DejaVuSans-62" d="M 3116 1747 
Q 3116 2381 2855 2742 
Q 2594 3103 2138 3103 
Q 1681 3103 1420 2742 
Q 1159 2381 1159 1747 
Q 1159 1113 1420 752 
Q 1681 391 2138 391 
Q 2594 391 2855 752 
Q 3116 1113 3116 1747 
z
M 1159 2969 
Q 1341 3281 1617 3432 
Q 1894 3584 2278 3584 
Q 2916 3584 3314 3078 
Q 3713 2572 3713 1747 
Q 3713 922 3314 415 
Q 2916 -91 2278 -91 
Q 1894 -91 1617 61 
Q 1341 213 1159 525 
L 1159 0 
L 581 0 
L 581 4863 
L 1159 4863 
L 1159 2969 
z
" transform="scale(0.015625)"/>
      <path id="DejaVuSans-6c" d="M 603 4863 
L 1178 4863 
L 1178 0 
L 603 0 
L 603 4863 
z
" transform="scale(0.015625)"/>
      <path id="DejaVuSans-28" d="M 1984 4856 
Q 1566 4138 1362 3434 
Q 1159 2731 1159 2009 
Q 1159 1288 1364 580 
Q 1569 -128 1984 -844 
L 1484 -844 
Q 1016 -109 783 600 
Q 550 1309 550 2009 
Q 550 2706 781 3412 
Q 1013 4119 1484 4856 
L 1984 4856 
z
" transform="scale(0.015625)"/>
      <path id="DejaVuSans-6b" d="M 581 4863 
L 1159 4863 
L 1159 1991 
L 2875 3500 
L 3609 3500 
L 1753 1863 
L 3688 0 
L 2938 0 
L 1159 1709 
L 1159 0 
L 581 0 
L 581 4863 
z
" transform="scale(0.015625)"/>
      <path id="DejaVuSans-70" d="M 1159 525 
L 1159 -1331 
L 581 -1331 
L 581 3500 
L 1159 3500 
L 1159 2969 
Q 1341 3281 1617 3432 
Q 1894 3584 2278 3584 
Q 2916 3584 3314 3078 
Q 3713 2572 3713 1747 
Q 3713 922 3314 415 
Q 2916 -91 2278 -91 
Q 1894 -91 1617 61 
Q 1341 213 1159 525 
z
M 3116 1747 
Q 3116 2381 2855 2742 
Q 2594 3103 2138 3103 
Q 1681 3103 1420 2742 
Q 1159 2381 1159 1747 
Q 1159 1113 1420 752 
Q 1681 391 2138 391 
Q 2594 391 2855 752 
Q 3116 1113 3116 1747 
z
" transform="scale(0.015625)"/>
      <path id="DejaVuSans-3d" d="M 678 2906 
L 4684 2906 
L 4684 2381 
L 678 2381 
L 678 2906 
z
M 678 1631 
L 4684 1631 
L 4684 1100 
L 678 1100 
L 678 1631 
z
" transform="scale(0.015625)"/>
      <path id="DejaVuSans-5b" d="M 550 4863 
L 1875 4863 
L 1875 4416 
L 1125 4416 
L 1125 -397 
L 1875 -397 
L 1875 -844 
L 550 -844 
L 550 4863 
z
" transform="scale(0.015625)"/>
      <path id="DejaVuSans-2c" d="M 750 794 
L 1409 794 
L 1409 256 
L 897 -744 
L 494 -744 
L 750 256 
L 750 794 
z
" transform="scale(0.015625)"/>
      <path id="DejaVuSans-5d" d="M 1947 4863 
L 1947 -844 
L 622 -844 
L 622 -397 
L 1369 -397 
L 1369 4416 
L 622 4416 
L 622 4863 
L 1947 4863 
z
" transform="scale(0.015625)"/>
      <path id="DejaVuSans-29" d="M 513 4856 
L 1013 4856 
Q 1481 4119 1714 3412 
Q 1947 2706 1947 2009 
Q 1947 1309 1714 600 
Q 1481 -109 1013 -844 
L 513 -844 
Q 928 -128 1133 580 
Q 1338 1288 1338 2009 
Q 1338 2731 1133 3434 
Q 928 4138 513 4856 
z
" transform="scale(0.015625)"/>
     </defs>
     <use xlink:href="#DejaVuSans-41"/>
     <use xlink:href="#DejaVuSans-76" transform="translate(62.533203 0)"/>
     <use xlink:href="#DejaVuSans-65" transform="translate(121.712891 0)"/>
     <use xlink:href="#DejaVuSans-72" transform="translate(183.236328 0)"/>
     <use xlink:href="#DejaVuSans-61" transform="translate(224.349609 0)"/>
     <use xlink:href="#DejaVuSans-67" transform="translate(285.628906 0)"/>
     <use xlink:href="#DejaVuSans-65" transform="translate(349.105469 0)"/>
     <use xlink:href="#DejaVuSans-20" transform="translate(410.628906 0)"/>
     <use xlink:href="#DejaVuSans-50" transform="translate(442.416016 0)"/>
     <use xlink:href="#DejaVuSans-65" transform="translate(499.09375 0)"/>
     <use xlink:href="#DejaVuSans-72" transform="translate(560.617188 0)"/>
     <use xlink:href="#DejaVuSans-66" transform="translate(601.730469 0)"/>
     <use xlink:href="#DejaVuSans-6f" transform="translate(636.935547 0)"/>
     <use xlink:href="#DejaVuSans-72" transform="translate(698.117188 0)"/>
     <use xlink:href="#DejaVuSans-6d" transform="translate(737.480469 0)"/>
     <use xlink:href="#DejaVuSans-61" transform="translate(834.892578 0)"/>
     <use xlink:href="#DejaVuSans-6e" transform="translate(896.171875 0)"/>
     <use xlink:href="#DejaVuSans-63" transform="translate(959.550781 0)"/>
     <use xlink:href="#DejaVuSans-65" transform="translate(1014.53125 0)"/>
     <use xlink:href="#DejaVuSans-20" transform="translate(1076.054688 0)"/>
     <use xlink:href="#DejaVuSans-6f" transform="translate(1107.841797 0)"/>
     <use xlink:href="#DejaVuSans-76" transform="translate(1169.023438 0)"/>
     <use xlink:href="#DejaVuSans-65" transform="translate(1228.203125 0)"/>
     <use xlink:href="#DejaVuSans-72" transform="translate(1289.726562 0)"/>
     <use xlink:href="#DejaVuSans-20" transform="translate(1330.839844 0)"/>
     <use xlink:href="#DejaVuSans-31" transform="translate(1362.626953 0)"/>
     <use xlink:href="#DejaVuSans-35" transform="translate(1426.25 0)"/>
     <use xlink:href="#DejaVuSans-20" transform="translate(1489.873047 0)"/>
     <use xlink:href="#DejaVuSans-72" transform="translate(1521.660156 0)"/>
     <use xlink:href="#DejaVuSans-75" transform="translate(1562.773438 0)"/>
     <use xlink:href="#DejaVuSans-6e" transform="translate(1626.152344 0)"/>
     <use xlink:href="#DejaVuSans-73" transform="translate(1689.53125 0)"/>
     <use xlink:href="#DejaVuSans-20" transform="translate(1741.630859 0)"/>
     <use xlink:href="#DejaVuSans-7c" transform="translate(1773.417969 0)"/>
     <use xlink:href="#DejaVuSans-20" transform="translate(1807.109375 0)"/>
     <use xlink:href="#DejaVuSans-32" transform="translate(1838.896484 0)"/>
     <use xlink:href="#DejaVuSans-2d" transform="translate(1902.519531 0)"/>
     <use xlink:href="#DejaVuSans-74" transform="translate(1938.603516 0)"/>
     <use xlink:href="#DejaVuSans-77" transform="translate(1977.8125 0)"/>
     <use xlink:href="#DejaVuSans-6f" transform="translate(2059.599609 0)"/>
     <use xlink:href="#DejaVuSans-62" transform="translate(2120.78125 0)"/>
     <use xlink:href="#DejaVuSans-6c" transform="translate(2184.257812 0)"/>
     <use xlink:href="#DejaVuSans-6f" transform="translate(2212.041016 0)"/>
     <use xlink:href="#DejaVuSans-62" transform="translate(2273.222656 0)"/>
     <use xlink:href="#DejaVuSans-73" transform="translate(2336.699219 0)"/>
     <use xlink:href="#DejaVuSans-20" transform="translate(2388.798828 0)"/>
     <use xlink:href="#DejaVuSans-28" transform="translate(2420.585938 0)"/>
     <use xlink:href="#DejaVuSans-6b" transform="translate(2459.599609 0)"/>
     <use xlink:href="#DejaVuSans-61" transform="translate(2515.759766 0)"/>
     <use xlink:href="#DejaVuSans-70" transform="translate(2577.039062 0)"/>
     <use xlink:href="#DejaVuSans-70" transform="translate(2640.515625 0)"/>
     <use xlink:href="#DejaVuSans-61" transform="translate(2703.992188 0)"/>
     <use xlink:href="#DejaVuSans-73" transform="translate(2765.271484 0)"/>
     <use xlink:href="#DejaVuSans-3d" transform="translate(2817.371094 0)"/>
     <use xlink:href="#DejaVuSans-5b" transform="translate(2901.160156 0)"/>
     <use xlink:href="#DejaVuSans-31" transform="translate(2940.173828 0)"/>
     <use xlink:href="#DejaVuSans-2e" transform="translate(3003.796875 0)"/>
     <use xlink:href="#DejaVuSans-30" transform="translate(3035.583984 0)"/>
     <use xlink:href="#DejaVuSans-2c" transform="translate(3099.207031 0)"/>
     <use xlink:href="#DejaVuSans-20" transform="translate(3130.994141 0)"/>
     <use xlink:href="#DejaVuSans-31" transform="translate(3162.78125 0)"/>
     <use xlink:href="#DejaVuSans-2e" transform="translate(3226.404297 0)"/>
     <use xlink:href="#DejaVuSans-30" transform="translate(3258.191406 0)"/>
     <use xlink:href="#DejaVuSans-2c" transform="translate(3321.814453 0)"/>
     <use xlink:href="#DejaVuSans-20" transform="translate(3353.601562 0)"/>
     <use xlink:href="#DejaVuSans-31" transform="translate(3385.388672 0)"/>
     <use xlink:href="#DejaVuSans-2e" transform="translate(3449.011719 0)"/>
     <use xlink:href="#DejaVuSans-30" transform="translate(3480.798828 0)"/>
     <use xlink:href="#DejaVuSans-5d" transform="translate(3544.421875 0)"/>
     <use xlink:href="#DejaVuSans-29" transform="translate(3583.435547 0)"/>
    </g>
   </g>
   <g id="legend_1">
    <g id="patch_7">
     <path d="M 633.298369 131.865269 
L 771.769 131.865269 
Q 773.435 131.865269 773.435 130.199269 
L 773.435 57.671 
Q 773.435 56.005 771.769 56.005 
L 633.298369 56.005 
Q 631.632369 56.005 631.632369 57.671 
L 631.632369 130.199269 
Q 631.632369 131.865269 633.298369 131.865269 
z
" style="fill: #ffffff; opacity: 0.8; stroke: #cccccc; stroke-linejoin: miter"/>
    </g>
    <g id="line2d_29">
     <path d="M 634.964369 62.750998 
L 643.294369 62.750998 
L 651.624369 62.750998 
" style="fill: none; stroke-dasharray: 5.55,2.4; stroke-dashoffset: 0; stroke: #ff0000; stroke-width: 1.5"/>
    </g>
    <g id="text_15">
     <!-- ExactGPModel Exploration -->
     <g transform="translate(658.288369 65.666498) scale(0.0833 -0.0833)">
      <defs>
       <path id="DejaVuSans-45" d="M 628 4666 
L 3578 4666 
L 3578 4134 
L 1259 4134 
L 1259 2753 
L 3481 2753 
L 3481 2222 
L 1259 2222 
L 1259 531 
L 3634 531 
L 3634 0 
L 628 0 
L 628 4666 
z
" transform="scale(0.015625)"/>
       <path id="DejaVuSans-78" d="M 3513 3500 
L 2247 1797 
L 3578 0 
L 2900 0 
L 1881 1375 
L 863 0 
L 184 0 
L 1544 1831 
L 300 3500 
L 978 3500 
L 1906 2253 
L 2834 3500 
L 3513 3500 
z
" transform="scale(0.015625)"/>
       <path id="DejaVuSans-47" d="M 3809 666 
L 3809 1919 
L 2778 1919 
L 2778 2438 
L 4434 2438 
L 4434 434 
Q 4069 175 3628 42 
Q 3188 -91 2688 -91 
Q 1594 -91 976 548 
Q 359 1188 359 2328 
Q 359 3472 976 4111 
Q 1594 4750 2688 4750 
Q 3144 4750 3555 4637 
Q 3966 4525 4313 4306 
L 4313 3634 
Q 3963 3931 3569 4081 
Q 3175 4231 2741 4231 
Q 1884 4231 1454 3753 
Q 1025 3275 1025 2328 
Q 1025 1384 1454 906 
Q 1884 428 2741 428 
Q 3075 428 3337 486 
Q 3600 544 3809 666 
z
" transform="scale(0.015625)"/>
       <path id="DejaVuSans-64" d="M 2906 2969 
L 2906 4863 
L 3481 4863 
L 3481 0 
L 2906 0 
L 2906 525 
Q 2725 213 2448 61 
Q 2172 -91 1784 -91 
Q 1150 -91 751 415 
Q 353 922 353 1747 
Q 353 2572 751 3078 
Q 1150 3584 1784 3584 
Q 2172 3584 2448 3432 
Q 2725 3281 2906 2969 
z
M 947 1747 
Q 947 1113 1208 752 
Q 1469 391 1925 391 
Q 2381 391 2643 752 
Q 2906 1113 2906 1747 
Q 2906 2381 2643 2742 
Q 2381 3103 1925 3103 
Q 1469 3103 1208 2742 
Q 947 2381 947 1747 
z
" transform="scale(0.015625)"/>
      </defs>
      <use xlink:href="#DejaVuSans-45"/>
      <use xlink:href="#DejaVuSans-78" transform="translate(63.183594 0)"/>
      <use xlink:href="#DejaVuSans-61" transform="translate(122.363281 0)"/>
      <use xlink:href="#DejaVuSans-63" transform="translate(183.642578 0)"/>
      <use xlink:href="#DejaVuSans-74" transform="translate(238.623047 0)"/>
      <use xlink:href="#DejaVuSans-47" transform="translate(277.832031 0)"/>
      <use xlink:href="#DejaVuSans-50" transform="translate(355.322266 0)"/>
      <use xlink:href="#DejaVuSans-4d" transform="translate(415.625 0)"/>
      <use xlink:href="#DejaVuSans-6f" transform="translate(501.904297 0)"/>
      <use xlink:href="#DejaVuSans-64" transform="translate(563.085938 0)"/>
      <use xlink:href="#DejaVuSans-65" transform="translate(626.5625 0)"/>
      <use xlink:href="#DejaVuSans-6c" transform="translate(688.085938 0)"/>
      <use xlink:href="#DejaVuSans-20" transform="translate(715.869141 0)"/>
      <use xlink:href="#DejaVuSans-45" transform="translate(747.65625 0)"/>
      <use xlink:href="#DejaVuSans-78" transform="translate(810.839844 0)"/>
      <use xlink:href="#DejaVuSans-70" transform="translate(870.019531 0)"/>
      <use xlink:href="#DejaVuSans-6c" transform="translate(933.496094 0)"/>
      <use xlink:href="#DejaVuSans-6f" transform="translate(961.279297 0)"/>
      <use xlink:href="#DejaVuSans-72" transform="translate(1022.460938 0)"/>
      <use xlink:href="#DejaVuSans-61" transform="translate(1063.574219 0)"/>
      <use xlink:href="#DejaVuSans-74" transform="translate(1124.853516 0)"/>
      <use xlink:href="#DejaVuSans-69" transform="translate(1164.0625 0)"/>
      <use xlink:href="#DejaVuSans-6f" transform="translate(1191.845703 0)"/>
      <use xlink:href="#DejaVuSans-6e" transform="translate(1253.027344 0)"/>
     </g>
    </g>
    <g id="line2d_30">
     <path d="M 634.964369 74.977877 
L 643.294369 74.977877 
L 651.624369 74.977877 
" style="fill: none; stroke: #ff0000; stroke-width: 1.5; stroke-linecap: square"/>
    </g>
    <g id="text_16">
     <!-- ExactGPModel Exploitation -->
     <g transform="translate(658.288369 77.893377) scale(0.0833 -0.0833)">
      <use xlink:href="#DejaVuSans-45"/>
      <use xlink:href="#DejaVuSans-78" transform="translate(63.183594 0)"/>
      <use xlink:href="#DejaVuSans-61" transform="translate(122.363281 0)"/>
      <use xlink:href="#DejaVuSans-63" transform="translate(183.642578 0)"/>
      <use xlink:href="#DejaVuSans-74" transform="translate(238.623047 0)"/>
      <use xlink:href="#DejaVuSans-47" transform="translate(277.832031 0)"/>
      <use xlink:href="#DejaVuSans-50" transform="translate(355.322266 0)"/>
      <use xlink:href="#DejaVuSans-4d" transform="translate(415.625 0)"/>
      <use xlink:href="#DejaVuSans-6f" transform="translate(501.904297 0)"/>
      <use xlink:href="#DejaVuSans-64" transform="translate(563.085938 0)"/>
      <use xlink:href="#DejaVuSans-65" transform="translate(626.5625 0)"/>
      <use xlink:href="#DejaVuSans-6c" transform="translate(688.085938 0)"/>
      <use xlink:href="#DejaVuSans-20" transform="translate(715.869141 0)"/>
      <use xlink:href="#DejaVuSans-45" transform="translate(747.65625 0)"/>
      <use xlink:href="#DejaVuSans-78" transform="translate(810.839844 0)"/>
      <use xlink:href="#DejaVuSans-70" transform="translate(870.019531 0)"/>
      <use xlink:href="#DejaVuSans-6c" transform="translate(933.496094 0)"/>
      <use xlink:href="#DejaVuSans-6f" transform="translate(961.279297 0)"/>
      <use xlink:href="#DejaVuSans-69" transform="translate(1022.460938 0)"/>
      <use xlink:href="#DejaVuSans-74" transform="translate(1050.244141 0)"/>
      <use xlink:href="#DejaVuSans-61" transform="translate(1089.453125 0)"/>
      <use xlink:href="#DejaVuSans-74" transform="translate(1150.732422 0)"/>
      <use xlink:href="#DejaVuSans-69" transform="translate(1189.941406 0)"/>
      <use xlink:href="#DejaVuSans-6f" transform="translate(1217.724609 0)"/>
      <use xlink:href="#DejaVuSans-6e" transform="translate(1278.90625 0)"/>
     </g>
    </g>
    <g id="line2d_31">
     <path d="M 634.964369 87.204755 
L 643.294369 87.204755 
L 651.624369 87.204755 
" style="fill: none; stroke-dasharray: 5.55,2.4; stroke-dashoffset: 0; stroke: #0000ff; stroke-width: 1.5"/>
    </g>
    <g id="text_17">
     <!-- AdditiveGP Exploration -->
     <g transform="translate(658.288369 90.120255) scale(0.0833 -0.0833)">
      <use xlink:href="#DejaVuSans-41"/>
      <use xlink:href="#DejaVuSans-64" transform="translate(66.658203 0)"/>
      <use xlink:href="#DejaVuSans-64" transform="translate(130.134766 0)"/>
      <use xlink:href="#DejaVuSans-69" transform="translate(193.611328 0)"/>
      <use xlink:href="#DejaVuSans-74" transform="translate(221.394531 0)"/>
      <use xlink:href="#DejaVuSans-69" transform="translate(260.603516 0)"/>
      <use xlink:href="#DejaVuSans-76" transform="translate(288.386719 0)"/>
      <use xlink:href="#DejaVuSans-65" transform="translate(347.566406 0)"/>
      <use xlink:href="#DejaVuSans-47" transform="translate(409.089844 0)"/>
      <use xlink:href="#DejaVuSans-50" transform="translate(486.580078 0)"/>
      <use xlink:href="#DejaVuSans-20" transform="translate(546.882812 0)"/>
      <use xlink:href="#DejaVuSans-45" transform="translate(578.669922 0)"/>
      <use xlink:href="#DejaVuSans-78" transform="translate(641.853516 0)"/>
      <use xlink:href="#DejaVuSans-70" transform="translate(701.033203 0)"/>
      <use xlink:href="#DejaVuSans-6c" transform="translate(764.509766 0)"/>
      <use xlink:href="#DejaVuSans-6f" transform="translate(792.292969 0)"/>
      <use xlink:href="#DejaVuSans-72" transform="translate(853.474609 0)"/>
      <use xlink:href="#DejaVuSans-61" transform="translate(894.587891 0)"/>
      <use xlink:href="#DejaVuSans-74" transform="translate(955.867188 0)"/>
      <use xlink:href="#DejaVuSans-69" transform="translate(995.076172 0)"/>
      <use xlink:href="#DejaVuSans-6f" transform="translate(1022.859375 0)"/>
      <use xlink:href="#DejaVuSans-6e" transform="translate(1084.041016 0)"/>
     </g>
    </g>
    <g id="line2d_32">
     <path d="M 634.964369 99.431633 
L 643.294369 99.431633 
L 651.624369 99.431633 
" style="fill: none; stroke: #0000ff; stroke-width: 1.5; stroke-linecap: square"/>
    </g>
    <g id="text_18">
     <!-- AdditiveGP Exploitation -->
     <g transform="translate(658.288369 102.347133) scale(0.0833 -0.0833)">
      <use xlink:href="#DejaVuSans-41"/>
      <use xlink:href="#DejaVuSans-64" transform="translate(66.658203 0)"/>
      <use xlink:href="#DejaVuSans-64" transform="translate(130.134766 0)"/>
      <use xlink:href="#DejaVuSans-69" transform="translate(193.611328 0)"/>
      <use xlink:href="#DejaVuSans-74" transform="translate(221.394531 0)"/>
      <use xlink:href="#DejaVuSans-69" transform="translate(260.603516 0)"/>
      <use xlink:href="#DejaVuSans-76" transform="translate(288.386719 0)"/>
      <use xlink:href="#DejaVuSans-65" transform="translate(347.566406 0)"/>
      <use xlink:href="#DejaVuSans-47" transform="translate(409.089844 0)"/>
      <use xlink:href="#DejaVuSans-50" transform="translate(486.580078 0)"/>
      <use xlink:href="#DejaVuSans-20" transform="translate(546.882812 0)"/>
      <use xlink:href="#DejaVuSans-45" transform="translate(578.669922 0)"/>
      <use xlink:href="#DejaVuSans-78" transform="translate(641.853516 0)"/>
      <use xlink:href="#DejaVuSans-70" transform="translate(701.033203 0)"/>
      <use xlink:href="#DejaVuSans-6c" transform="translate(764.509766 0)"/>
      <use xlink:href="#DejaVuSans-6f" transform="translate(792.292969 0)"/>
      <use xlink:href="#DejaVuSans-69" transform="translate(853.474609 0)"/>
      <use xlink:href="#DejaVuSans-74" transform="translate(881.257812 0)"/>
      <use xlink:href="#DejaVuSans-61" transform="translate(920.466797 0)"/>
      <use xlink:href="#DejaVuSans-74" transform="translate(981.746094 0)"/>
      <use xlink:href="#DejaVuSans-69" transform="translate(1020.955078 0)"/>
      <use xlink:href="#DejaVuSans-6f" transform="translate(1048.738281 0)"/>
      <use xlink:href="#DejaVuSans-6e" transform="translate(1109.919922 0)"/>
     </g>
    </g>
    <g id="line2d_33">
     <path d="M 634.964369 111.658511 
L 643.294369 111.658511 
L 651.624369 111.658511 
" style="fill: none; stroke-dasharray: 5.55,2.4; stroke-dashoffset: 0; stroke: #008000; stroke-width: 1.5"/>
    </g>
    <g id="text_19">
     <!-- SobolGP Exploration -->
     <g transform="translate(658.288369 114.574011) scale(0.0833 -0.0833)">
      <defs>
       <path id="DejaVuSans-53" d="M 3425 4513 
L 3425 3897 
Q 3066 4069 2747 4153 
Q 2428 4238 2131 4238 
Q 1616 4238 1336 4038 
Q 1056 3838 1056 3469 
Q 1056 3159 1242 3001 
Q 1428 2844 1947 2747 
L 2328 2669 
Q 3034 2534 3370 2195 
Q 3706 1856 3706 1288 
Q 3706 609 3251 259 
Q 2797 -91 1919 -91 
Q 1588 -91 1214 -16 
Q 841 59 441 206 
L 441 856 
Q 825 641 1194 531 
Q 1563 422 1919 422 
Q 2459 422 2753 634 
Q 3047 847 3047 1241 
Q 3047 1584 2836 1778 
Q 2625 1972 2144 2069 
L 1759 2144 
Q 1053 2284 737 2584 
Q 422 2884 422 3419 
Q 422 4038 858 4394 
Q 1294 4750 2059 4750 
Q 2388 4750 2728 4690 
Q 3069 4631 3425 4513 
z
" transform="scale(0.015625)"/>
      </defs>
      <use xlink:href="#DejaVuSans-53"/>
      <use xlink:href="#DejaVuSans-6f" transform="translate(63.476562 0)"/>
      <use xlink:href="#DejaVuSans-62" transform="translate(124.658203 0)"/>
      <use xlink:href="#DejaVuSans-6f" transform="translate(188.134766 0)"/>
      <use xlink:href="#DejaVuSans-6c" transform="translate(249.316406 0)"/>
      <use xlink:href="#DejaVuSans-47" transform="translate(277.099609 0)"/>
      <use xlink:href="#DejaVuSans-50" transform="translate(354.589844 0)"/>
      <use xlink:href="#DejaVuSans-20" transform="translate(414.892578 0)"/>
      <use xlink:href="#DejaVuSans-45" transform="translate(446.679688 0)"/>
      <use xlink:href="#DejaVuSans-78" transform="translate(509.863281 0)"/>
      <use xlink:href="#DejaVuSans-70" transform="translate(569.042969 0)"/>
      <use xlink:href="#DejaVuSans-6c" transform="translate(632.519531 0)"/>
      <use xlink:href="#DejaVuSans-6f" transform="translate(660.302734 0)"/>
      <use xlink:href="#DejaVuSans-72" transform="translate(721.484375 0)"/>
      <use xlink:href="#DejaVuSans-61" transform="translate(762.597656 0)"/>
      <use xlink:href="#DejaVuSans-74" transform="translate(823.876953 0)"/>
      <use xlink:href="#DejaVuSans-69" transform="translate(863.085938 0)"/>
      <use xlink:href="#DejaVuSans-6f" transform="translate(890.869141 0)"/>
      <use xlink:href="#DejaVuSans-6e" transform="translate(952.050781 0)"/>
     </g>
    </g>
    <g id="line2d_34">
     <path d="M 634.964369 123.885389 
L 643.294369 123.885389 
L 651.624369 123.885389 
" style="fill: none; stroke: #008000; stroke-width: 1.5; stroke-linecap: square"/>
    </g>
    <g id="text_20">
     <!-- SobolGP Exploitation -->
     <g transform="translate(658.288369 126.800889) scale(0.0833 -0.0833)">
      <use xlink:href="#DejaVuSans-53"/>
      <use xlink:href="#DejaVuSans-6f" transform="translate(63.476562 0)"/>
      <use xlink:href="#DejaVuSans-62" transform="translate(124.658203 0)"/>
      <use xlink:href="#DejaVuSans-6f" transform="translate(188.134766 0)"/>
      <use xlink:href="#DejaVuSans-6c" transform="translate(249.316406 0)"/>
      <use xlink:href="#DejaVuSans-47" transform="translate(277.099609 0)"/>
      <use xlink:href="#DejaVuSans-50" transform="translate(354.589844 0)"/>
      <use xlink:href="#DejaVuSans-20" transform="translate(414.892578 0)"/>
      <use xlink:href="#DejaVuSans-45" transform="translate(446.679688 0)"/>
      <use xlink:href="#DejaVuSans-78" transform="translate(509.863281 0)"/>
      <use xlink:href="#DejaVuSans-70" transform="translate(569.042969 0)"/>
      <use xlink:href="#DejaVuSans-6c" transform="translate(632.519531 0)"/>
      <use xlink:href="#DejaVuSans-6f" transform="translate(660.302734 0)"/>
      <use xlink:href="#DejaVuSans-69" transform="translate(721.484375 0)"/>
      <use xlink:href="#DejaVuSans-74" transform="translate(749.267578 0)"/>
      <use xlink:href="#DejaVuSans-61" transform="translate(788.476562 0)"/>
      <use xlink:href="#DejaVuSans-74" transform="translate(849.755859 0)"/>
      <use xlink:href="#DejaVuSans-69" transform="translate(888.964844 0)"/>
      <use xlink:href="#DejaVuSans-6f" transform="translate(916.748047 0)"/>
      <use xlink:href="#DejaVuSans-6e" transform="translate(977.929688 0)"/>
     </g>
    </g>
   </g>
  </g>
 </g>
 <defs>
  <clipPath id="p38ae61800c">
   <rect x="108" y="51.84" width="669.6" height="332.64"/>
  </clipPath>
 </defs>
</svg>
