<?xml version="1.0" encoding="utf-8" standalone="no"?>
<!DOCTYPE svg PUBLIC "-//W3C//DTD SVG 1.1//EN"
  "http://www.w3.org/Graphics/SVG/1.1/DTD/svg11.dtd">
<svg xmlns:xlink="http://www.w3.org/1999/xlink" width="864pt" height="360pt" viewBox="0 0 864 360" xmlns="http://www.w3.org/2000/svg" version="1.1">
 <metadata>
  <rdf:RDF xmlns:dc="http://purl.org/dc/elements/1.1/" xmlns:cc="http://creativecommons.org/ns#" xmlns:rdf="http://www.w3.org/1999/02/22-rdf-syntax-ns#">
   <cc:Work>
    <dc:type rdf:resource="http://purl.org/dc/dcmitype/StillImage"/>
    <dc:date>2025-10-01T11:45:55.165297</dc:date>
    <dc:format>image/svg+xml</dc:format>
    <dc:creator>
     <cc:Agent>
      <dc:title>Matplotlib v3.10.1, https://matplotlib.org/</dc:title>
     </cc:Agent>
    </dc:creator>
   </cc:Work>
  </rdf:RDF>
 </metadata>
 <defs>
  <style type="text/css">*{stroke-linejoin: round; stroke-linecap: butt}</style>
 </defs>
 <g id="figure_1">
  <g id="patch_1">
   <path d="M 0 360 
L 864 360 
L 864 0 
L 0 0 
z
" style="fill: #ffffff"/>
  </g>
  <g id="axes_1">
   <g id="patch_2">
    <path d="M 108 320.4 
L 777.6 320.4 
L 777.6 43.2 
L 108 43.2 
z
" style="fill: #ffffff"/>
   </g>
   <g id="FillBetweenPolyCollection_1">
    <defs>
     <path id="m4566121f77" d="M 138.436364 -178.2 
L 138.436364 -178.2 
L 145.125674 -178.2 
L 151.814985 -178.2 
L 158.504296 -178.2 
L 165.193606 -178.2 
L 171.882917 -178.2 
L 178.572228 -178.2 
L 185.261538 -178.2 
L 191.950849 -178.2 
L 198.64016 -178.2 
L 205.329471 -178.2 
L 212.018781 -178.2 
L 218.708092 -178.2 
L 225.397403 -178.2 
L 232.086713 -178.2 
L 238.776024 -178.2 
L 245.465335 -178.2 
L 252.154645 -178.2 
L 258.843956 -178.2 
L 265.533267 -178.2 
L 272.222577 -178.2 
L 278.911888 -178.2 
L 285.601199 -178.2 
L 292.290509 -178.2 
L 298.97982 -178.2 
L 305.669131 -178.2 
L 312.358442 -178.2 
L 319.047752 -178.2 
L 325.737063 -178.2 
L 332.426374 -178.2 
L 339.115684 -178.2 
L 345.804995 -178.2 
L 352.494306 -178.2 
L 359.183616 -178.2 
L 365.872927 -178.2 
L 372.562238 -178.2 
L 379.251548 -178.2 
L 385.940859 -178.2 
L 392.63017 -178.2 
L 399.319481 -178.2 
L 406.008791 -178.2 
L 412.698102 -178.2 
L 419.387413 -178.2 
L 426.076723 -178.2 
L 432.766034 -178.2 
L 439.455345 -178.2 
L 446.144655 -178.2 
L 452.833966 -178.2 
L 459.523277 -178.2 
L 466.212587 -178.2 
L 472.901898 -178.2 
L 479.591209 -178.2 
L 486.280519 -178.2 
L 492.96983 -178.2 
L 499.659141 -178.2 
L 506.348452 -178.2 
L 513.037762 -178.2 
L 519.727073 -178.2 
L 526.416384 -178.2 
L 533.105694 -178.2 
L 539.795005 -178.2 
L 546.484316 -178.2 
L 553.173626 -178.2 
L 559.862937 -178.2 
L 566.552248 -178.2 
L 573.241558 -178.2 
L 579.930869 -178.2 
L 586.62018 -178.2 
L 593.309491 -178.2 
L 599.998801 -178.2 
L 606.688112 -178.2 
L 613.377423 -178.2 
L 620.066733 -178.2 
L 626.756044 -178.2 
L 633.445355 -178.2 
L 640.134665 -178.2 
L 646.823976 -178.2 
L 653.513287 -178.2 
L 660.202597 -178.2 
L 666.891908 -178.2 
L 673.581219 -178.2 
L 680.270529 -178.2 
L 686.95984 -178.2 
L 693.649151 -178.2 
L 700.338462 -178.2 
L 707.027772 -178.2 
L 713.717083 -178.2 
L 720.406394 -178.2 
L 727.095704 -178.2 
L 733.785015 -178.2 
L 740.474326 -178.2 
L 747.163636 -178.2 
L 747.163636 -178.2 
L 747.163636 -178.2 
L 740.474326 -178.2 
L 733.785015 -178.2 
L 727.095704 -178.2 
L 720.406394 -178.2 
L 713.717083 -178.2 
L 707.027772 -178.2 
L 700.338462 -178.2 
L 693.649151 -178.2 
L 686.95984 -178.2 
L 680.270529 -178.2 
L 673.581219 -178.2 
L 666.891908 -178.2 
L 660.202597 -178.2 
L 653.513287 -178.2 
L 646.823976 -178.2 
L 640.134665 -178.2 
L 633.445355 -178.2 
L 626.756044 -178.2 
L 620.066733 -178.2 
L 613.377423 -178.2 
L 606.688112 -178.2 
L 599.998801 -178.2 
L 593.309491 -178.2 
L 586.62018 -178.2 
L 579.930869 -178.2 
L 573.241558 -178.2 
L 566.552248 -178.2 
L 559.862937 -178.2 
L 553.173626 -178.2 
L 546.484316 -178.2 
L 539.795005 -178.2 
L 533.105694 -178.2 
L 526.416384 -178.2 
L 519.727073 -178.2 
L 513.037762 -178.2 
L 506.348452 -178.2 
L 499.659141 -178.2 
L 492.96983 -178.2 
L 486.280519 -178.2 
L 479.591209 -178.2 
L 472.901898 -178.2 
L 466.212587 -178.2 
L 459.523277 -178.2 
L 452.833966 -178.2 
L 446.144655 -178.2 
L 439.455345 -178.2 
L 432.766034 -178.2 
L 426.076723 -178.2 
L 419.387413 -178.2 
L 412.698102 -178.2 
L 406.008791 -178.2 
L 399.319481 -178.2 
L 392.63017 -178.2 
L 385.940859 -178.2 
L 379.251548 -178.2 
L 372.562238 -178.2 
L 365.872927 -178.2 
L 359.183616 -178.2 
L 352.494306 -178.2 
L 345.804995 -178.2 
L 339.115684 -178.2 
L 332.426374 -178.2 
L 325.737063 -178.2 
L 319.047752 -178.2 
L 312.358442 -178.2 
L 305.669131 -178.2 
L 298.97982 -178.2 
L 292.290509 -178.2 
L 285.601199 -178.2 
L 278.911888 -178.2 
L 272.222577 -178.2 
L 265.533267 -178.2 
L 258.843956 -178.2 
L 252.154645 -178.2 
L 245.465335 -178.2 
L 238.776024 -178.2 
L 232.086713 -178.2 
L 225.397403 -178.2 
L 218.708092 -178.2 
L 212.018781 -178.2 
L 205.329471 -178.2 
L 198.64016 -178.2 
L 191.950849 -178.2 
L 185.261538 -178.2 
L 178.572228 -178.2 
L 171.882917 -178.2 
L 165.193606 -178.2 
L 158.504296 -178.2 
L 151.814985 -178.2 
L 145.125674 -178.2 
L 138.436364 -178.2 
z
" style="stroke: #ff0000; stroke-opacity: 0.2"/>
    </defs>
    <g clip-path="url(#p17525e6c41)">
     <use xlink:href="#m4566121f77" x="0" y="360" style="fill: #ff0000; fill-opacity: 0.2; stroke: #ff0000; stroke-opacity: 0.2"/>
    </g>
   </g>
   <g id="FillBetweenPolyCollection_2">
    <defs>
     <path id="mf7f26a4437" d="M 138.436364 -178.2 
L 138.436364 -178.2 
L 145.125674 -178.2 
L 151.814985 -178.2 
L 158.504296 -178.2 
L 165.193606 -178.2 
L 171.882917 -178.2 
L 178.572228 -178.2 
L 185.261538 -178.2 
L 191.950849 -178.2 
L 198.64016 -178.2 
L 205.329471 -178.2 
L 212.018781 -178.2 
L 218.708092 -178.2 
L 225.397403 -178.2 
L 232.086713 -178.2 
L 238.776024 -178.2 
L 245.465335 -178.2 
L 252.154645 -178.2 
L 258.843956 -178.2 
L 265.533267 -178.2 
L 272.222577 -178.2 
L 278.911888 -178.2 
L 285.601199 -178.2 
L 292.290509 -178.2 
L 298.97982 -178.2 
L 305.669131 -178.2 
L 312.358442 -178.2 
L 319.047752 -178.2 
L 325.737063 -178.2 
L 332.426374 -178.2 
L 339.115684 -178.2 
L 345.804995 -178.2 
L 352.494306 -178.2 
L 359.183616 -178.2 
L 365.872927 -178.2 
L 372.562238 -178.2 
L 379.251548 -178.2 
L 385.940859 -178.2 
L 392.63017 -178.2 
L 399.319481 -178.2 
L 406.008791 -178.2 
L 412.698102 -178.2 
L 419.387413 -178.2 
L 426.076723 -178.2 
L 432.766034 -178.2 
L 439.455345 -178.2 
L 446.144655 -178.2 
L 452.833966 -178.2 
L 459.523277 -178.2 
L 466.212587 -178.2 
L 472.901898 -178.2 
L 479.591209 -178.2 
L 486.280519 -178.2 
L 492.96983 -178.2 
L 499.659141 -178.2 
L 506.348452 -178.2 
L 513.037762 -178.2 
L 519.727073 -178.2 
L 526.416384 -178.2 
L 533.105694 -178.2 
L 539.795005 -178.2 
L 546.484316 -178.2 
L 553.173626 -178.2 
L 559.862937 -178.2 
L 566.552248 -178.2 
L 573.241558 -178.2 
L 579.930869 -178.2 
L 586.62018 -178.2 
L 593.309491 -178.2 
L 599.998801 -178.2 
L 606.688112 -178.2 
L 613.377423 -178.2 
L 620.066733 -178.2 
L 626.756044 -178.2 
L 633.445355 -178.2 
L 640.134665 -178.2 
L 646.823976 -178.2 
L 653.513287 -178.2 
L 660.202597 -178.2 
L 666.891908 -178.2 
L 673.581219 -178.2 
L 680.270529 -178.2 
L 686.95984 -178.2 
L 693.649151 -178.2 
L 700.338462 -178.2 
L 707.027772 -178.2 
L 713.717083 -178.2 
L 720.406394 -178.2 
L 727.095704 -178.2 
L 733.785015 -178.2 
L 740.474326 -178.2 
L 747.163636 -178.2 
L 747.163636 -178.2 
L 747.163636 -178.2 
L 740.474326 -178.2 
L 733.785015 -178.2 
L 727.095704 -178.2 
L 720.406394 -178.2 
L 713.717083 -178.2 
L 707.027772 -178.2 
L 700.338462 -178.2 
L 693.649151 -178.2 
L 686.95984 -178.2 
L 680.270529 -178.2 
L 673.581219 -178.2 
L 666.891908 -178.2 
L 660.202597 -178.2 
L 653.513287 -178.2 
L 646.823976 -178.2 
L 640.134665 -178.2 
L 633.445355 -178.2 
L 626.756044 -178.2 
L 620.066733 -178.2 
L 613.377423 -178.2 
L 606.688112 -178.2 
L 599.998801 -178.2 
L 593.309491 -178.2 
L 586.62018 -178.2 
L 579.930869 -178.2 
L 573.241558 -178.2 
L 566.552248 -178.2 
L 559.862937 -178.2 
L 553.173626 -178.2 
L 546.484316 -178.2 
L 539.795005 -178.2 
L 533.105694 -178.2 
L 526.416384 -178.2 
L 519.727073 -178.2 
L 513.037762 -178.2 
L 506.348452 -178.2 
L 499.659141 -178.2 
L 492.96983 -178.2 
L 486.280519 -178.2 
L 479.591209 -178.2 
L 472.901898 -178.2 
L 466.212587 -178.2 
L 459.523277 -178.2 
L 452.833966 -178.2 
L 446.144655 -178.2 
L 439.455345 -178.2 
L 432.766034 -178.2 
L 426.076723 -178.2 
L 419.387413 -178.2 
L 412.698102 -178.2 
L 406.008791 -178.2 
L 399.319481 -178.2 
L 392.63017 -178.2 
L 385.940859 -178.2 
L 379.251548 -178.2 
L 372.562238 -178.2 
L 365.872927 -178.2 
L 359.183616 -178.2 
L 352.494306 -178.2 
L 345.804995 -178.2 
L 339.115684 -178.2 
L 332.426374 -178.2 
L 325.737063 -178.2 
L 319.047752 -178.2 
L 312.358442 -178.2 
L 305.669131 -178.2 
L 298.97982 -178.2 
L 292.290509 -178.2 
L 285.601199 -178.2 
L 278.911888 -178.2 
L 272.222577 -178.2 
L 265.533267 -178.2 
L 258.843956 -178.2 
L 252.154645 -178.2 
L 245.465335 -178.2 
L 238.776024 -178.2 
L 232.086713 -178.2 
L 225.397403 -178.2 
L 218.708092 -178.2 
L 212.018781 -178.2 
L 205.329471 -178.2 
L 198.64016 -178.2 
L 191.950849 -178.2 
L 185.261538 -178.2 
L 178.572228 -178.2 
L 171.882917 -178.2 
L 165.193606 -178.2 
L 158.504296 -178.2 
L 151.814985 -178.2 
L 145.125674 -178.2 
L 138.436364 -178.2 
z
" style="stroke: #0000ff; stroke-opacity: 0.2"/>
    </defs>
    <g clip-path="url(#p17525e6c41)">
     <use xlink:href="#mf7f26a4437" x="0" y="360" style="fill: #0000ff; fill-opacity: 0.2; stroke: #0000ff; stroke-opacity: 0.2"/>
    </g>
   </g>
   <g id="FillBetweenPolyCollection_3">
    <defs>
     <path id="m0c02d37557" d="M 138.436364 -178.2 
L 138.436364 -178.2 
L 145.125674 -178.2 
L 151.814985 -178.2 
L 158.504296 -178.2 
L 165.193606 -178.2 
L 171.882917 -178.2 
L 178.572228 -178.2 
L 185.261538 -178.2 
L 191.950849 -178.2 
L 198.64016 -178.2 
L 205.329471 -178.2 
L 212.018781 -178.2 
L 218.708092 -178.2 
L 225.397403 -178.2 
L 232.086713 -178.2 
L 238.776024 -178.2 
L 245.465335 -178.2 
L 252.154645 -178.2 
L 258.843956 -178.2 
L 265.533267 -178.2 
L 272.222577 -178.2 
L 278.911888 -178.2 
L 285.601199 -178.2 
L 292.290509 -178.2 
L 298.97982 -178.2 
L 305.669131 -178.2 
L 312.358442 -178.2 
L 319.047752 -178.2 
L 325.737063 -178.2 
L 332.426374 -178.2 
L 339.115684 -178.2 
L 345.804995 -178.2 
L 352.494306 -178.2 
L 359.183616 -178.2 
L 365.872927 -178.2 
L 372.562238 -178.2 
L 379.251548 -178.2 
L 385.940859 -178.2 
L 392.63017 -178.2 
L 399.319481 -178.2 
L 406.008791 -178.2 
L 412.698102 -178.2 
L 419.387413 -178.2 
L 426.076723 -178.2 
L 432.766034 -178.2 
L 439.455345 -178.2 
L 446.144655 -178.2 
L 452.833966 -178.2 
L 459.523277 -178.2 
L 466.212587 -178.2 
L 472.901898 -178.2 
L 479.591209 -178.2 
L 486.280519 -178.2 
L 492.96983 -178.2 
L 499.659141 -178.2 
L 506.348452 -178.2 
L 513.037762 -178.2 
L 519.727073 -178.2 
L 526.416384 -178.2 
L 533.105694 -178.2 
L 539.795005 -178.2 
L 546.484316 -178.2 
L 553.173626 -178.2 
L 559.862937 -178.2 
L 566.552248 -178.2 
L 573.241558 -178.2 
L 579.930869 -178.2 
L 586.62018 -178.2 
L 593.309491 -178.2 
L 599.998801 -178.2 
L 606.688112 -178.2 
L 613.377423 -178.2 
L 620.066733 -178.2 
L 626.756044 -178.2 
L 633.445355 -178.2 
L 640.134665 -178.2 
L 646.823976 -178.2 
L 653.513287 -178.2 
L 660.202597 -178.2 
L 666.891908 -178.2 
L 673.581219 -178.2 
L 680.270529 -178.2 
L 686.95984 -178.2 
L 693.649151 -178.2 
L 700.338462 -178.2 
L 707.027772 -178.2 
L 713.717083 -178.2 
L 720.406394 -178.2 
L 727.095704 -178.2 
L 733.785015 -178.2 
L 740.474326 -178.2 
L 747.163636 -178.2 
L 747.163636 -178.2 
L 747.163636 -178.2 
L 740.474326 -178.2 
L 733.785015 -178.2 
L 727.095704 -178.2 
L 720.406394 -178.2 
L 713.717083 -178.2 
L 707.027772 -178.2 
L 700.338462 -178.2 
L 693.649151 -178.2 
L 686.95984 -178.2 
L 680.270529 -178.2 
L 673.581219 -178.2 
L 666.891908 -178.2 
L 660.202597 -178.2 
L 653.513287 -178.2 
L 646.823976 -178.2 
L 640.134665 -178.2 
L 633.445355 -178.2 
L 626.756044 -178.2 
L 620.066733 -178.2 
L 613.377423 -178.2 
L 606.688112 -178.2 
L 599.998801 -178.2 
L 593.309491 -178.2 
L 586.62018 -178.2 
L 579.930869 -178.2 
L 573.241558 -178.2 
L 566.552248 -178.2 
L 559.862937 -178.2 
L 553.173626 -178.2 
L 546.484316 -178.2 
L 539.795005 -178.2 
L 533.105694 -178.2 
L 526.416384 -178.2 
L 519.727073 -178.2 
L 513.037762 -178.2 
L 506.348452 -178.2 
L 499.659141 -178.2 
L 492.96983 -178.2 
L 486.280519 -178.2 
L 479.591209 -178.2 
L 472.901898 -178.2 
L 466.212587 -178.2 
L 459.523277 -178.2 
L 452.833966 -178.2 
L 446.144655 -178.2 
L 439.455345 -178.2 
L 432.766034 -178.2 
L 426.076723 -178.2 
L 419.387413 -178.2 
L 412.698102 -178.2 
L 406.008791 -178.2 
L 399.319481 -178.2 
L 392.63017 -178.2 
L 385.940859 -178.2 
L 379.251548 -178.2 
L 372.562238 -178.2 
L 365.872927 -178.2 
L 359.183616 -178.2 
L 352.494306 -178.2 
L 345.804995 -178.2 
L 339.115684 -178.2 
L 332.426374 -178.2 
L 325.737063 -178.2 
L 319.047752 -178.2 
L 312.358442 -178.2 
L 305.669131 -178.2 
L 298.97982 -178.2 
L 292.290509 -178.2 
L 285.601199 -178.2 
L 278.911888 -178.2 
L 272.222577 -178.2 
L 265.533267 -178.2 
L 258.843956 -178.2 
L 252.154645 -178.2 
L 245.465335 -178.2 
L 238.776024 -178.2 
L 232.086713 -178.2 
L 225.397403 -178.2 
L 218.708092 -178.2 
L 212.018781 -178.2 
L 205.329471 -178.2 
L 198.64016 -178.2 
L 191.950849 -178.2 
L 185.261538 -178.2 
L 178.572228 -178.2 
L 171.882917 -178.2 
L 165.193606 -178.2 
L 158.504296 -178.2 
L 151.814985 -178.2 
L 145.125674 -178.2 
L 138.436364 -178.2 
z
" style="stroke: #008000; stroke-opacity: 0.2"/>
    </defs>
    <g clip-path="url(#p17525e6c41)">
     <use xlink:href="#m0c02d37557" x="0" y="360" style="fill: #008000; fill-opacity: 0.2; stroke: #008000; stroke-opacity: 0.2"/>
    </g>
   </g>
   <g id="matplotlib.axis_1">
    <g id="xtick_1">
     <g id="line2d_1">
      <path d="M 131.747053 320.4 
L 131.747053 43.2 
" clip-path="url(#p17525e6c41)" style="fill: none; stroke: #b0b0b0; stroke-width: 0.8; stroke-linecap: square"/>
     </g>
     <g id="line2d_2">
      <defs>
       <path id="mfeb1a864f5" d="M 0 0 
L 0 3.5 
" style="stroke: #000000; stroke-width: 0.8"/>
      </defs>
      <g>
       <use xlink:href="#mfeb1a864f5" x="131.747053" y="320.4" style="stroke: #000000; stroke-width: 0.8"/>
      </g>
     </g>
     <g id="text_1">
      <!-- 0 -->
      <g transform="translate(128.565803 334.998438) scale(0.1 -0.1)">
       <defs>
        <path id="DejaVuSans-30" d="M 2034 4250 
Q 1547 4250 1301 3770 
Q 1056 3291 1056 2328 
Q 1056 1369 1301 889 
Q 1547 409 2034 409 
Q 2525 409 2770 889 
Q 3016 1369 3016 2328 
Q 3016 3291 2770 3770 
Q 2525 4250 2034 4250 
z
M 2034 4750 
Q 2819 4750 3233 4129 
Q 3647 3509 3647 2328 
Q 3647 1150 3233 529 
Q 2819 -91 2034 -91 
Q 1250 -91 836 529 
Q 422 1150 422 2328 
Q 422 3509 836 4129 
Q 1250 4750 2034 4750 
z
" transform="scale(0.015625)"/>
       </defs>
       <use xlink:href="#DejaVuSans-30"/>
      </g>
     </g>
    </g>
    <g id="xtick_2">
     <g id="line2d_3">
      <path d="M 265.533267 320.4 
L 265.533267 43.2 
" clip-path="url(#p17525e6c41)" style="fill: none; stroke: #b0b0b0; stroke-width: 0.8; stroke-linecap: square"/>
     </g>
     <g id="line2d_4">
      <g>
       <use xlink:href="#mfeb1a864f5" x="265.533267" y="320.4" style="stroke: #000000; stroke-width: 0.8"/>
      </g>
     </g>
     <g id="text_2">
      <!-- 20 -->
      <g transform="translate(259.170767 334.998438) scale(0.1 -0.1)">
       <defs>
        <path id="DejaVuSans-32" d="M 1228 531 
L 3431 531 
L 3431 0 
L 469 0 
L 469 531 
Q 828 903 1448 1529 
Q 2069 2156 2228 2338 
Q 2531 2678 2651 2914 
Q 2772 3150 2772 3378 
Q 2772 3750 2511 3984 
Q 2250 4219 1831 4219 
Q 1534 4219 1204 4116 
Q 875 4013 500 3803 
L 500 4441 
Q 881 4594 1212 4672 
Q 1544 4750 1819 4750 
Q 2544 4750 2975 4387 
Q 3406 4025 3406 3419 
Q 3406 3131 3298 2873 
Q 3191 2616 2906 2266 
Q 2828 2175 2409 1742 
Q 1991 1309 1228 531 
z
" transform="scale(0.015625)"/>
       </defs>
       <use xlink:href="#DejaVuSans-32"/>
       <use xlink:href="#DejaVuSans-30" transform="translate(63.623047 0)"/>
      </g>
     </g>
    </g>
    <g id="xtick_3">
     <g id="line2d_5">
      <path d="M 399.319481 320.4 
L 399.319481 43.2 
" clip-path="url(#p17525e6c41)" style="fill: none; stroke: #b0b0b0; stroke-width: 0.8; stroke-linecap: square"/>
     </g>
     <g id="line2d_6">
      <g>
       <use xlink:href="#mfeb1a864f5" x="399.319481" y="320.4" style="stroke: #000000; stroke-width: 0.8"/>
      </g>
     </g>
     <g id="text_3">
      <!-- 40 -->
      <g transform="translate(392.956981 334.998438) scale(0.1 -0.1)">
       <defs>
        <path id="DejaVuSans-34" d="M 2419 4116 
L 825 1625 
L 2419 1625 
L 2419 4116 
z
M 2253 4666 
L 3047 4666 
L 3047 1625 
L 3713 1625 
L 3713 1100 
L 3047 1100 
L 3047 0 
L 2419 0 
L 2419 1100 
L 313 1100 
L 313 1709 
L 2253 4666 
z
" transform="scale(0.015625)"/>
       </defs>
       <use xlink:href="#DejaVuSans-34"/>
       <use xlink:href="#DejaVuSans-30" transform="translate(63.623047 0)"/>
      </g>
     </g>
    </g>
    <g id="xtick_4">
     <g id="line2d_7">
      <path d="M 533.105694 320.4 
L 533.105694 43.2 
" clip-path="url(#p17525e6c41)" style="fill: none; stroke: #b0b0b0; stroke-width: 0.8; stroke-linecap: square"/>
     </g>
     <g id="line2d_8">
      <g>
       <use xlink:href="#mfeb1a864f5" x="533.105694" y="320.4" style="stroke: #000000; stroke-width: 0.8"/>
      </g>
     </g>
     <g id="text_4">
      <!-- 60 -->
      <g transform="translate(526.743194 334.998438) scale(0.1 -0.1)">
       <defs>
        <path id="DejaVuSans-36" d="M 2113 2584 
Q 1688 2584 1439 2293 
Q 1191 2003 1191 1497 
Q 1191 994 1439 701 
Q 1688 409 2113 409 
Q 2538 409 2786 701 
Q 3034 994 3034 1497 
Q 3034 2003 2786 2293 
Q 2538 2584 2113 2584 
z
M 3366 4563 
L 3366 3988 
Q 3128 4100 2886 4159 
Q 2644 4219 2406 4219 
Q 1781 4219 1451 3797 
Q 1122 3375 1075 2522 
Q 1259 2794 1537 2939 
Q 1816 3084 2150 3084 
Q 2853 3084 3261 2657 
Q 3669 2231 3669 1497 
Q 3669 778 3244 343 
Q 2819 -91 2113 -91 
Q 1303 -91 875 529 
Q 447 1150 447 2328 
Q 447 3434 972 4092 
Q 1497 4750 2381 4750 
Q 2619 4750 2861 4703 
Q 3103 4656 3366 4563 
z
" transform="scale(0.015625)"/>
       </defs>
       <use xlink:href="#DejaVuSans-36"/>
       <use xlink:href="#DejaVuSans-30" transform="translate(63.623047 0)"/>
      </g>
     </g>
    </g>
    <g id="xtick_5">
     <g id="line2d_9">
      <path d="M 666.891908 320.4 
L 666.891908 43.2 
" clip-path="url(#p17525e6c41)" style="fill: none; stroke: #b0b0b0; stroke-width: 0.8; stroke-linecap: square"/>
     </g>
     <g id="line2d_10">
      <g>
       <use xlink:href="#mfeb1a864f5" x="666.891908" y="320.4" style="stroke: #000000; stroke-width: 0.8"/>
      </g>
     </g>
     <g id="text_5">
      <!-- 80 -->
      <g transform="translate(660.529408 334.998438) scale(0.1 -0.1)">
       <defs>
        <path id="DejaVuSans-38" d="M 2034 2216 
Q 1584 2216 1326 1975 
Q 1069 1734 1069 1313 
Q 1069 891 1326 650 
Q 1584 409 2034 409 
Q 2484 409 2743 651 
Q 3003 894 3003 1313 
Q 3003 1734 2745 1975 
Q 2488 2216 2034 2216 
z
M 1403 2484 
Q 997 2584 770 2862 
Q 544 3141 544 3541 
Q 544 4100 942 4425 
Q 1341 4750 2034 4750 
Q 2731 4750 3128 4425 
Q 3525 4100 3525 3541 
Q 3525 3141 3298 2862 
Q 3072 2584 2669 2484 
Q 3125 2378 3379 2068 
Q 3634 1759 3634 1313 
Q 3634 634 3220 271 
Q 2806 -91 2034 -91 
Q 1263 -91 848 271 
Q 434 634 434 1313 
Q 434 1759 690 2068 
Q 947 2378 1403 2484 
z
M 1172 3481 
Q 1172 3119 1398 2916 
Q 1625 2713 2034 2713 
Q 2441 2713 2670 2916 
Q 2900 3119 2900 3481 
Q 2900 3844 2670 4047 
Q 2441 4250 2034 4250 
Q 1625 4250 1398 4047 
Q 1172 3844 1172 3481 
z
" transform="scale(0.015625)"/>
       </defs>
       <use xlink:href="#DejaVuSans-38"/>
       <use xlink:href="#DejaVuSans-30" transform="translate(63.623047 0)"/>
      </g>
     </g>
    </g>
    <g id="text_6">
     <!-- Iteration -->
     <g transform="translate(421.591406 348.676562) scale(0.1 -0.1)">
      <defs>
       <path id="DejaVuSans-49" d="M 628 4666 
L 1259 4666 
L 1259 0 
L 628 0 
L 628 4666 
z
" transform="scale(0.015625)"/>
       <path id="DejaVuSans-74" d="M 1172 4494 
L 1172 3500 
L 2356 3500 
L 2356 3053 
L 1172 3053 
L 1172 1153 
Q 1172 725 1289 603 
Q 1406 481 1766 481 
L 2356 481 
L 2356 0 
L 1766 0 
Q 1100 0 847 248 
Q 594 497 594 1153 
L 594 3053 
L 172 3053 
L 172 3500 
L 594 3500 
L 594 4494 
L 1172 4494 
z
" transform="scale(0.015625)"/>
       <path id="DejaVuSans-65" d="M 3597 1894 
L 3597 1613 
L 953 1613 
Q 991 1019 1311 708 
Q 1631 397 2203 397 
Q 2534 397 2845 478 
Q 3156 559 3463 722 
L 3463 178 
Q 3153 47 2828 -22 
Q 2503 -91 2169 -91 
Q 1331 -91 842 396 
Q 353 884 353 1716 
Q 353 2575 817 3079 
Q 1281 3584 2069 3584 
Q 2775 3584 3186 3129 
Q 3597 2675 3597 1894 
z
M 3022 2063 
Q 3016 2534 2758 2815 
Q 2500 3097 2075 3097 
Q 1594 3097 1305 2825 
Q 1016 2553 972 2059 
L 3022 2063 
z
" transform="scale(0.015625)"/>
       <path id="DejaVuSans-72" d="M 2631 2963 
Q 2534 3019 2420 3045 
Q 2306 3072 2169 3072 
Q 1681 3072 1420 2755 
Q 1159 2438 1159 1844 
L 1159 0 
L 581 0 
L 581 3500 
L 1159 3500 
L 1159 2956 
Q 1341 3275 1631 3429 
Q 1922 3584 2338 3584 
Q 2397 3584 2469 3576 
Q 2541 3569 2628 3553 
L 2631 2963 
z
" transform="scale(0.015625)"/>
       <path id="DejaVuSans-61" d="M 2194 1759 
Q 1497 1759 1228 1600 
Q 959 1441 959 1056 
Q 959 750 1161 570 
Q 1363 391 1709 391 
Q 2188 391 2477 730 
Q 2766 1069 2766 1631 
L 2766 1759 
L 2194 1759 
z
M 3341 1997 
L 3341 0 
L 2766 0 
L 2766 531 
Q 2569 213 2275 61 
Q 1981 -91 1556 -91 
Q 1019 -91 701 211 
Q 384 513 384 1019 
Q 384 1609 779 1909 
Q 1175 2209 1959 2209 
L 2766 2209 
L 2766 2266 
Q 2766 2663 2505 2880 
Q 2244 3097 1772 3097 
Q 1472 3097 1187 3025 
Q 903 2953 641 2809 
L 641 3341 
Q 956 3463 1253 3523 
Q 1550 3584 1831 3584 
Q 2591 3584 2966 3190 
Q 3341 2797 3341 1997 
z
" transform="scale(0.015625)"/>
       <path id="DejaVuSans-69" d="M 603 3500 
L 1178 3500 
L 1178 0 
L 603 0 
L 603 3500 
z
M 603 4863 
L 1178 4863 
L 1178 4134 
L 603 4134 
L 603 4863 
z
" transform="scale(0.015625)"/>
       <path id="DejaVuSans-6f" d="M 1959 3097 
Q 1497 3097 1228 2736 
Q 959 2375 959 1747 
Q 959 1119 1226 758 
Q 1494 397 1959 397 
Q 2419 397 2687 759 
Q 2956 1122 2956 1747 
Q 2956 2369 2687 2733 
Q 2419 3097 1959 3097 
z
M 1959 3584 
Q 2709 3584 3137 3096 
Q 3566 2609 3566 1747 
Q 3566 888 3137 398 
Q 2709 -91 1959 -91 
Q 1206 -91 779 398 
Q 353 888 353 1747 
Q 353 2609 779 3096 
Q 1206 3584 1959 3584 
z
" transform="scale(0.015625)"/>
       <path id="DejaVuSans-6e" d="M 3513 2113 
L 3513 0 
L 2938 0 
L 2938 2094 
Q 2938 2591 2744 2837 
Q 2550 3084 2163 3084 
Q 1697 3084 1428 2787 
Q 1159 2491 1159 1978 
L 1159 0 
L 581 0 
L 581 3500 
L 1159 3500 
L 1159 2956 
Q 1366 3272 1645 3428 
Q 1925 3584 2291 3584 
Q 2894 3584 3203 3211 
Q 3513 2838 3513 2113 
z
" transform="scale(0.015625)"/>
      </defs>
      <use xlink:href="#DejaVuSans-49"/>
      <use xlink:href="#DejaVuSans-74" transform="translate(29.492188 0)"/>
      <use xlink:href="#DejaVuSans-65" transform="translate(68.701172 0)"/>
      <use xlink:href="#DejaVuSans-72" transform="translate(130.224609 0)"/>
      <use xlink:href="#DejaVuSans-61" transform="translate(171.337891 0)"/>
      <use xlink:href="#DejaVuSans-74" transform="translate(232.617188 0)"/>
      <use xlink:href="#DejaVuSans-69" transform="translate(271.826172 0)"/>
      <use xlink:href="#DejaVuSans-6f" transform="translate(299.609375 0)"/>
      <use xlink:href="#DejaVuSans-6e" transform="translate(360.791016 0)"/>
     </g>
    </g>
   </g>
   <g id="matplotlib.axis_2">
    <g id="ytick_1">
     <g id="line2d_11">
      <path d="M 108 307.8 
L 777.6 307.8 
" clip-path="url(#p17525e6c41)" style="fill: none; stroke: #b0b0b0; stroke-width: 0.8; stroke-linecap: square"/>
     </g>
     <g id="line2d_12">
      <defs>
       <path id="m66c7220eb3" d="M 0 0 
L -3.5 0 
" style="stroke: #000000; stroke-width: 0.8"/>
      </defs>
      <g>
       <use xlink:href="#m66c7220eb3" x="108" y="307.8" style="stroke: #000000; stroke-width: 0.8"/>
      </g>
     </g>
     <g id="text_7">
      <!-- $\mathdefault{10^{-13}}$ -->
      <g transform="translate(73.1 311.599219) scale(0.1 -0.1)">
       <defs>
        <path id="DejaVuSans-31" d="M 794 531 
L 1825 531 
L 1825 4091 
L 703 3866 
L 703 4441 
L 1819 4666 
L 2450 4666 
L 2450 531 
L 3481 531 
L 3481 0 
L 794 0 
L 794 531 
z
" transform="scale(0.015625)"/>
        <path id="DejaVuSans-2212" d="M 678 2272 
L 4684 2272 
L 4684 1741 
L 678 1741 
L 678 2272 
z
" transform="scale(0.015625)"/>
        <path id="DejaVuSans-33" d="M 2597 2516 
Q 3050 2419 3304 2112 
Q 3559 1806 3559 1356 
Q 3559 666 3084 287 
Q 2609 -91 1734 -91 
Q 1441 -91 1130 -33 
Q 819 25 488 141 
L 488 750 
Q 750 597 1062 519 
Q 1375 441 1716 441 
Q 2309 441 2620 675 
Q 2931 909 2931 1356 
Q 2931 1769 2642 2001 
Q 2353 2234 1838 2234 
L 1294 2234 
L 1294 2753 
L 1863 2753 
Q 2328 2753 2575 2939 
Q 2822 3125 2822 3475 
Q 2822 3834 2567 4026 
Q 2313 4219 1838 4219 
Q 1578 4219 1281 4162 
Q 984 4106 628 3988 
L 628 4550 
Q 988 4650 1302 4700 
Q 1616 4750 1894 4750 
Q 2613 4750 3031 4423 
Q 3450 4097 3450 3541 
Q 3450 3153 3228 2886 
Q 3006 2619 2597 2516 
z
" transform="scale(0.015625)"/>
       </defs>
       <use xlink:href="#DejaVuSans-31" transform="translate(0 0.765625)"/>
       <use xlink:href="#DejaVuSans-30" transform="translate(63.623047 0.765625)"/>
       <use xlink:href="#DejaVuSans-2212" transform="translate(128.203125 39.046875) scale(0.7)"/>
       <use xlink:href="#DejaVuSans-31" transform="translate(186.855469 39.046875) scale(0.7)"/>
       <use xlink:href="#DejaVuSans-33" transform="translate(231.391602 39.046875) scale(0.7)"/>
      </g>
     </g>
    </g>
    <g id="ytick_2">
     <g id="line2d_13">
      <path d="M 108 181.8 
L 777.6 181.8 
" clip-path="url(#p17525e6c41)" style="fill: none; stroke: #b0b0b0; stroke-width: 0.8; stroke-linecap: square"/>
     </g>
     <g id="line2d_14">
      <g>
       <use xlink:href="#m66c7220eb3" x="108" y="181.8" style="stroke: #000000; stroke-width: 0.8"/>
      </g>
     </g>
     <g id="text_8">
      <!-- $\mathdefault{10^{-12}}$ -->
      <g transform="translate(73.1 185.599219) scale(0.1 -0.1)">
       <use xlink:href="#DejaVuSans-31" transform="translate(0 0.765625)"/>
       <use xlink:href="#DejaVuSans-30" transform="translate(63.623047 0.765625)"/>
       <use xlink:href="#DejaVuSans-2212" transform="translate(128.203125 39.046875) scale(0.7)"/>
       <use xlink:href="#DejaVuSans-31" transform="translate(186.855469 39.046875) scale(0.7)"/>
       <use xlink:href="#DejaVuSans-32" transform="translate(231.391602 39.046875) scale(0.7)"/>
      </g>
     </g>
    </g>
    <g id="ytick_3">
     <g id="line2d_15">
      <path d="M 108 55.8 
L 777.6 55.8 
" clip-path="url(#p17525e6c41)" style="fill: none; stroke: #b0b0b0; stroke-width: 0.8; stroke-linecap: square"/>
     </g>
     <g id="line2d_16">
      <g>
       <use xlink:href="#m66c7220eb3" x="108" y="55.8" style="stroke: #000000; stroke-width: 0.8"/>
      </g>
     </g>
     <g id="text_9">
      <!-- $\mathdefault{10^{-11}}$ -->
      <g transform="translate(73.1 59.599219) scale(0.1 -0.1)">
       <use xlink:href="#DejaVuSans-31" transform="translate(0 0.684375)"/>
       <use xlink:href="#DejaVuSans-30" transform="translate(63.623047 0.684375)"/>
       <use xlink:href="#DejaVuSans-2212" transform="translate(128.203125 38.965625) scale(0.7)"/>
       <use xlink:href="#DejaVuSans-31" transform="translate(186.855469 38.965625) scale(0.7)"/>
       <use xlink:href="#DejaVuSans-31" transform="translate(231.391602 38.965625) scale(0.7)"/>
      </g>
     </g>
    </g>
    <g id="ytick_4">
     <g id="line2d_17">
      <defs>
       <path id="m46edd1db35" d="M 0 0 
L -2 0 
" style="stroke: #000000; stroke-width: 0.6"/>
      </defs>
      <g>
       <use xlink:href="#m46edd1db35" x="108" y="320.010662" style="stroke: #000000; stroke-width: 0.6"/>
      </g>
     </g>
    </g>
    <g id="ytick_5">
     <g id="line2d_18">
      <g>
       <use xlink:href="#m46edd1db35" x="108" y="313.565444" style="stroke: #000000; stroke-width: 0.6"/>
      </g>
     </g>
    </g>
    <g id="ytick_6">
     <g id="line2d_19">
      <g>
       <use xlink:href="#m46edd1db35" x="108" y="269.870221" style="stroke: #000000; stroke-width: 0.6"/>
      </g>
     </g>
    </g>
    <g id="ytick_7">
     <g id="line2d_20">
      <g>
       <use xlink:href="#m46edd1db35" x="108" y="247.682722" style="stroke: #000000; stroke-width: 0.6"/>
      </g>
     </g>
    </g>
    <g id="ytick_8">
     <g id="line2d_21">
      <g>
       <use xlink:href="#m46edd1db35" x="108" y="231.940441" style="stroke: #000000; stroke-width: 0.6"/>
      </g>
     </g>
    </g>
    <g id="ytick_9">
     <g id="line2d_22">
      <g>
       <use xlink:href="#m46edd1db35" x="108" y="219.729779" style="stroke: #000000; stroke-width: 0.6"/>
      </g>
     </g>
    </g>
    <g id="ytick_10">
     <g id="line2d_23">
      <g>
       <use xlink:href="#m46edd1db35" x="108" y="209.752942" style="stroke: #000000; stroke-width: 0.6"/>
      </g>
     </g>
    </g>
    <g id="ytick_11">
     <g id="line2d_24">
      <g>
       <use xlink:href="#m46edd1db35" x="108" y="201.317647" style="stroke: #000000; stroke-width: 0.6"/>
      </g>
     </g>
    </g>
    <g id="ytick_12">
     <g id="line2d_25">
      <g>
       <use xlink:href="#m46edd1db35" x="108" y="194.010662" style="stroke: #000000; stroke-width: 0.6"/>
      </g>
     </g>
    </g>
    <g id="ytick_13">
     <g id="line2d_26">
      <g>
       <use xlink:href="#m46edd1db35" x="108" y="187.565444" style="stroke: #000000; stroke-width: 0.6"/>
      </g>
     </g>
    </g>
    <g id="ytick_14">
     <g id="line2d_27">
      <g>
       <use xlink:href="#m46edd1db35" x="108" y="143.870221" style="stroke: #000000; stroke-width: 0.6"/>
      </g>
     </g>
    </g>
    <g id="ytick_15">
     <g id="line2d_28">
      <g>
       <use xlink:href="#m46edd1db35" x="108" y="121.682722" style="stroke: #000000; stroke-width: 0.6"/>
      </g>
     </g>
    </g>
    <g id="ytick_16">
     <g id="line2d_29">
      <g>
       <use xlink:href="#m46edd1db35" x="108" y="105.940441" style="stroke: #000000; stroke-width: 0.6"/>
      </g>
     </g>
    </g>
    <g id="ytick_17">
     <g id="line2d_30">
      <g>
       <use xlink:href="#m46edd1db35" x="108" y="93.729779" style="stroke: #000000; stroke-width: 0.6"/>
      </g>
     </g>
    </g>
    <g id="ytick_18">
     <g id="line2d_31">
      <g>
       <use xlink:href="#m46edd1db35" x="108" y="83.752942" style="stroke: #000000; stroke-width: 0.6"/>
      </g>
     </g>
    </g>
    <g id="ytick_19">
     <g id="line2d_32">
      <g>
       <use xlink:href="#m46edd1db35" x="108" y="75.317647" style="stroke: #000000; stroke-width: 0.6"/>
      </g>
     </g>
    </g>
    <g id="ytick_20">
     <g id="line2d_33">
      <g>
       <use xlink:href="#m46edd1db35" x="108" y="68.010662" style="stroke: #000000; stroke-width: 0.6"/>
      </g>
     </g>
    </g>
    <g id="ytick_21">
     <g id="line2d_34">
      <g>
       <use xlink:href="#m46edd1db35" x="108" y="61.565444" style="stroke: #000000; stroke-width: 0.6"/>
      </g>
     </g>
    </g>
    <g id="text_10">
     <!-- Regret (log scale) -->
     <g transform="translate(67.020312 225.865625) rotate(-90) scale(0.1 -0.1)">
      <defs>
       <path id="DejaVuSans-52" d="M 2841 2188 
Q 3044 2119 3236 1894 
Q 3428 1669 3622 1275 
L 4263 0 
L 3584 0 
L 2988 1197 
Q 2756 1666 2539 1819 
Q 2322 1972 1947 1972 
L 1259 1972 
L 1259 0 
L 628 0 
L 628 4666 
L 2053 4666 
Q 2853 4666 3247 4331 
Q 3641 3997 3641 3322 
Q 3641 2881 3436 2590 
Q 3231 2300 2841 2188 
z
M 1259 4147 
L 1259 2491 
L 2053 2491 
Q 2509 2491 2742 2702 
Q 2975 2913 2975 3322 
Q 2975 3731 2742 3939 
Q 2509 4147 2053 4147 
L 1259 4147 
z
" transform="scale(0.015625)"/>
       <path id="DejaVuSans-67" d="M 2906 1791 
Q 2906 2416 2648 2759 
Q 2391 3103 1925 3103 
Q 1463 3103 1205 2759 
Q 947 2416 947 1791 
Q 947 1169 1205 825 
Q 1463 481 1925 481 
Q 2391 481 2648 825 
Q 2906 1169 2906 1791 
z
M 3481 434 
Q 3481 -459 3084 -895 
Q 2688 -1331 1869 -1331 
Q 1566 -1331 1297 -1286 
Q 1028 -1241 775 -1147 
L 775 -588 
Q 1028 -725 1275 -790 
Q 1522 -856 1778 -856 
Q 2344 -856 2625 -561 
Q 2906 -266 2906 331 
L 2906 616 
Q 2728 306 2450 153 
Q 2172 0 1784 0 
Q 1141 0 747 490 
Q 353 981 353 1791 
Q 353 2603 747 3093 
Q 1141 3584 1784 3584 
Q 2172 3584 2450 3431 
Q 2728 3278 2906 2969 
L 2906 3500 
L 3481 3500 
L 3481 434 
z
" transform="scale(0.015625)"/>
       <path id="DejaVuSans-20" transform="scale(0.015625)"/>
       <path id="DejaVuSans-28" d="M 1984 4856 
Q 1566 4138 1362 3434 
Q 1159 2731 1159 2009 
Q 1159 1288 1364 580 
Q 1569 -128 1984 -844 
L 1484 -844 
Q 1016 -109 783 600 
Q 550 1309 550 2009 
Q 550 2706 781 3412 
Q 1013 4119 1484 4856 
L 1984 4856 
z
" transform="scale(0.015625)"/>
       <path id="DejaVuSans-6c" d="M 603 4863 
L 1178 4863 
L 1178 0 
L 603 0 
L 603 4863 
z
" transform="scale(0.015625)"/>
       <path id="DejaVuSans-73" d="M 2834 3397 
L 2834 2853 
Q 2591 2978 2328 3040 
Q 2066 3103 1784 3103 
Q 1356 3103 1142 2972 
Q 928 2841 928 2578 
Q 928 2378 1081 2264 
Q 1234 2150 1697 2047 
L 1894 2003 
Q 2506 1872 2764 1633 
Q 3022 1394 3022 966 
Q 3022 478 2636 193 
Q 2250 -91 1575 -91 
Q 1294 -91 989 -36 
Q 684 19 347 128 
L 347 722 
Q 666 556 975 473 
Q 1284 391 1588 391 
Q 1994 391 2212 530 
Q 2431 669 2431 922 
Q 2431 1156 2273 1281 
Q 2116 1406 1581 1522 
L 1381 1569 
Q 847 1681 609 1914 
Q 372 2147 372 2553 
Q 372 3047 722 3315 
Q 1072 3584 1716 3584 
Q 2034 3584 2315 3537 
Q 2597 3491 2834 3397 
z
" transform="scale(0.015625)"/>
       <path id="DejaVuSans-63" d="M 3122 3366 
L 3122 2828 
Q 2878 2963 2633 3030 
Q 2388 3097 2138 3097 
Q 1578 3097 1268 2742 
Q 959 2388 959 1747 
Q 959 1106 1268 751 
Q 1578 397 2138 397 
Q 2388 397 2633 464 
Q 2878 531 3122 666 
L 3122 134 
Q 2881 22 2623 -34 
Q 2366 -91 2075 -91 
Q 1284 -91 818 406 
Q 353 903 353 1747 
Q 353 2603 823 3093 
Q 1294 3584 2113 3584 
Q 2378 3584 2631 3529 
Q 2884 3475 3122 3366 
z
" transform="scale(0.015625)"/>
       <path id="DejaVuSans-29" d="M 513 4856 
L 1013 4856 
Q 1481 4119 1714 3412 
Q 1947 2706 1947 2009 
Q 1947 1309 1714 600 
Q 1481 -109 1013 -844 
L 513 -844 
Q 928 -128 1133 580 
Q 1338 1288 1338 2009 
Q 1338 2731 1133 3434 
Q 928 4138 513 4856 
z
" transform="scale(0.015625)"/>
      </defs>
      <use xlink:href="#DejaVuSans-52"/>
      <use xlink:href="#DejaVuSans-65" transform="translate(64.982422 0)"/>
      <use xlink:href="#DejaVuSans-67" transform="translate(126.505859 0)"/>
      <use xlink:href="#DejaVuSans-72" transform="translate(189.982422 0)"/>
      <use xlink:href="#DejaVuSans-65" transform="translate(228.845703 0)"/>
      <use xlink:href="#DejaVuSans-74" transform="translate(290.369141 0)"/>
      <use xlink:href="#DejaVuSans-20" transform="translate(329.578125 0)"/>
      <use xlink:href="#DejaVuSans-28" transform="translate(361.365234 0)"/>
      <use xlink:href="#DejaVuSans-6c" transform="translate(400.378906 0)"/>
      <use xlink:href="#DejaVuSans-6f" transform="translate(428.162109 0)"/>
      <use xlink:href="#DejaVuSans-67" transform="translate(489.34375 0)"/>
      <use xlink:href="#DejaVuSans-20" transform="translate(552.820312 0)"/>
      <use xlink:href="#DejaVuSans-73" transform="translate(584.607422 0)"/>
      <use xlink:href="#DejaVuSans-63" transform="translate(636.707031 0)"/>
      <use xlink:href="#DejaVuSans-61" transform="translate(691.6875 0)"/>
      <use xlink:href="#DejaVuSans-6c" transform="translate(752.966797 0)"/>
      <use xlink:href="#DejaVuSans-65" transform="translate(780.75 0)"/>
      <use xlink:href="#DejaVuSans-29" transform="translate(842.273438 0)"/>
     </g>
    </g>
   </g>
   <g id="line2d_35">
    <path d="M 138.436364 181.8 
L 145.125674 181.8 
L 151.814985 181.8 
L 158.504296 181.8 
L 165.193606 181.8 
L 171.882917 181.8 
L 178.572228 181.8 
L 185.261538 181.8 
L 191.950849 181.8 
L 198.64016 181.8 
L 205.329471 181.8 
L 212.018781 181.8 
L 218.708092 181.8 
L 225.397403 181.8 
L 232.086713 181.8 
L 238.776024 181.8 
L 245.465335 181.8 
L 252.154645 181.8 
L 258.843956 181.8 
L 265.533267 181.8 
L 272.222577 181.8 
L 278.911888 181.8 
L 285.601199 181.8 
L 292.290509 181.8 
L 298.97982 181.8 
L 305.669131 181.8 
L 312.358442 181.8 
L 319.047752 181.8 
L 325.737063 181.8 
L 332.426374 181.8 
L 339.115684 181.8 
L 345.804995 181.8 
L 352.494306 181.8 
L 359.183616 181.8 
L 365.872927 181.8 
L 372.562238 181.8 
L 379.251548 181.8 
L 385.940859 181.8 
L 392.63017 181.8 
L 399.319481 181.8 
L 406.008791 181.8 
L 412.698102 181.8 
L 419.387413 181.8 
L 426.076723 181.8 
L 432.766034 181.8 
L 439.455345 181.8 
L 446.144655 181.8 
L 452.833966 181.8 
L 459.523277 181.8 
L 466.212587 181.8 
L 472.901898 181.8 
L 479.591209 181.8 
L 486.280519 181.8 
L 492.96983 181.8 
L 499.659141 181.8 
L 506.348452 181.8 
L 513.037762 181.8 
L 519.727073 181.8 
L 526.416384 181.8 
L 533.105694 181.8 
L 539.795005 181.8 
L 546.484316 181.8 
L 553.173626 181.8 
L 559.862937 181.8 
L 566.552248 181.8 
L 573.241558 181.8 
L 579.930869 181.8 
L 586.62018 181.8 
L 593.309491 181.8 
L 599.998801 181.8 
L 606.688112 181.8 
L 613.377423 181.8 
L 620.066733 181.8 
L 626.756044 181.8 
L 633.445355 181.8 
L 640.134665 181.8 
L 646.823976 181.8 
L 653.513287 181.8 
L 660.202597 181.8 
L 666.891908 181.8 
L 673.581219 181.8 
L 680.270529 181.8 
L 686.95984 181.8 
L 693.649151 181.8 
L 700.338462 181.8 
L 707.027772 181.8 
L 713.717083 181.8 
L 720.406394 181.8 
L 727.095704 181.8 
L 733.785015 181.8 
L 740.474326 181.8 
L 747.163636 181.8 
" clip-path="url(#p17525e6c41)" style="fill: none; stroke: #ff0000; stroke-width: 1.5; stroke-linecap: square"/>
   </g>
   <g id="line2d_36">
    <path d="M 138.436364 181.8 
L 145.125674 181.8 
L 151.814985 181.8 
L 158.504296 181.8 
L 165.193606 181.8 
L 171.882917 181.8 
L 178.572228 181.8 
L 185.261538 181.8 
L 191.950849 181.8 
L 198.64016 181.8 
L 205.329471 181.8 
L 212.018781 181.8 
L 218.708092 181.8 
L 225.397403 181.8 
L 232.086713 181.8 
L 238.776024 181.8 
L 245.465335 181.8 
L 252.154645 181.8 
L 258.843956 181.8 
L 265.533267 181.8 
L 272.222577 181.8 
L 278.911888 181.8 
L 285.601199 181.8 
L 292.290509 181.8 
L 298.97982 181.8 
L 305.669131 181.8 
L 312.358442 181.8 
L 319.047752 181.8 
L 325.737063 181.8 
L 332.426374 181.8 
L 339.115684 181.8 
L 345.804995 181.8 
L 352.494306 181.8 
L 359.183616 181.8 
L 365.872927 181.8 
L 372.562238 181.8 
L 379.251548 181.8 
L 385.940859 181.8 
L 392.63017 181.8 
L 399.319481 181.8 
L 406.008791 181.8 
L 412.698102 181.8 
L 419.387413 181.8 
L 426.076723 181.8 
L 432.766034 181.8 
L 439.455345 181.8 
L 446.144655 181.8 
L 452.833966 181.8 
L 459.523277 181.8 
L 466.212587 181.8 
L 472.901898 181.8 
L 479.591209 181.8 
L 486.280519 181.8 
L 492.96983 181.8 
L 499.659141 181.8 
L 506.348452 181.8 
L 513.037762 181.8 
L 519.727073 181.8 
L 526.416384 181.8 
L 533.105694 181.8 
L 539.795005 181.8 
L 546.484316 181.8 
L 553.173626 181.8 
L 559.862937 181.8 
L 566.552248 181.8 
L 573.241558 181.8 
L 579.930869 181.8 
L 586.62018 181.8 
L 593.309491 181.8 
L 599.998801 181.8 
L 606.688112 181.8 
L 613.377423 181.8 
L 620.066733 181.8 
L 626.756044 181.8 
L 633.445355 181.8 
L 640.134665 181.8 
L 646.823976 181.8 
L 653.513287 181.8 
L 660.202597 181.8 
L 666.891908 181.8 
L 673.581219 181.8 
L 680.270529 181.8 
L 686.95984 181.8 
L 693.649151 181.8 
L 700.338462 181.8 
L 707.027772 181.8 
L 713.717083 181.8 
L 720.406394 181.8 
L 727.095704 181.8 
L 733.785015 181.8 
L 740.474326 181.8 
L 747.163636 181.8 
" clip-path="url(#p17525e6c41)" style="fill: none; stroke: #0000ff; stroke-width: 1.5; stroke-linecap: square"/>
   </g>
   <g id="line2d_37">
    <path d="M 138.436364 181.8 
L 145.125674 181.8 
L 151.814985 181.8 
L 158.504296 181.8 
L 165.193606 181.8 
L 171.882917 181.8 
L 178.572228 181.8 
L 185.261538 181.8 
L 191.950849 181.8 
L 198.64016 181.8 
L 205.329471 181.8 
L 212.018781 181.8 
L 218.708092 181.8 
L 225.397403 181.8 
L 232.086713 181.8 
L 238.776024 181.8 
L 245.465335 181.8 
L 252.154645 181.8 
L 258.843956 181.8 
L 265.533267 181.8 
L 272.222577 181.8 
L 278.911888 181.8 
L 285.601199 181.8 
L 292.290509 181.8 
L 298.97982 181.8 
L 305.669131 181.8 
L 312.358442 181.8 
L 319.047752 181.8 
L 325.737063 181.8 
L 332.426374 181.8 
L 339.115684 181.8 
L 345.804995 181.8 
L 352.494306 181.8 
L 359.183616 181.8 
L 365.872927 181.8 
L 372.562238 181.8 
L 379.251548 181.8 
L 385.940859 181.8 
L 392.63017 181.8 
L 399.319481 181.8 
L 406.008791 181.8 
L 412.698102 181.8 
L 419.387413 181.8 
L 426.076723 181.8 
L 432.766034 181.8 
L 439.455345 181.8 
L 446.144655 181.8 
L 452.833966 181.8 
L 459.523277 181.8 
L 466.212587 181.8 
L 472.901898 181.8 
L 479.591209 181.8 
L 486.280519 181.8 
L 492.96983 181.8 
L 499.659141 181.8 
L 506.348452 181.8 
L 513.037762 181.8 
L 519.727073 181.8 
L 526.416384 181.8 
L 533.105694 181.8 
L 539.795005 181.8 
L 546.484316 181.8 
L 553.173626 181.8 
L 559.862937 181.8 
L 566.552248 181.8 
L 573.241558 181.8 
L 579.930869 181.8 
L 586.62018 181.8 
L 593.309491 181.8 
L 599.998801 181.8 
L 606.688112 181.8 
L 613.377423 181.8 
L 620.066733 181.8 
L 626.756044 181.8 
L 633.445355 181.8 
L 640.134665 181.8 
L 646.823976 181.8 
L 653.513287 181.8 
L 660.202597 181.8 
L 666.891908 181.8 
L 673.581219 181.8 
L 680.270529 181.8 
L 686.95984 181.8 
L 693.649151 181.8 
L 700.338462 181.8 
L 707.027772 181.8 
L 713.717083 181.8 
L 720.406394 181.8 
L 727.095704 181.8 
L 733.785015 181.8 
L 740.474326 181.8 
L 747.163636 181.8 
" clip-path="url(#p17525e6c41)" style="fill: none; stroke: #008000; stroke-width: 1.5; stroke-linecap: square"/>
   </g>
   <g id="patch_3">
    <path d="M 108 320.4 
L 108 43.2 
" style="fill: none; stroke: #000000; stroke-width: 0.8; stroke-linejoin: miter; stroke-linecap: square"/>
   </g>
   <g id="patch_4">
    <path d="M 777.6 320.4 
L 777.6 43.2 
" style="fill: none; stroke: #000000; stroke-width: 0.8; stroke-linejoin: miter; stroke-linecap: square"/>
   </g>
   <g id="patch_5">
    <path d="M 108 320.4 
L 777.6 320.4 
" style="fill: none; stroke: #000000; stroke-width: 0.8; stroke-linejoin: miter; stroke-linecap: square"/>
   </g>
   <g id="patch_6">
    <path d="M 108 43.2 
L 777.6 43.2 
" style="fill: none; stroke: #000000; stroke-width: 0.8; stroke-linejoin: miter; stroke-linecap: square"/>
   </g>
   <g id="text_11">
    <!-- Mean Regret across 15 runs | 2-twoblobs (kappas=[1.0, 1.0, 1.0]) -->
    <g transform="translate(246.13875 37.2) scale(0.12 -0.12)">
     <defs>
      <path id="DejaVuSans-4d" d="M 628 4666 
L 1569 4666 
L 2759 1491 
L 3956 4666 
L 4897 4666 
L 4897 0 
L 4281 0 
L 4281 4097 
L 3078 897 
L 2444 897 
L 1241 4097 
L 1241 0 
L 628 0 
L 628 4666 
z
" transform="scale(0.015625)"/>
      <path id="DejaVuSans-35" d="M 691 4666 
L 3169 4666 
L 3169 4134 
L 1269 4134 
L 1269 2991 
Q 1406 3038 1543 3061 
Q 1681 3084 1819 3084 
Q 2600 3084 3056 2656 
Q 3513 2228 3513 1497 
Q 3513 744 3044 326 
Q 2575 -91 1722 -91 
Q 1428 -91 1123 -41 
Q 819 9 494 109 
L 494 744 
Q 775 591 1075 516 
Q 1375 441 1709 441 
Q 2250 441 2565 725 
Q 2881 1009 2881 1497 
Q 2881 1984 2565 2268 
Q 2250 2553 1709 2553 
Q 1456 2553 1204 2497 
Q 953 2441 691 2322 
L 691 4666 
z
" transform="scale(0.015625)"/>
      <path id="DejaVuSans-75" d="M 544 1381 
L 544 3500 
L 1119 3500 
L 1119 1403 
Q 1119 906 1312 657 
Q 1506 409 1894 409 
Q 2359 409 2629 706 
Q 2900 1003 2900 1516 
L 2900 3500 
L 3475 3500 
L 3475 0 
L 2900 0 
L 2900 538 
Q 2691 219 2414 64 
Q 2138 -91 1772 -91 
Q 1169 -91 856 284 
Q 544 659 544 1381 
z
M 1991 3584 
L 1991 3584 
z
" transform="scale(0.015625)"/>
      <path id="DejaVuSans-7c" d="M 1344 4891 
L 1344 -1509 
L 813 -1509 
L 813 4891 
L 1344 4891 
z
" transform="scale(0.015625)"/>
      <path id="DejaVuSans-2d" d="M 313 2009 
L 1997 2009 
L 1997 1497 
L 313 1497 
L 313 2009 
z
" transform="scale(0.015625)"/>
      <path id="DejaVuSans-77" d="M 269 3500 
L 844 3500 
L 1563 769 
L 2278 3500 
L 2956 3500 
L 3675 769 
L 4391 3500 
L 4966 3500 
L 4050 0 
L 3372 0 
L 2619 2869 
L 1863 0 
L 1184 0 
L 269 3500 
z
" transform="scale(0.015625)"/>
      <path id="DejaVuSans-62" d="M 3116 1747 
Q 3116 2381 2855 2742 
Q 2594 3103 2138 3103 
Q 1681 3103 1420 2742 
Q 1159 2381 1159 1747 
Q 1159 1113 1420 752 
Q 1681 391 2138 391 
Q 2594 391 2855 752 
Q 3116 1113 3116 1747 
z
M 1159 2969 
Q 1341 3281 1617 3432 
Q 1894 3584 2278 3584 
Q 2916 3584 3314 3078 
Q 3713 2572 3713 1747 
Q 3713 922 3314 415 
Q 2916 -91 2278 -91 
Q 1894 -91 1617 61 
Q 1341 213 1159 525 
L 1159 0 
L 581 0 
L 581 4863 
L 1159 4863 
L 1159 2969 
z
" transform="scale(0.015625)"/>
      <path id="DejaVuSans-6b" d="M 581 4863 
L 1159 4863 
L 1159 1991 
L 2875 3500 
L 3609 3500 
L 1753 1863 
L 3688 0 
L 2938 0 
L 1159 1709 
L 1159 0 
L 581 0 
L 581 4863 
z
" transform="scale(0.015625)"/>
      <path id="DejaVuSans-70" d="M 1159 525 
L 1159 -1331 
L 581 -1331 
L 581 3500 
L 1159 3500 
L 1159 2969 
Q 1341 3281 1617 3432 
Q 1894 3584 2278 3584 
Q 2916 3584 3314 3078 
Q 3713 2572 3713 1747 
Q 3713 922 3314 415 
Q 2916 -91 2278 -91 
Q 1894 -91 1617 61 
Q 1341 213 1159 525 
z
M 3116 1747 
Q 3116 2381 2855 2742 
Q 2594 3103 2138 3103 
Q 1681 3103 1420 2742 
Q 1159 2381 1159 1747 
Q 1159 1113 1420 752 
Q 1681 391 2138 391 
Q 2594 391 2855 752 
Q 3116 1113 3116 1747 
z
" transform="scale(0.015625)"/>
      <path id="DejaVuSans-3d" d="M 678 2906 
L 4684 2906 
L 4684 2381 
L 678 2381 
L 678 2906 
z
M 678 1631 
L 4684 1631 
L 4684 1100 
L 678 1100 
L 678 1631 
z
" transform="scale(0.015625)"/>
      <path id="DejaVuSans-5b" d="M 550 4863 
L 1875 4863 
L 1875 4416 
L 1125 4416 
L 1125 -397 
L 1875 -397 
L 1875 -844 
L 550 -844 
L 550 4863 
z
" transform="scale(0.015625)"/>
      <path id="DejaVuSans-2e" d="M 684 794 
L 1344 794 
L 1344 0 
L 684 0 
L 684 794 
z
" transform="scale(0.015625)"/>
      <path id="DejaVuSans-2c" d="M 750 794 
L 1409 794 
L 1409 256 
L 897 -744 
L 494 -744 
L 750 256 
L 750 794 
z
" transform="scale(0.015625)"/>
      <path id="DejaVuSans-5d" d="M 1947 4863 
L 1947 -844 
L 622 -844 
L 622 -397 
L 1369 -397 
L 1369 4416 
L 622 4416 
L 622 4863 
L 1947 4863 
z
" transform="scale(0.015625)"/>
     </defs>
     <use xlink:href="#DejaVuSans-4d"/>
     <use xlink:href="#DejaVuSans-65" transform="translate(86.279297 0)"/>
     <use xlink:href="#DejaVuSans-61" transform="translate(147.802734 0)"/>
     <use xlink:href="#DejaVuSans-6e" transform="translate(209.082031 0)"/>
     <use xlink:href="#DejaVuSans-20" transform="translate(272.460938 0)"/>
     <use xlink:href="#DejaVuSans-52" transform="translate(304.248047 0)"/>
     <use xlink:href="#DejaVuSans-65" transform="translate(369.230469 0)"/>
     <use xlink:href="#DejaVuSans-67" transform="translate(430.753906 0)"/>
     <use xlink:href="#DejaVuSans-72" transform="translate(494.230469 0)"/>
     <use xlink:href="#DejaVuSans-65" transform="translate(533.09375 0)"/>
     <use xlink:href="#DejaVuSans-74" transform="translate(594.617188 0)"/>
     <use xlink:href="#DejaVuSans-20" transform="translate(633.826172 0)"/>
     <use xlink:href="#DejaVuSans-61" transform="translate(665.613281 0)"/>
     <use xlink:href="#DejaVuSans-63" transform="translate(726.892578 0)"/>
     <use xlink:href="#DejaVuSans-72" transform="translate(781.873047 0)"/>
     <use xlink:href="#DejaVuSans-6f" transform="translate(820.736328 0)"/>
     <use xlink:href="#DejaVuSans-73" transform="translate(881.917969 0)"/>
     <use xlink:href="#DejaVuSans-73" transform="translate(934.017578 0)"/>
     <use xlink:href="#DejaVuSans-20" transform="translate(986.117188 0)"/>
     <use xlink:href="#DejaVuSans-31" transform="translate(1017.904297 0)"/>
     <use xlink:href="#DejaVuSans-35" transform="translate(1081.527344 0)"/>
     <use xlink:href="#DejaVuSans-20" transform="translate(1145.150391 0)"/>
     <use xlink:href="#DejaVuSans-72" transform="translate(1176.9375 0)"/>
     <use xlink:href="#DejaVuSans-75" transform="translate(1218.050781 0)"/>
     <use xlink:href="#DejaVuSans-6e" transform="translate(1281.429688 0)"/>
     <use xlink:href="#DejaVuSans-73" transform="translate(1344.808594 0)"/>
     <use xlink:href="#DejaVuSans-20" transform="translate(1396.908203 0)"/>
     <use xlink:href="#DejaVuSans-7c" transform="translate(1428.695312 0)"/>
     <use xlink:href="#DejaVuSans-20" transform="translate(1462.386719 0)"/>
     <use xlink:href="#DejaVuSans-32" transform="translate(1494.173828 0)"/>
     <use xlink:href="#DejaVuSans-2d" transform="translate(1557.796875 0)"/>
     <use xlink:href="#DejaVuSans-74" transform="translate(1593.880859 0)"/>
     <use xlink:href="#DejaVuSans-77" transform="translate(1633.089844 0)"/>
     <use xlink:href="#DejaVuSans-6f" transform="translate(1714.876953 0)"/>
     <use xlink:href="#DejaVuSans-62" transform="translate(1776.058594 0)"/>
     <use xlink:href="#DejaVuSans-6c" transform="translate(1839.535156 0)"/>
     <use xlink:href="#DejaVuSans-6f" transform="translate(1867.318359 0)"/>
     <use xlink:href="#DejaVuSans-62" transform="translate(1928.5 0)"/>
     <use xlink:href="#DejaVuSans-73" transform="translate(1991.976562 0)"/>
     <use xlink:href="#DejaVuSans-20" transform="translate(2044.076172 0)"/>
     <use xlink:href="#DejaVuSans-28" transform="translate(2075.863281 0)"/>
     <use xlink:href="#DejaVuSans-6b" transform="translate(2114.876953 0)"/>
     <use xlink:href="#DejaVuSans-61" transform="translate(2171.037109 0)"/>
     <use xlink:href="#DejaVuSans-70" transform="translate(2232.316406 0)"/>
     <use xlink:href="#DejaVuSans-70" transform="translate(2295.792969 0)"/>
     <use xlink:href="#DejaVuSans-61" transform="translate(2359.269531 0)"/>
     <use xlink:href="#DejaVuSans-73" transform="translate(2420.548828 0)"/>
     <use xlink:href="#DejaVuSans-3d" transform="translate(2472.648438 0)"/>
     <use xlink:href="#DejaVuSans-5b" transform="translate(2556.4375 0)"/>
     <use xlink:href="#DejaVuSans-31" transform="translate(2595.451172 0)"/>
     <use xlink:href="#DejaVuSans-2e" transform="translate(2659.074219 0)"/>
     <use xlink:href="#DejaVuSans-30" transform="translate(2690.861328 0)"/>
     <use xlink:href="#DejaVuSans-2c" transform="translate(2754.484375 0)"/>
     <use xlink:href="#DejaVuSans-20" transform="translate(2786.271484 0)"/>
     <use xlink:href="#DejaVuSans-31" transform="translate(2818.058594 0)"/>
     <use xlink:href="#DejaVuSans-2e" transform="translate(2881.681641 0)"/>
     <use xlink:href="#DejaVuSans-30" transform="translate(2913.46875 0)"/>
     <use xlink:href="#DejaVuSans-2c" transform="translate(2977.091797 0)"/>
     <use xlink:href="#DejaVuSans-20" transform="translate(3008.878906 0)"/>
     <use xlink:href="#DejaVuSans-31" transform="translate(3040.666016 0)"/>
     <use xlink:href="#DejaVuSans-2e" transform="translate(3104.289062 0)"/>
     <use xlink:href="#DejaVuSans-30" transform="translate(3136.076172 0)"/>
     <use xlink:href="#DejaVuSans-5d" transform="translate(3199.699219 0)"/>
     <use xlink:href="#DejaVuSans-29" transform="translate(3238.712891 0)"/>
    </g>
   </g>
   <g id="legend_1">
    <g id="patch_7">
     <path d="M 630.032748 86.544634 
L 771.769 86.544634 
Q 773.435 86.544634 773.435 84.878634 
L 773.435 49.031 
Q 773.435 47.365 771.769 47.365 
L 630.032748 47.365 
Q 628.366748 47.365 628.366748 49.031 
L 628.366748 84.878634 
Q 628.366748 86.544634 630.032748 86.544634 
z
" style="fill: #ffffff; opacity: 0.8; stroke: #cccccc; stroke-linejoin: miter"/>
    </g>
    <g id="line2d_38">
     <path d="M 631.698748 54.110998 
L 640.028748 54.110998 
L 648.358748 54.110998 
" style="fill: none; stroke: #ff0000; stroke-width: 1.5; stroke-linecap: square"/>
    </g>
    <g id="text_12">
     <!-- ExactGPModel Mean Regret -->
     <g transform="translate(655.022748 57.026498) scale(0.0833 -0.0833)">
      <defs>
       <path id="DejaVuSans-45" d="M 628 4666 
L 3578 4666 
L 3578 4134 
L 1259 4134 
L 1259 2753 
L 3481 2753 
L 3481 2222 
L 1259 2222 
L 1259 531 
L 3634 531 
L 3634 0 
L 628 0 
L 628 4666 
z
" transform="scale(0.015625)"/>
       <path id="DejaVuSans-78" d="M 3513 3500 
L 2247 1797 
L 3578 0 
L 2900 0 
L 1881 1375 
L 863 0 
L 184 0 
L 1544 1831 
L 300 3500 
L 978 3500 
L 1906 2253 
L 2834 3500 
L 3513 3500 
z
" transform="scale(0.015625)"/>
       <path id="DejaVuSans-47" d="M 3809 666 
L 3809 1919 
L 2778 1919 
L 2778 2438 
L 4434 2438 
L 4434 434 
Q 4069 175 3628 42 
Q 3188 -91 2688 -91 
Q 1594 -91 976 548 
Q 359 1188 359 2328 
Q 359 3472 976 4111 
Q 1594 4750 2688 4750 
Q 3144 4750 3555 4637 
Q 3966 4525 4313 4306 
L 4313 3634 
Q 3963 3931 3569 4081 
Q 3175 4231 2741 4231 
Q 1884 4231 1454 3753 
Q 1025 3275 1025 2328 
Q 1025 1384 1454 906 
Q 1884 428 2741 428 
Q 3075 428 3337 486 
Q 3600 544 3809 666 
z
" transform="scale(0.015625)"/>
       <path id="DejaVuSans-50" d="M 1259 4147 
L 1259 2394 
L 2053 2394 
Q 2494 2394 2734 2622 
Q 2975 2850 2975 3272 
Q 2975 3691 2734 3919 
Q 2494 4147 2053 4147 
L 1259 4147 
z
M 628 4666 
L 2053 4666 
Q 2838 4666 3239 4311 
Q 3641 3956 3641 3272 
Q 3641 2581 3239 2228 
Q 2838 1875 2053 1875 
L 1259 1875 
L 1259 0 
L 628 0 
L 628 4666 
z
" transform="scale(0.015625)"/>
       <path id="DejaVuSans-64" d="M 2906 2969 
L 2906 4863 
L 3481 4863 
L 3481 0 
L 2906 0 
L 2906 525 
Q 2725 213 2448 61 
Q 2172 -91 1784 -91 
Q 1150 -91 751 415 
Q 353 922 353 1747 
Q 353 2572 751 3078 
Q 1150 3584 1784 3584 
Q 2172 3584 2448 3432 
Q 2725 3281 2906 2969 
z
M 947 1747 
Q 947 1113 1208 752 
Q 1469 391 1925 391 
Q 2381 391 2643 752 
Q 2906 1113 2906 1747 
Q 2906 2381 2643 2742 
Q 2381 3103 1925 3103 
Q 1469 3103 1208 2742 
Q 947 2381 947 1747 
z
" transform="scale(0.015625)"/>
      </defs>
      <use xlink:href="#DejaVuSans-45"/>
      <use xlink:href="#DejaVuSans-78" transform="translate(63.183594 0)"/>
      <use xlink:href="#DejaVuSans-61" transform="translate(122.363281 0)"/>
      <use xlink:href="#DejaVuSans-63" transform="translate(183.642578 0)"/>
      <use xlink:href="#DejaVuSans-74" transform="translate(238.623047 0)"/>
      <use xlink:href="#DejaVuSans-47" transform="translate(277.832031 0)"/>
      <use xlink:href="#DejaVuSans-50" transform="translate(355.322266 0)"/>
      <use xlink:href="#DejaVuSans-4d" transform="translate(415.625 0)"/>
      <use xlink:href="#DejaVuSans-6f" transform="translate(501.904297 0)"/>
      <use xlink:href="#DejaVuSans-64" transform="translate(563.085938 0)"/>
      <use xlink:href="#DejaVuSans-65" transform="translate(626.5625 0)"/>
      <use xlink:href="#DejaVuSans-6c" transform="translate(688.085938 0)"/>
      <use xlink:href="#DejaVuSans-20" transform="translate(715.869141 0)"/>
      <use xlink:href="#DejaVuSans-4d" transform="translate(747.65625 0)"/>
      <use xlink:href="#DejaVuSans-65" transform="translate(833.935547 0)"/>
      <use xlink:href="#DejaVuSans-61" transform="translate(895.458984 0)"/>
      <use xlink:href="#DejaVuSans-6e" transform="translate(956.738281 0)"/>
      <use xlink:href="#DejaVuSans-20" transform="translate(1020.117188 0)"/>
      <use xlink:href="#DejaVuSans-52" transform="translate(1051.904297 0)"/>
      <use xlink:href="#DejaVuSans-65" transform="translate(1116.886719 0)"/>
      <use xlink:href="#DejaVuSans-67" transform="translate(1178.410156 0)"/>
      <use xlink:href="#DejaVuSans-72" transform="translate(1241.886719 0)"/>
      <use xlink:href="#DejaVuSans-65" transform="translate(1280.75 0)"/>
      <use xlink:href="#DejaVuSans-74" transform="translate(1342.273438 0)"/>
     </g>
    </g>
    <g id="line2d_39">
     <path d="M 631.698748 66.337877 
L 640.028748 66.337877 
L 648.358748 66.337877 
" style="fill: none; stroke: #0000ff; stroke-width: 1.5; stroke-linecap: square"/>
    </g>
    <g id="text_13">
     <!-- AdditiveGP Mean Regret -->
     <g transform="translate(655.022748 69.253377) scale(0.0833 -0.0833)">
      <defs>
       <path id="DejaVuSans-41" d="M 2188 4044 
L 1331 1722 
L 3047 1722 
L 2188 4044 
z
M 1831 4666 
L 2547 4666 
L 4325 0 
L 3669 0 
L 3244 1197 
L 1141 1197 
L 716 0 
L 50 0 
L 1831 4666 
z
" transform="scale(0.015625)"/>
       <path id="DejaVuSans-76" d="M 191 3500 
L 800 3500 
L 1894 563 
L 2988 3500 
L 3597 3500 
L 2284 0 
L 1503 0 
L 191 3500 
z
" transform="scale(0.015625)"/>
      </defs>
      <use xlink:href="#DejaVuSans-41"/>
      <use xlink:href="#DejaVuSans-64" transform="translate(66.658203 0)"/>
      <use xlink:href="#DejaVuSans-64" transform="translate(130.134766 0)"/>
      <use xlink:href="#DejaVuSans-69" transform="translate(193.611328 0)"/>
      <use xlink:href="#DejaVuSans-74" transform="translate(221.394531 0)"/>
      <use xlink:href="#DejaVuSans-69" transform="translate(260.603516 0)"/>
      <use xlink:href="#DejaVuSans-76" transform="translate(288.386719 0)"/>
      <use xlink:href="#DejaVuSans-65" transform="translate(347.566406 0)"/>
      <use xlink:href="#DejaVuSans-47" transform="translate(409.089844 0)"/>
      <use xlink:href="#DejaVuSans-50" transform="translate(486.580078 0)"/>
      <use xlink:href="#DejaVuSans-20" transform="translate(546.882812 0)"/>
      <use xlink:href="#DejaVuSans-4d" transform="translate(578.669922 0)"/>
      <use xlink:href="#DejaVuSans-65" transform="translate(664.949219 0)"/>
      <use xlink:href="#DejaVuSans-61" transform="translate(726.472656 0)"/>
      <use xlink:href="#DejaVuSans-6e" transform="translate(787.751953 0)"/>
      <use xlink:href="#DejaVuSans-20" transform="translate(851.130859 0)"/>
      <use xlink:href="#DejaVuSans-52" transform="translate(882.917969 0)"/>
      <use xlink:href="#DejaVuSans-65" transform="translate(947.900391 0)"/>
      <use xlink:href="#DejaVuSans-67" transform="translate(1009.423828 0)"/>
      <use xlink:href="#DejaVuSans-72" transform="translate(1072.900391 0)"/>
      <use xlink:href="#DejaVuSans-65" transform="translate(1111.763672 0)"/>
      <use xlink:href="#DejaVuSans-74" transform="translate(1173.287109 0)"/>
     </g>
    </g>
    <g id="line2d_40">
     <path d="M 631.698748 78.564755 
L 640.028748 78.564755 
L 648.358748 78.564755 
" style="fill: none; stroke: #008000; stroke-width: 1.5; stroke-linecap: square"/>
    </g>
    <g id="text_14">
     <!-- SobolGP Mean Regret -->
     <g transform="translate(655.022748 81.480255) scale(0.0833 -0.0833)">
      <defs>
       <path id="DejaVuSans-53" d="M 3425 4513 
L 3425 3897 
Q 3066 4069 2747 4153 
Q 2428 4238 2131 4238 
Q 1616 4238 1336 4038 
Q 1056 3838 1056 3469 
Q 1056 3159 1242 3001 
Q 1428 2844 1947 2747 
L 2328 2669 
Q 3034 2534 3370 2195 
Q 3706 1856 3706 1288 
Q 3706 609 3251 259 
Q 2797 -91 1919 -91 
Q 1588 -91 1214 -16 
Q 841 59 441 206 
L 441 856 
Q 825 641 1194 531 
Q 1563 422 1919 422 
Q 2459 422 2753 634 
Q 3047 847 3047 1241 
Q 3047 1584 2836 1778 
Q 2625 1972 2144 2069 
L 1759 2144 
Q 1053 2284 737 2584 
Q 422 2884 422 3419 
Q 422 4038 858 4394 
Q 1294 4750 2059 4750 
Q 2388 4750 2728 4690 
Q 3069 4631 3425 4513 
z
" transform="scale(0.015625)"/>
      </defs>
      <use xlink:href="#DejaVuSans-53"/>
      <use xlink:href="#DejaVuSans-6f" transform="translate(63.476562 0)"/>
      <use xlink:href="#DejaVuSans-62" transform="translate(124.658203 0)"/>
      <use xlink:href="#DejaVuSans-6f" transform="translate(188.134766 0)"/>
      <use xlink:href="#DejaVuSans-6c" transform="translate(249.316406 0)"/>
      <use xlink:href="#DejaVuSans-47" transform="translate(277.099609 0)"/>
      <use xlink:href="#DejaVuSans-50" transform="translate(354.589844 0)"/>
      <use xlink:href="#DejaVuSans-20" transform="translate(414.892578 0)"/>
      <use xlink:href="#DejaVuSans-4d" transform="translate(446.679688 0)"/>
      <use xlink:href="#DejaVuSans-65" transform="translate(532.958984 0)"/>
      <use xlink:href="#DejaVuSans-61" transform="translate(594.482422 0)"/>
      <use xlink:href="#DejaVuSans-6e" transform="translate(655.761719 0)"/>
      <use xlink:href="#DejaVuSans-20" transform="translate(719.140625 0)"/>
      <use xlink:href="#DejaVuSans-52" transform="translate(750.927734 0)"/>
      <use xlink:href="#DejaVuSans-65" transform="translate(815.910156 0)"/>
      <use xlink:href="#DejaVuSans-67" transform="translate(877.433594 0)"/>
      <use xlink:href="#DejaVuSans-72" transform="translate(940.910156 0)"/>
      <use xlink:href="#DejaVuSans-65" transform="translate(979.773438 0)"/>
      <use xlink:href="#DejaVuSans-74" transform="translate(1041.296875 0)"/>
     </g>
    </g>
   </g>
  </g>
 </g>
 <defs>
  <clipPath id="p17525e6c41">
   <rect x="108" y="43.2" width="669.6" height="277.2"/>
  </clipPath>
 </defs>
</svg>
